<?xml version="1.0" standalone="no"?>
<!DOCTYPE svg PUBLIC "-//W3C//DTD SVG 1.1//EN" "http://www.w3.org/Graphics/SVG/1.1/DTD/svg11.dtd" >
<svg>
<metadata>
Created by FontForge 20090622 at Thu Feb 11 16:48:56 2016
 By ffonts
Copyright (c) 2015 by Fontfabric LLC. All rights reserved.
</metadata>
<defs>
<font id="MullerThinDEMO" horiz-adv-x="373" >
  <font-face 
    font-family="Muller Thin DEMO"
    font-weight="250"
    font-stretch="normal"
    units-per-em="1000"
    panose-1="0 0 0 0 0 0 0 0 0 0"
    ascent="780"
    descent="-220"
    x-height="480"
    cap-height="700"
    bbox="-221 -230 1213 976"
    underline-thickness="50"
    underline-position="-75"
    unicode-range="U+0020-U+25CA"
  />
<missing-glyph horiz-adv-x="267" 
 />
    <glyph glyph-name="f_f" unicode="ff" horiz-adv-x="657" 
d="M682 674q-19 11 -49 17.5t-61 6.5q-26 0 -50 -6.5t-42 -21.5t-29 -39t-11 -59v-92h213v-23h-213v-457h-24v457h-286v-457h-24v457h-82v23h82v58q0 39 13 68t35.5 48t52 28.5t62.5 9.5q48 0 86 -12.5t74 -37.5q19 43 57 60.5t82 17.5q33 0 63.5 -6t50.5 -17v-23zM416 480
v93q0 27 6 48q-33 23 -68.5 36t-83.5 13q-63 0 -101.5 -34.5t-38.5 -97.5v-58h286z" />
    <glyph glyph-name="f_f_i" unicode="ffi" horiz-adv-x="834" 
d="M106 0v457h-82v23h82v58q0 39 13 68t36.5 48t54.5 28.5t67 9.5q48 0 84 -13t74 -39q21 36 59.5 54t84.5 18q83 0 157 -45v-25q-33 21 -73.5 34.5t-82.5 13.5q-63 0 -101.5 -33.5t-38.5 -92.5v-84h307v-480h-24v457h-283v-457h-24v457h-286v-457h-24zM130 480h286v84
q0 29 10 57q-32 23 -66.5 36t-81.5 13q-69 0 -108.5 -34.5t-39.5 -97.5v-58z" />
    <glyph glyph-name="f_f_l" unicode="ffl" horiz-adv-x="844" 
d="M733 698l24 8v-706h-24v650q-32 18 -70 29t-83 11q-63 0 -101.5 -34.5t-38.5 -99.5v-76h195v-23h-195v-457h-24v457h-286v-457h-24v457h-82v23h82v58q0 39 13 68t36.5 48t54.5 28.5t67 9.5q48 0 85 -13.5t75 -39.5q20 38 58.5 55.5t83.5 17.5q43 0 81.5 -10t72.5 -29v25z
M416 556q0 37 12 64q-34 23 -68 36.5t-82 13.5q-69 0 -108.5 -34.5t-39.5 -97.5v-58h286v76z" />
    <glyph glyph-name=".notdef" horiz-adv-x="267" 
 />
    <glyph glyph-name="Aacute" unicode="&#xc1;" horiz-adv-x="704" 
d="M16 0l322 700h29l321 -700h-27l-99 215h-420l-99 -215h-27zM153 239h400l-193 421l-3.5 8.5t-3.5 7.5q-2 -4 -3.5 -7.5l-3.5 -8.5zM112 914h500v-165h-500v165zM169 787h31q23 0 35 12t12 32q0 18 -12 31t-35 13h-31v-88zM184 859h16q15 0 23 -8t8 -20q0 -29 -31 -29h-16
v57zM288 802v21h46v16h-46v20h46v16h-62v-88h62v15h-46zM453 787v88h-21l-26 -36l-26 36h-21v-88h17v66l30 -39l31 40v-67h16zM523 880q-19 0 -32 -13.5t-13 -33.5q0 -19 11 -33t34 -14q24 0 35.5 14t11.5 33q0 22 -13.5 34.5t-33.5 12.5zM493 833q0 12 7.5 22t22.5 10
q16 0 23.5 -10t7.5 -22q0 -13 -7 -22.5t-24 -9.5q-15 0 -22.5 10.5t-7.5 21.5z" />
    <glyph glyph-name="Abreve" unicode="&#x102;" horiz-adv-x="704" 
d="M16 0l322 700h29l321 -700h-27l-99 215h-420l-99 -215h-27zM153 239h400l-193 421l-3.5 8.5t-3.5 7.5q-2 -4 -3.5 -7.5l-3.5 -8.5zM97 914h500v-165h-500v165zM154 787h31q23 0 35 12t12 32q0 18 -12 31t-35 13h-31v-88zM169 859h16q15 0 23 -8t8 -20q0 -29 -31 -29h-16
v57zM273 802v21h46v16h-46v20h46v16h-62v-88h62v15h-46zM438 787v88h-21l-26 -36l-26 36h-21v-88h17v66l30 -39l31 40v-67h16zM508 880q-19 0 -32 -13.5t-13 -33.5q0 -19 11 -33t34 -14q24 0 35.5 14t11.5 33q0 22 -13.5 34.5t-33.5 12.5zM478 833q0 12 7.5 22t22.5 10
q16 0 23.5 -10t7.5 -22q0 -13 -7 -22.5t-24 -9.5q-15 0 -22.5 10.5t-7.5 21.5z" />
    <glyph glyph-name="Acircumflex" unicode="&#xc2;" horiz-adv-x="704" 
d="M16 0l322 700h29l321 -700h-27l-99 215h-420l-99 -215h-27zM153 239h400l-193 421l-3.5 8.5t-3.5 7.5q-2 -4 -3.5 -7.5l-3.5 -8.5zM86 914h500v-165h-500v165zM143 787h31q23 0 35 12t12 32q0 18 -12 31t-35 13h-31v-88zM158 859h16q15 0 23 -8t8 -20q0 -29 -31 -29h-16
v57zM262 802v21h46v16h-46v20h46v16h-62v-88h62v15h-46zM427 787v88h-21l-26 -36l-26 36h-21v-88h17v66l30 -39l31 40v-67h16zM497 880q-19 0 -32 -13.5t-13 -33.5q0 -19 11 -33t34 -14q24 0 35.5 14t11.5 33q0 22 -13.5 34.5t-33.5 12.5zM467 833q0 12 7.5 22t22.5 10
q16 0 23.5 -10t7.5 -22q0 -13 -7 -22.5t-24 -9.5q-15 0 -22.5 10.5t-7.5 21.5z" />
    <glyph glyph-name="Adieresis" unicode="&#xc4;" horiz-adv-x="704" 
d="M16 0l322 700h29l321 -700h-27l-99 215h-420l-99 -215h-27zM153 239h400l-193 421l-3.5 8.5t-3.5 7.5q-2 -4 -3.5 -7.5l-3.5 -8.5zM92 914h500v-165h-500v165zM149 787h31q23 0 35 12t12 32q0 18 -12 31t-35 13h-31v-88zM164 859h16q15 0 23 -8t8 -20q0 -29 -31 -29h-16
v57zM268 802v21h46v16h-46v20h46v16h-62v-88h62v15h-46zM433 787v88h-21l-26 -36l-26 36h-21v-88h17v66l30 -39l31 40v-67h16zM503 880q-19 0 -32 -13.5t-13 -33.5q0 -19 11 -33t34 -14q24 0 35.5 14t11.5 33q0 22 -13.5 34.5t-33.5 12.5zM473 833q0 12 7.5 22t22.5 10
q16 0 23.5 -10t7.5 -22q0 -13 -7 -22.5t-24 -9.5q-15 0 -22.5 10.5t-7.5 21.5z" />
    <glyph glyph-name="Agrave" unicode="&#xc0;" horiz-adv-x="704" 
d="M16 0l322 700h29l321 -700h-27l-99 215h-420l-99 -215h-27zM153 239h400l-193 421l-3.5 8.5t-3.5 7.5q-2 -4 -3.5 -7.5l-3.5 -8.5zM97 913h500v-165h-500v165zM154 786h31q23 0 35 12t12 32q0 18 -12 31t-35 13h-31v-88zM169 858h16q15 0 23 -8t8 -20q0 -29 -31 -29h-16
v57zM273 801v21h46v16h-46v20h46v16h-62v-88h62v15h-46zM438 786v88h-21l-26 -36l-26 36h-21v-88h17v66l30 -39l31 40v-67h16zM508 879q-19 0 -32 -13.5t-13 -33.5q0 -19 11 -33t34 -14q24 0 35.5 14t11.5 33q0 22 -13.5 34.5t-33.5 12.5zM478 832q0 12 7.5 22t22.5 10
q16 0 23.5 -10t7.5 -22q0 -13 -7 -22.5t-24 -9.5q-15 0 -22.5 10.5t-7.5 21.5z" />
    <glyph glyph-name="Amacron" unicode="&#x100;" horiz-adv-x="704" 
d="M16 0l322 700h29l321 -700h-27l-99 215h-420l-99 -215h-27zM153 239h400l-193 421l-3.5 8.5t-3.5 7.5q-2 -4 -3.5 -7.5l-3.5 -8.5zM92 914h500v-165h-500v165zM149 787h31q23 0 35 12t12 32q0 18 -12 31t-35 13h-31v-88zM164 859h16q15 0 23 -8t8 -20q0 -29 -31 -29h-16
v57zM268 802v21h46v16h-46v20h46v16h-62v-88h62v15h-46zM433 787v88h-21l-26 -36l-26 36h-21v-88h17v66l30 -39l31 40v-67h16zM503 880q-19 0 -32 -13.5t-13 -33.5q0 -19 11 -33t34 -14q24 0 35.5 14t11.5 33q0 22 -13.5 34.5t-33.5 12.5zM473 833q0 12 7.5 22t22.5 10
q16 0 23.5 -10t7.5 -22q0 -13 -7 -22.5t-24 -9.5q-15 0 -22.5 10.5t-7.5 21.5z" />
    <glyph glyph-name="Aogonek" unicode="&#x104;" horiz-adv-x="704" 
d="M16 0l322 700h29l321 -700h-27l-99 215h-420l-99 -215h-27zM153 239h400l-193 421l-3.5 8.5t-3.5 7.5q-2 -4 -3.5 -7.5l-3.5 -8.5z" />
    <glyph glyph-name="Aring" unicode="&#xc5;" horiz-adv-x="704" 
d="M16 0l322 700h29l321 -700h-27l-99 215h-420l-99 -215h-27zM153 239h400l-193 421l-3.5 8.5t-3.5 7.5q-2 -4 -3.5 -7.5l-3.5 -8.5zM88 914h500v-165h-500v165zM145 787h31q23 0 35 12t12 32q0 18 -12 31t-35 13h-31v-88zM160 859h16q15 0 23 -8t8 -20q0 -29 -31 -29h-16
v57zM264 802v21h46v16h-46v20h46v16h-62v-88h62v15h-46zM429 787v88h-21l-26 -36l-26 36h-21v-88h17v66l30 -39l31 40v-67h16zM499 880q-19 0 -32 -13.5t-13 -33.5q0 -19 11 -33t34 -14q24 0 35.5 14t11.5 33q0 22 -13.5 34.5t-33.5 12.5zM469 833q0 12 7.5 22t22.5 10
q16 0 23.5 -10t7.5 -22q0 -13 -7 -22.5t-24 -9.5q-15 0 -22.5 10.5t-7.5 21.5z" />
    <glyph glyph-name="Atilde" unicode="&#xc3;" horiz-adv-x="704" 
d="M16 0l322 700h29l321 -700h-27l-99 215h-420l-99 -215h-27zM153 239h400l-193 421l-3.5 8.5t-3.5 7.5q-2 -4 -3.5 -7.5l-3.5 -8.5zM85 914h500v-165h-500v165zM142 787h31q23 0 35 12t12 32q0 18 -12 31t-35 13h-31v-88zM157 859h16q15 0 23 -8t8 -20q0 -29 -31 -29h-16
v57zM261 802v21h46v16h-46v20h46v16h-62v-88h62v15h-46zM426 787v88h-21l-26 -36l-26 36h-21v-88h17v66l30 -39l31 40v-67h16zM496 880q-19 0 -32 -13.5t-13 -33.5q0 -19 11 -33t34 -14q24 0 35.5 14t11.5 33q0 22 -13.5 34.5t-33.5 12.5zM466 833q0 12 7.5 22t22.5 10
q16 0 23.5 -10t7.5 -22q0 -13 -7 -22.5t-24 -9.5q-15 0 -22.5 10.5t-7.5 21.5z" />
    <glyph glyph-name="AE" unicode="&#xc6;" 
d="M71 0v700h232v-700h-232zM247 77v48q0 32 -19 46.5t-42 13.5q-23 0 -41.5 -14t-18.5 -46v-48h121zM148 125q-1 20 11.5 28t26.5 10q14 0 27 -8.5t13 -29.5v-26h-78v26zM226 243h-28v65h-21v-65h-28v67h-23v-90h121v90h-21v-67zM247 477h-121v-26l53 -39l-53 -37v-26h121
v22h-87l53 39v4l-53 41h87v22zM123 574q0 -26 18 -44t47 -18q23 0 43 15t20 47t-20.5 46.5t-43.5 15.5q-23 0 -43.5 -15t-20.5 -47zM188 534q-18 -1 -31 9.5t-12 30.5q0 22 14 31t29 9q15 -2 28 -10t13 -30t-13 -31t-28 -9z" />
    <glyph glyph-name="B" unicode="B" horiz-adv-x="674" 
d="M357 700q51 0 94 -10t74 -31.5t48.5 -54.5t17.5 -79q0 -35 -12 -62t-31.5 -46.5t-44.5 -32t-52 -16.5q26 -5 55.5 -15.5t54.5 -31.5t41.5 -53.5t16.5 -79.5q0 -62 -26.5 -99.5t-66.5 -57t-87.5 -25.5t-89.5 -6h-244v700h252zM594 190q0 53 -23 85.5t-55.5 50t-69 23.5
t-64.5 6h-252v-331h216q40 0 84 5t80.5 22t60 50t23.5 89zM566 523q0 41 -15 70t-43 47.5t-66.5 27t-85.5 8.5h-226v-297h262q33 0 64.5 9.5t55.5 28t39 45t15 61.5z" />
    <glyph glyph-name="C" unicode="C" horiz-adv-x="658" 
d="M53 341q0 92 31.5 161t82.5 115.5t115.5 69.5t129.5 23q53 0 103.5 -12t92.5 -36v-25q-40 23 -90 36t-103 13q-62 0 -122 -21.5t-108 -64.5t-77.5 -107.5t-29.5 -151.5q0 -84 30 -145.5t78 -102t108.5 -60t122.5 -19.5q115 0 200 50v-25q-84 -49 -204 -49
q-65 0 -129.5 21t-115.5 64.5t-83 109.5t-32 156z" />
    <glyph glyph-name="Cacute" unicode="&#x106;" horiz-adv-x="658" 
d="M53 341q0 92 31.5 161t82.5 115.5t115.5 69.5t129.5 23q53 0 103.5 -12t92.5 -36v-25q-40 23 -90 36t-103 13q-62 0 -122 -21.5t-108 -64.5t-77.5 -107.5t-29.5 -151.5q0 -84 30 -145.5t78 -102t108.5 -60t122.5 -19.5q115 0 200 50v-25q-84 -49 -204 -49
q-65 0 -129.5 21t-115.5 64.5t-83 109.5t-32 156zM164 914h500v-165h-500v165zM221 787h31q23 0 35 12t12 32q0 18 -12 31t-35 13h-31v-88zM236 859h16q15 0 23 -8t8 -20q0 -29 -31 -29h-16v57zM340 802v21h46v16h-46v20h46v16h-62v-88h62v15h-46zM505 787v88h-21l-26 -36
l-26 36h-21v-88h17v66l30 -39l31 40v-67h16zM575 880q-19 0 -32 -13.5t-13 -33.5q0 -19 11 -33t34 -14q24 0 35.5 14t11.5 33q0 22 -13.5 34.5t-33.5 12.5zM545 833q0 12 7.5 22t22.5 10q16 0 23.5 -10t7.5 -22q0 -13 -7 -22.5t-24 -9.5q-15 0 -22.5 10.5t-7.5 21.5z" />
    <glyph glyph-name="Ccaron" unicode="&#x10c;" horiz-adv-x="658" 
d="M53 341q0 92 31.5 161t82.5 115.5t115.5 69.5t129.5 23q53 0 103.5 -12t92.5 -36v-25q-40 23 -90 36t-103 13q-62 0 -122 -21.5t-108 -64.5t-77.5 -107.5t-29.5 -151.5q0 -84 30 -145.5t78 -102t108.5 -60t122.5 -19.5q115 0 200 50v-25q-84 -49 -204 -49
q-65 0 -129.5 21t-115.5 64.5t-83 109.5t-32 156zM157 913h500v-165h-500v165zM214 786h31q23 0 35 12t12 32q0 18 -12 31t-35 13h-31v-88zM229 858h16q15 0 23 -8t8 -20q0 -29 -31 -29h-16v57zM333 801v21h46v16h-46v20h46v16h-62v-88h62v15h-46zM498 786v88h-21l-26 -36
l-26 36h-21v-88h17v66l30 -39l31 40v-67h16zM568 879q-19 0 -32 -13.5t-13 -33.5q0 -19 11 -33t34 -14q24 0 35.5 14t11.5 33q0 22 -13.5 34.5t-33.5 12.5zM538 832q0 12 7.5 22t22.5 10q16 0 23.5 -10t7.5 -22q0 -13 -7 -22.5t-24 -9.5q-15 0 -22.5 10.5t-7.5 21.5z" />
    <glyph glyph-name="Ccedilla" unicode="&#xc7;" horiz-adv-x="658" 
d="M53 341q0 92 31.5 161t82.5 115.5t115.5 69.5t129.5 23q53 0 103.5 -12t92.5 -36v-25q-40 23 -90 36t-103 13q-62 0 -122 -21.5t-108 -64.5t-77.5 -107.5t-29.5 -151.5q0 -84 30 -145.5t78 -102t108.5 -60t122.5 -19.5q115 0 200 50v-25q-84 -49 -204 -49
q-65 0 -129.5 21t-115.5 64.5t-83 109.5t-32 156z" />
    <glyph glyph-name="Cdotaccent" unicode="&#x10a;" horiz-adv-x="658" 
d="M53 341q0 92 31.5 161t82.5 115.5t115.5 69.5t129.5 23q53 0 103.5 -12t92.5 -36v-25q-40 23 -90 36t-103 13q-62 0 -122 -21.5t-108 -64.5t-77.5 -107.5t-29.5 -151.5q0 -84 30 -145.5t78 -102t108.5 -60t122.5 -19.5q115 0 200 50v-25q-84 -49 -204 -49
q-65 0 -129.5 21t-115.5 64.5t-83 109.5t-32 156zM139 914h500v-165h-500v165zM196 787h31q23 0 35 12t12 32q0 18 -12 31t-35 13h-31v-88zM211 859h16q15 0 23 -8t8 -20q0 -29 -31 -29h-16v57zM315 802v21h46v16h-46v20h46v16h-62v-88h62v15h-46zM480 787v88h-21l-26 -36
l-26 36h-21v-88h17v66l30 -39l31 40v-67h16zM550 880q-19 0 -32 -13.5t-13 -33.5q0 -19 11 -33t34 -14q24 0 35.5 14t11.5 33q0 22 -13.5 34.5t-33.5 12.5zM520 833q0 12 7.5 22t22.5 10q16 0 23.5 -10t7.5 -22q0 -13 -7 -22.5t-24 -9.5q-15 0 -22.5 10.5t-7.5 21.5z" />
    <glyph glyph-name="D" unicode="D" horiz-adv-x="730" 
d="M304 700q94 0 164 -26.5t116.5 -73t69 -111t22.5 -139.5t-22.5 -139.5t-69 -111t-116.5 -73t-164 -26.5h-199v700h199zM651 350q0 71 -21 131t-64 103.5t-108.5 67.5t-153.5 24h-174v-652h174q88 0 153.5 24t108.5 67.5t64 103.5t21 131z" />
    <glyph glyph-name="Eth" unicode="&#xd0;" horiz-adv-x="730" 
d="M304 700q94 0 164 -26.5t116.5 -73t69 -111t22.5 -139.5t-22.5 -139.5t-69 -111t-116.5 -73t-164 -26.5h-199v700h199zM304 24q88 0 153.5 24t108.5 67.5t64 103.5t21 131t-21 131t-64 103.5t-108.5 67.5t-153.5 24h-174v-652h174z" />
    <glyph glyph-name="Dcaron" unicode="&#x10e;" horiz-adv-x="730" 
d="M304 700q94 0 164 -26.5t116.5 -73t69 -111t22.5 -139.5t-22.5 -139.5t-69 -111t-116.5 -73t-164 -26.5h-199v700h199zM651 350q0 71 -21 131t-64 103.5t-108.5 67.5t-153.5 24h-174v-652h174q88 0 153.5 24t108.5 67.5t64 103.5t21 131zM97 913h500v-165h-500v165z
M154 786h31q23 0 35 12t12 32q0 18 -12 31t-35 13h-31v-88zM169 858h16q15 0 23 -8t8 -20q0 -29 -31 -29h-16v57zM273 801v21h46v16h-46v20h46v16h-62v-88h62v15h-46zM438 786v88h-21l-26 -36l-26 36h-21v-88h17v66l30 -39l31 40v-67h16zM508 879q-19 0 -32 -13.5t-13 -33.5
q0 -19 11 -33t34 -14q24 0 35.5 14t11.5 33q0 22 -13.5 34.5t-33.5 12.5zM478 832q0 12 7.5 22t22.5 10q16 0 23.5 -10t7.5 -22q0 -13 -7 -22.5t-24 -9.5q-15 0 -22.5 10.5t-7.5 21.5z" />
    <glyph glyph-name="Dcroat" unicode="&#x110;" horiz-adv-x="730" 
d="M304 700q94 0 164 -26.5t116.5 -73t69 -111t22.5 -139.5t-22.5 -139.5t-69 -111t-116.5 -73t-164 -26.5h-199v700h199zM304 24q88 0 153.5 24t108.5 67.5t64 103.5t21 131t-21 131t-64 103.5t-108.5 67.5t-153.5 24h-174v-652h174z" />
    <glyph glyph-name="E" unicode="E" horiz-adv-x="628" 
d="M560 700v-24h-430v-312h400v-24h-400v-316h439v-24h-464v700h455z" />
    <glyph glyph-name="Eacute" unicode="&#xc9;" horiz-adv-x="628" 
d="M560 700v-24h-430v-312h400v-24h-400v-316h439v-24h-464v700h455zM93 914h500v-165h-500v165zM150 787h31q23 0 35 12t12 32q0 18 -12 31t-35 13h-31v-88zM165 859h16q15 0 23 -8t8 -20q0 -29 -31 -29h-16v57zM269 802v21h46v16h-46v20h46v16h-62v-88h62v15h-46zM434 787
v88h-21l-26 -36l-26 36h-21v-88h17v66l30 -39l31 40v-67h16zM504 880q-19 0 -32 -13.5t-13 -33.5q0 -19 11 -33t34 -14q24 0 35.5 14t11.5 33q0 22 -13.5 34.5t-33.5 12.5zM474 833q0 12 7.5 22t22.5 10q16 0 23.5 -10t7.5 -22q0 -13 -7 -22.5t-24 -9.5q-15 0 -22.5 10.5
t-7.5 21.5z" />
    <glyph glyph-name="Ecaron" unicode="&#x11a;" horiz-adv-x="628" 
d="M560 700v-24h-430v-312h400v-24h-400v-316h439v-24h-464v700h455zM86 913h500v-165h-500v165zM143 786h31q23 0 35 12t12 32q0 18 -12 31t-35 13h-31v-88zM158 858h16q15 0 23 -8t8 -20q0 -29 -31 -29h-16v57zM262 801v21h46v16h-46v20h46v16h-62v-88h62v15h-46zM427 786
v88h-21l-26 -36l-26 36h-21v-88h17v66l30 -39l31 40v-67h16zM497 879q-19 0 -32 -13.5t-13 -33.5q0 -19 11 -33t34 -14q24 0 35.5 14t11.5 33q0 22 -13.5 34.5t-33.5 12.5zM467 832q0 12 7.5 22t22.5 10q16 0 23.5 -10t7.5 -22q0 -13 -7 -22.5t-24 -9.5q-15 0 -22.5 10.5
t-7.5 21.5z" />
    <glyph glyph-name="Ecircumflex" unicode="&#xca;" horiz-adv-x="628" 
d="M560 700v-24h-430v-312h400v-24h-400v-316h439v-24h-464v700h455zM67 914h500v-165h-500v165zM124 787h31q23 0 35 12t12 32q0 18 -12 31t-35 13h-31v-88zM139 859h16q15 0 23 -8t8 -20q0 -29 -31 -29h-16v57zM243 802v21h46v16h-46v20h46v16h-62v-88h62v15h-46zM408 787
v88h-21l-26 -36l-26 36h-21v-88h17v66l30 -39l31 40v-67h16zM478 880q-19 0 -32 -13.5t-13 -33.5q0 -19 11 -33t34 -14q24 0 35.5 14t11.5 33q0 22 -13.5 34.5t-33.5 12.5zM448 833q0 12 7.5 22t22.5 10q16 0 23.5 -10t7.5 -22q0 -13 -7 -22.5t-24 -9.5q-15 0 -22.5 10.5
t-7.5 21.5z" />
    <glyph glyph-name="Edieresis" unicode="&#xcb;" horiz-adv-x="628" 
d="M560 700v-24h-430v-312h400v-24h-400v-316h439v-24h-464v700h455zM73 914h500v-165h-500v165zM130 787h31q23 0 35 12t12 32q0 18 -12 31t-35 13h-31v-88zM145 859h16q15 0 23 -8t8 -20q0 -29 -31 -29h-16v57zM249 802v21h46v16h-46v20h46v16h-62v-88h62v15h-46zM414 787
v88h-21l-26 -36l-26 36h-21v-88h17v66l30 -39l31 40v-67h16zM484 880q-19 0 -32 -13.5t-13 -33.5q0 -19 11 -33t34 -14q24 0 35.5 14t11.5 33q0 22 -13.5 34.5t-33.5 12.5zM454 833q0 12 7.5 22t22.5 10q16 0 23.5 -10t7.5 -22q0 -13 -7 -22.5t-24 -9.5q-15 0 -22.5 10.5
t-7.5 21.5z" />
    <glyph glyph-name="Edotaccent" unicode="&#x116;" horiz-adv-x="628" 
d="M560 700v-24h-430v-312h400v-24h-400v-316h439v-24h-464v700h455zM68 914h500v-165h-500v165zM125 787h31q23 0 35 12t12 32q0 18 -12 31t-35 13h-31v-88zM140 859h16q15 0 23 -8t8 -20q0 -29 -31 -29h-16v57zM244 802v21h46v16h-46v20h46v16h-62v-88h62v15h-46zM409 787
v88h-21l-26 -36l-26 36h-21v-88h17v66l30 -39l31 40v-67h16zM479 880q-19 0 -32 -13.5t-13 -33.5q0 -19 11 -33t34 -14q24 0 35.5 14t11.5 33q0 22 -13.5 34.5t-33.5 12.5zM449 833q0 12 7.5 22t22.5 10q16 0 23.5 -10t7.5 -22q0 -13 -7 -22.5t-24 -9.5q-15 0 -22.5 10.5
t-7.5 21.5z" />
    <glyph glyph-name="Egrave" unicode="&#xc8;" horiz-adv-x="628" 
d="M560 700v-24h-430v-312h400v-24h-400v-316h439v-24h-464v700h455zM78 913h500v-165h-500v165zM135 786h31q23 0 35 12t12 32q0 18 -12 31t-35 13h-31v-88zM150 858h16q15 0 23 -8t8 -20q0 -29 -31 -29h-16v57zM254 801v21h46v16h-46v20h46v16h-62v-88h62v15h-46zM419 786
v88h-21l-26 -36l-26 36h-21v-88h17v66l30 -39l31 40v-67h16zM489 879q-19 0 -32 -13.5t-13 -33.5q0 -19 11 -33t34 -14q24 0 35.5 14t11.5 33q0 22 -13.5 34.5t-33.5 12.5zM459 832q0 12 7.5 22t22.5 10q16 0 23.5 -10t7.5 -22q0 -13 -7 -22.5t-24 -9.5q-15 0 -22.5 10.5
t-7.5 21.5z" />
    <glyph glyph-name="Emacron" unicode="&#x112;" horiz-adv-x="628" 
d="M560 700v-24h-430v-312h400v-24h-400v-316h439v-24h-464v700h455zM73 914h500v-165h-500v165zM130 787h31q23 0 35 12t12 32q0 18 -12 31t-35 13h-31v-88zM145 859h16q15 0 23 -8t8 -20q0 -29 -31 -29h-16v57zM249 802v21h46v16h-46v20h46v16h-62v-88h62v15h-46zM414 787
v88h-21l-26 -36l-26 36h-21v-88h17v66l30 -39l31 40v-67h16zM484 880q-19 0 -32 -13.5t-13 -33.5q0 -19 11 -33t34 -14q24 0 35.5 14t11.5 33q0 22 -13.5 34.5t-33.5 12.5zM454 833q0 12 7.5 22t22.5 10q16 0 23.5 -10t7.5 -22q0 -13 -7 -22.5t-24 -9.5q-15 0 -22.5 10.5
t-7.5 21.5z" />
    <glyph glyph-name="Eogonek" unicode="&#x118;" horiz-adv-x="628" 
d="M560 700v-24h-430v-312h400v-24h-400v-316h439v-24h-464v700h455z" />
    <glyph glyph-name="F" unicode="F" horiz-adv-x="592" 
d="M561 700v-24h-431v-319h402v-24h-402v-333h-25v700h456z" />
    <glyph glyph-name="G" unicode="G" horiz-adv-x="710" 
d="M54 350q0 95 32 163t84 112t118 64.5t134 20.5q54 0 106 -11.5t96 -34.5v-25q-42 23 -95 35t-105 12q-64 0 -126 -19t-110.5 -59.5t-78.5 -104t-30 -153.5t30.5 -154t80 -104.5t112.5 -59t128 -18.5q51 0 99 10t89 30v311h25v-328q-48 -23 -102.5 -35t-111.5 -12
q-70 0 -137.5 20t-120 63.5t-85 112t-32.5 164.5z" />
    <glyph glyph-name="Gbreve" unicode="&#x11e;" horiz-adv-x="710" 
d="M54 350q0 95 32 163t84 112t118 64.5t134 20.5q54 0 106 -11.5t96 -34.5v-25q-42 23 -95 35t-105 12q-64 0 -126 -19t-110.5 -59.5t-78.5 -104t-30 -153.5t30.5 -154t80 -104.5t112.5 -59t128 -18.5q51 0 99 10t89 30v311h25v-328q-48 -23 -102.5 -35t-111.5 -12
q-70 0 -137.5 20t-120 63.5t-85 112t-32.5 164.5zM152 914h500v-165h-500v165zM209 787h31q23 0 35 12t12 32q0 18 -12 31t-35 13h-31v-88zM224 859h16q15 0 23 -8t8 -20q0 -29 -31 -29h-16v57zM328 802v21h46v16h-46v20h46v16h-62v-88h62v15h-46zM493 787v88h-21l-26 -36
l-26 36h-21v-88h17v66l30 -39l31 40v-67h16zM563 880q-19 0 -32 -13.5t-13 -33.5q0 -19 11 -33t34 -14q24 0 35.5 14t11.5 33q0 22 -13.5 34.5t-33.5 12.5zM533 833q0 12 7.5 22t22.5 10q16 0 23.5 -10t7.5 -22q0 -13 -7 -22.5t-24 -9.5q-15 0 -22.5 10.5t-7.5 21.5z" />
    <glyph glyph-name="Gcommaaccent" unicode="&#x122;" horiz-adv-x="710" 
d="M54 350q0 95 32 163t84 112t118 64.5t134 20.5q54 0 106 -11.5t96 -34.5v-25q-42 23 -95 35t-105 12q-64 0 -126 -19t-110.5 -59.5t-78.5 -104t-30 -153.5t30.5 -154t80 -104.5t112.5 -59t128 -18.5q51 0 99 10t89 30v311h25v-328q-48 -23 -102.5 -35t-111.5 -12
q-70 0 -137.5 20t-120 63.5t-85 112t-32.5 164.5zM171 -35h500v-165h-500v165zM228 -162h31q23 0 35 12t12 32q0 18 -12 31t-35 13h-31v-88zM243 -90h16q15 0 23 -8t8 -20q0 -29 -31 -29h-16v57zM347 -147v21h46v16h-46v20h46v16h-62v-88h62v15h-46zM512 -162v88h-21
l-26 -36l-26 36h-21v-88h17v66l30 -39l31 40v-67h16zM582 -69q-19 0 -32 -13.5t-13 -33.5q0 -19 11 -33t34 -14q24 0 35.5 14t11.5 33q0 22 -13.5 34.5t-33.5 12.5zM552 -116q0 12 7.5 22t22.5 10q16 0 23.5 -10t7.5 -22q0 -13 -7 -22.5t-24 -9.5q-15 0 -22.5 10.5
t-7.5 21.5z" />
    <glyph glyph-name="Gdotaccent" unicode="&#x120;" horiz-adv-x="710" 
d="M54 350q0 95 32 163t84 112t118 64.5t134 20.5q54 0 106 -11.5t96 -34.5v-25q-42 23 -95 35t-105 12q-64 0 -126 -19t-110.5 -59.5t-78.5 -104t-30 -153.5t30.5 -154t80 -104.5t112.5 -59t128 -18.5q51 0 99 10t89 30v311h25v-328q-48 -23 -102.5 -35t-111.5 -12
q-70 0 -137.5 20t-120 63.5t-85 112t-32.5 164.5zM142 914h500v-165h-500v165zM199 787h31q23 0 35 12t12 32q0 18 -12 31t-35 13h-31v-88zM214 859h16q15 0 23 -8t8 -20q0 -29 -31 -29h-16v57zM318 802v21h46v16h-46v20h46v16h-62v-88h62v15h-46zM483 787v88h-21l-26 -36
l-26 36h-21v-88h17v66l30 -39l31 40v-67h16zM553 880q-19 0 -32 -13.5t-13 -33.5q0 -19 11 -33t34 -14q24 0 35.5 14t11.5 33q0 22 -13.5 34.5t-33.5 12.5zM523 833q0 12 7.5 22t22.5 10q16 0 23.5 -10t7.5 -22q0 -13 -7 -22.5t-24 -9.5q-15 0 -22.5 10.5t-7.5 21.5z" />
    <glyph glyph-name="H" unicode="H" horiz-adv-x="767" 
d="M662 700v-700h-25v340h-507v-340h-25v700h25v-336h507v336h25z" />
    <glyph glyph-name="Hbar" unicode="&#x126;" horiz-adv-x="767" 
d="M662 700v-700h-25v340h-507v-340h-25v700h25v-336h507v336h25z" />
    <glyph glyph-name="I" unicode="I" horiz-adv-x="235" 
d="M130 700v-700h-25v700h25z" />
    <glyph glyph-name="IJ" unicode="&#x132;" horiz-adv-x="757" 
d="M130 700v-700h-25v700h25zM660 700v-516q0 -50 -16 -86.5t-44.5 -60.5t-67.5 -35.5t-85 -11.5q-53 0 -99 10.5t-80 32.5v25q35 -23 80 -33.5t96 -10.5q42 0 77 10t60.5 31t39.5 53t14 76v492h-231v24h256z" />
    <glyph glyph-name="Iacute" unicode="&#xcd;" horiz-adv-x="235" 
d="M130 700v-700h-25v700h25zM-122 914h500v-165h-500v165zM-65 787h31q23 0 35 12t12 32q0 18 -12 31t-35 13h-31v-88zM-50 859h16q15 0 23 -8t8 -20q0 -29 -31 -29h-16v57zM54 802v21h46v16h-46v20h46v16h-62v-88h62v15h-46zM219 787v88h-21l-26 -36l-26 36h-21v-88h17v66
l30 -39l31 40v-67h16zM289 880q-19 0 -32 -13.5t-13 -33.5q0 -19 11 -33t34 -14q24 0 35.5 14t11.5 33q0 22 -13.5 34.5t-33.5 12.5zM259 833q0 12 7.5 22t22.5 10q16 0 23.5 -10t7.5 -22q0 -13 -7 -22.5t-24 -9.5q-15 0 -22.5 10.5t-7.5 21.5z" />
    <glyph glyph-name="Icircumflex" unicode="&#xce;" horiz-adv-x="235" 
d="M130 700v-700h-25v700h25zM-148 914h500v-165h-500v165zM-91 787h31q23 0 35 12t12 32q0 18 -12 31t-35 13h-31v-88zM-76 859h16q15 0 23 -8t8 -20q0 -29 -31 -29h-16v57zM28 802v21h46v16h-46v20h46v16h-62v-88h62v15h-46zM193 787v88h-21l-26 -36l-26 36h-21v-88h17v66
l30 -39l31 40v-67h16zM263 880q-19 0 -32 -13.5t-13 -33.5q0 -19 11 -33t34 -14q24 0 35.5 14t11.5 33q0 22 -13.5 34.5t-33.5 12.5zM233 833q0 12 7.5 22t22.5 10q16 0 23.5 -10t7.5 -22q0 -13 -7 -22.5t-24 -9.5q-15 0 -22.5 10.5t-7.5 21.5z" />
    <glyph glyph-name="Idieresis" unicode="&#xcf;" horiz-adv-x="235" 
d="M130 700v-700h-25v700h25zM-142 914h500v-165h-500v165zM-85 787h31q23 0 35 12t12 32q0 18 -12 31t-35 13h-31v-88zM-70 859h16q15 0 23 -8t8 -20q0 -29 -31 -29h-16v57zM34 802v21h46v16h-46v20h46v16h-62v-88h62v15h-46zM199 787v88h-21l-26 -36l-26 36h-21v-88h17v66
l30 -39l31 40v-67h16zM269 880q-19 0 -32 -13.5t-13 -33.5q0 -19 11 -33t34 -14q24 0 35.5 14t11.5 33q0 22 -13.5 34.5t-33.5 12.5zM239 833q0 12 7.5 22t22.5 10q16 0 23.5 -10t7.5 -22q0 -13 -7 -22.5t-24 -9.5q-15 0 -22.5 10.5t-7.5 21.5z" />
    <glyph glyph-name="Idotaccent" unicode="&#x130;" horiz-adv-x="235" 
d="M130 700v-700h-25v700h25zM-147 914h500v-165h-500v165zM-90 787h31q23 0 35 12t12 32q0 18 -12 31t-35 13h-31v-88zM-75 859h16q15 0 23 -8t8 -20q0 -29 -31 -29h-16v57zM29 802v21h46v16h-46v20h46v16h-62v-88h62v15h-46zM194 787v88h-21l-26 -36l-26 36h-21v-88h17v66
l30 -39l31 40v-67h16zM264 880q-19 0 -32 -13.5t-13 -33.5q0 -19 11 -33t34 -14q24 0 35.5 14t11.5 33q0 22 -13.5 34.5t-33.5 12.5zM234 833q0 12 7.5 22t22.5 10q16 0 23.5 -10t7.5 -22q0 -13 -7 -22.5t-24 -9.5q-15 0 -22.5 10.5t-7.5 21.5z" />
    <glyph glyph-name="Igrave" unicode="&#xcc;" horiz-adv-x="235" 
d="M130 700v-700h-25v700h25zM-137 913h500v-165h-500v165zM-80 786h31q23 0 35 12t12 32q0 18 -12 31t-35 13h-31v-88zM-65 858h16q15 0 23 -8t8 -20q0 -29 -31 -29h-16v57zM39 801v21h46v16h-46v20h46v16h-62v-88h62v15h-46zM204 786v88h-21l-26 -36l-26 36h-21v-88h17v66
l30 -39l31 40v-67h16zM274 879q-19 0 -32 -13.5t-13 -33.5q0 -19 11 -33t34 -14q24 0 35.5 14t11.5 33q0 22 -13.5 34.5t-33.5 12.5zM244 832q0 12 7.5 22t22.5 10q16 0 23.5 -10t7.5 -22q0 -13 -7 -22.5t-24 -9.5q-15 0 -22.5 10.5t-7.5 21.5z" />
    <glyph glyph-name="Imacron" unicode="&#x12a;" horiz-adv-x="235" 
d="M130 700v-700h-25v700h25zM-142 914h500v-165h-500v165zM-85 787h31q23 0 35 12t12 32q0 18 -12 31t-35 13h-31v-88zM-70 859h16q15 0 23 -8t8 -20q0 -29 -31 -29h-16v57zM34 802v21h46v16h-46v20h46v16h-62v-88h62v15h-46zM199 787v88h-21l-26 -36l-26 36h-21v-88h17v66
l30 -39l31 40v-67h16zM269 880q-19 0 -32 -13.5t-13 -33.5q0 -19 11 -33t34 -14q24 0 35.5 14t11.5 33q0 22 -13.5 34.5t-33.5 12.5zM239 833q0 12 7.5 22t22.5 10q16 0 23.5 -10t7.5 -22q0 -13 -7 -22.5t-24 -9.5q-15 0 -22.5 10.5t-7.5 21.5z" />
    <glyph glyph-name="Iogonek" unicode="&#x12e;" horiz-adv-x="235" 
d="M130 700v-700h-25v700h25z" />
    <glyph glyph-name="J" unicode="J" horiz-adv-x="522" 
d="M425 700v-516q0 -50 -16 -86.5t-44.5 -60.5t-67.5 -35.5t-85 -11.5q-53 0 -99 10.5t-80 32.5v25q35 -23 80 -33.5t96 -10.5q42 0 77 10t60.5 31t39.5 53t14 76v492h-231v24h256z" />
    <glyph glyph-name="K" unicode="K" horiz-adv-x="654" 
d="M105 0v700h25v-329h216l246 329h29l-254 -341l282 -359h-30l-274 347h-215v-347h-25z" />
    <glyph glyph-name="Kcommaaccent" unicode="&#x136;" horiz-adv-x="654" 
d="M105 0v700h25v-329h216l246 329h29l-254 -341l282 -359h-30l-274 347h-215v-347h-25zM106 -25h500v-165h-500v165zM163 -152h31q23 0 35 12t12 32q0 18 -12 31t-35 13h-31v-88zM178 -80h16q15 0 23 -8t8 -20q0 -29 -31 -29h-16v57zM282 -137v21h46v16h-46v20h46v16h-62
v-88h62v15h-46zM447 -152v88h-21l-26 -36l-26 36h-21v-88h17v66l30 -39l31 40v-67h16zM517 -59q-19 0 -32 -13.5t-13 -33.5q0 -19 11 -33t34 -14q24 0 35.5 14t11.5 33q0 22 -13.5 34.5t-33.5 12.5zM487 -106q0 12 7.5 22t22.5 10q16 0 23.5 -10t7.5 -22q0 -13 -7 -22.5
t-24 -9.5q-15 0 -22.5 10.5t-7.5 21.5z" />
    <glyph glyph-name="L" unicode="L" horiz-adv-x="576" 
d="M130 700v-676h428v-24h-453v700h25z" />
    <glyph glyph-name="Lacute" unicode="&#x139;" horiz-adv-x="576" 
d="M130 700v-676h428v-24h-453v700h25zM-107 914h500v-165h-500v165zM-50 787h31q23 0 35 12t12 32q0 18 -12 31t-35 13h-31v-88zM-35 859h16q15 0 23 -8t8 -20q0 -29 -31 -29h-16v57zM69 802v21h46v16h-46v20h46v16h-62v-88h62v15h-46zM234 787v88h-21l-26 -36l-26 36h-21
v-88h17v66l30 -39l31 40v-67h16zM304 880q-19 0 -32 -13.5t-13 -33.5q0 -19 11 -33t34 -14q24 0 35.5 14t11.5 33q0 22 -13.5 34.5t-33.5 12.5zM274 833q0 12 7.5 22t22.5 10q16 0 23.5 -10t7.5 -22q0 -13 -7 -22.5t-24 -9.5q-15 0 -22.5 10.5t-7.5 21.5z" />
    <glyph glyph-name="Lcaron" unicode="&#x13d;" horiz-adv-x="576" 
d="M130 700v-676h428v-24h-453v700h25z" />
    <glyph glyph-name="Lcommaaccent" unicode="&#x13b;" horiz-adv-x="576" 
d="M130 700v-676h428v-24h-453v700h25zM78 -25h500v-165h-500v165zM135 -152h31q23 0 35 12t12 32q0 18 -12 31t-35 13h-31v-88zM150 -80h16q15 0 23 -8t8 -20q0 -29 -31 -29h-16v57zM254 -137v21h46v16h-46v20h46v16h-62v-88h62v15h-46zM419 -152v88h-21l-26 -36l-26 36
h-21v-88h17v66l30 -39l31 40v-67h16zM489 -59q-19 0 -32 -13.5t-13 -33.5q0 -19 11 -33t34 -14q24 0 35.5 14t11.5 33q0 22 -13.5 34.5t-33.5 12.5zM459 -106q0 12 7.5 22t22.5 10q16 0 23.5 -10t7.5 -22q0 -13 -7 -22.5t-24 -9.5q-15 0 -22.5 10.5t-7.5 21.5z" />
    <glyph glyph-name="Ldot" unicode="&#x13f;" horiz-adv-x="584" 
d="M130 700v-676h428v-24h-453v700h25z" />
    <glyph glyph-name="Lslash" unicode="&#x141;" horiz-adv-x="579" 
d="M108 0v700h25v-676h428v-24h-453z" />
    <glyph glyph-name="M" unicode="M" horiz-adv-x="897" 
d="M792 700v-700h-25v650l-311 -454h-15l-311 454v-650h-25v700h19l324 -473l325 473h19z" />
    <glyph glyph-name="N" unicode="N" horiz-adv-x="767" 
d="M105 0v700h21l511 -656v60v596h25v-700h-22l-510 657v-60v-597h-25z" />
    <glyph glyph-name="Nacute" unicode="&#x143;" horiz-adv-x="767" 
d="M105 0v700h21l511 -656v60v596h25v-700h-22l-510 657v-60v-597h-25zM143 914h500v-165h-500v165zM200 787h31q23 0 35 12t12 32q0 18 -12 31t-35 13h-31v-88zM215 859h16q15 0 23 -8t8 -20q0 -29 -31 -29h-16v57zM319 802v21h46v16h-46v20h46v16h-62v-88h62v15h-46z
M484 787v88h-21l-26 -36l-26 36h-21v-88h17v66l30 -39l31 40v-67h16zM554 880q-19 0 -32 -13.5t-13 -33.5q0 -19 11 -33t34 -14q24 0 35.5 14t11.5 33q0 22 -13.5 34.5t-33.5 12.5zM524 833q0 12 7.5 22t22.5 10q16 0 23.5 -10t7.5 -22q0 -13 -7 -22.5t-24 -9.5
q-15 0 -22.5 10.5t-7.5 21.5z" />
    <glyph glyph-name="Ncaron" unicode="&#x147;" horiz-adv-x="767" 
d="M105 0v700h21l511 -656v60v596h25v-700h-22l-510 657v-60v-597h-25zM136 913h500v-165h-500v165zM193 786h31q23 0 35 12t12 32q0 18 -12 31t-35 13h-31v-88zM208 858h16q15 0 23 -8t8 -20q0 -29 -31 -29h-16v57zM312 801v21h46v16h-46v20h46v16h-62v-88h62v15h-46z
M477 786v88h-21l-26 -36l-26 36h-21v-88h17v66l30 -39l31 40v-67h16zM547 879q-19 0 -32 -13.5t-13 -33.5q0 -19 11 -33t34 -14q24 0 35.5 14t11.5 33q0 22 -13.5 34.5t-33.5 12.5zM517 832q0 12 7.5 22t22.5 10q16 0 23.5 -10t7.5 -22q0 -13 -7 -22.5t-24 -9.5
q-15 0 -22.5 10.5t-7.5 21.5z" />
    <glyph glyph-name="Ncommaaccent" unicode="&#x145;" horiz-adv-x="767" 
d="M105 0v700h21l511 -656v60v596h25v-700h-22l-510 657v-60v-597h-25zM141 -25h500v-165h-500v165zM198 -152h31q23 0 35 12t12 32q0 18 -12 31t-35 13h-31v-88zM213 -80h16q15 0 23 -8t8 -20q0 -29 -31 -29h-16v57zM317 -137v21h46v16h-46v20h46v16h-62v-88h62v15h-46z
M482 -152v88h-21l-26 -36l-26 36h-21v-88h17v66l30 -39l31 40v-67h16zM552 -59q-19 0 -32 -13.5t-13 -33.5q0 -19 11 -33t34 -14q24 0 35.5 14t11.5 33q0 22 -13.5 34.5t-33.5 12.5zM522 -106q0 12 7.5 22t22.5 10q16 0 23.5 -10t7.5 -22q0 -13 -7 -22.5t-24 -9.5
q-15 0 -22.5 10.5t-7.5 21.5z" />
    <glyph glyph-name="Eng" unicode="&#x14a;" horiz-adv-x="767" 
d="M105 0v700h21l511 -656v60v596h25v-700h-22l-510 657v-60v-597h-25z" />
    <glyph glyph-name="Ntilde" unicode="&#xd1;" horiz-adv-x="767" 
d="M105 0v700h21l511 -656v60v596h25v-700h-22l-510 657v-60v-597h-25zM116 914h500v-165h-500v165zM173 787h31q23 0 35 12t12 32q0 18 -12 31t-35 13h-31v-88zM188 859h16q15 0 23 -8t8 -20q0 -29 -31 -29h-16v57zM292 802v21h46v16h-46v20h46v16h-62v-88h62v15h-46z
M457 787v88h-21l-26 -36l-26 36h-21v-88h17v66l30 -39l31 40v-67h16zM527 880q-19 0 -32 -13.5t-13 -33.5q0 -19 11 -33t34 -14q24 0 35.5 14t11.5 33q0 22 -13.5 34.5t-33.5 12.5zM497 833q0 12 7.5 22t22.5 10q16 0 23.5 -10t7.5 -22q0 -13 -7 -22.5t-24 -9.5
q-15 0 -22.5 10.5t-7.5 21.5z" />
    <glyph glyph-name="O" unicode="O" horiz-adv-x="826" 
d="M52 350q0 65 22.5 129.5t67.5 115.5t112.5 83t158.5 32t158.5 -32t112.5 -83t67.5 -115.5t22.5 -129.5t-22.5 -129.5t-67.5 -115.5t-112.5 -83t-158.5 -32t-158.5 32t-112.5 83t-67.5 115.5t-22.5 129.5zM749 350q0 61 -21 121t-63 108t-105 77.5t-147 29.5t-147 -29.5
t-105 -77.5t-63 -108t-21 -121t21 -121t63 -108t105 -77.5t147 -29.5t147 29.5t105 77.5t63 108t21 121z" />
    <glyph glyph-name="Oacute" unicode="&#xd3;" horiz-adv-x="826" 
d="M52 350q0 65 22.5 129.5t67.5 115.5t112.5 83t158.5 32t158.5 -32t112.5 -83t67.5 -115.5t22.5 -129.5t-22.5 -129.5t-67.5 -115.5t-112.5 -83t-158.5 -32t-158.5 32t-112.5 83t-67.5 115.5t-22.5 129.5zM749 350q0 61 -21 121t-63 108t-105 77.5t-147 29.5t-147 -29.5
t-105 -77.5t-63 -108t-21 -121t21 -121t63 -108t105 -77.5t147 -29.5t147 29.5t105 77.5t63 108t21 121zM173 914h500v-165h-500v165zM230 787h31q23 0 35 12t12 32q0 18 -12 31t-35 13h-31v-88zM245 859h16q15 0 23 -8t8 -20q0 -29 -31 -29h-16v57zM349 802v21h46v16h-46
v20h46v16h-62v-88h62v15h-46zM514 787v88h-21l-26 -36l-26 36h-21v-88h17v66l30 -39l31 40v-67h16zM584 880q-19 0 -32 -13.5t-13 -33.5q0 -19 11 -33t34 -14q24 0 35.5 14t11.5 33q0 22 -13.5 34.5t-33.5 12.5zM554 833q0 12 7.5 22t22.5 10q16 0 23.5 -10t7.5 -22
q0 -13 -7 -22.5t-24 -9.5q-15 0 -22.5 10.5t-7.5 21.5z" />
    <glyph glyph-name="Ocircumflex" unicode="&#xd4;" horiz-adv-x="826" 
d="M52 350q0 65 22.5 129.5t67.5 115.5t112.5 83t158.5 32t158.5 -32t112.5 -83t67.5 -115.5t22.5 -129.5t-22.5 -129.5t-67.5 -115.5t-112.5 -83t-158.5 -32t-158.5 32t-112.5 83t-67.5 115.5t-22.5 129.5zM749 350q0 61 -21 121t-63 108t-105 77.5t-147 29.5t-147 -29.5
t-105 -77.5t-63 -108t-21 -121t21 -121t63 -108t105 -77.5t147 -29.5t147 29.5t105 77.5t63 108t21 121zM147 914h500v-165h-500v165zM204 787h31q23 0 35 12t12 32q0 18 -12 31t-35 13h-31v-88zM219 859h16q15 0 23 -8t8 -20q0 -29 -31 -29h-16v57zM323 802v21h46v16h-46
v20h46v16h-62v-88h62v15h-46zM488 787v88h-21l-26 -36l-26 36h-21v-88h17v66l30 -39l31 40v-67h16zM558 880q-19 0 -32 -13.5t-13 -33.5q0 -19 11 -33t34 -14q24 0 35.5 14t11.5 33q0 22 -13.5 34.5t-33.5 12.5zM528 833q0 12 7.5 22t22.5 10q16 0 23.5 -10t7.5 -22
q0 -13 -7 -22.5t-24 -9.5q-15 0 -22.5 10.5t-7.5 21.5z" />
    <glyph glyph-name="Odieresis" unicode="&#xd6;" horiz-adv-x="826" 
d="M52 350q0 65 22.5 129.5t67.5 115.5t112.5 83t158.5 32t158.5 -32t112.5 -83t67.5 -115.5t22.5 -129.5t-22.5 -129.5t-67.5 -115.5t-112.5 -83t-158.5 -32t-158.5 32t-112.5 83t-67.5 115.5t-22.5 129.5zM749 350q0 61 -21 121t-63 108t-105 77.5t-147 29.5t-147 -29.5
t-105 -77.5t-63 -108t-21 -121t21 -121t63 -108t105 -77.5t147 -29.5t147 29.5t105 77.5t63 108t21 121zM153 914h500v-165h-500v165zM210 787h31q23 0 35 12t12 32q0 18 -12 31t-35 13h-31v-88zM225 859h16q15 0 23 -8t8 -20q0 -29 -31 -29h-16v57zM329 802v21h46v16h-46
v20h46v16h-62v-88h62v15h-46zM494 787v88h-21l-26 -36l-26 36h-21v-88h17v66l30 -39l31 40v-67h16zM564 880q-19 0 -32 -13.5t-13 -33.5q0 -19 11 -33t34 -14q24 0 35.5 14t11.5 33q0 22 -13.5 34.5t-33.5 12.5zM534 833q0 12 7.5 22t22.5 10q16 0 23.5 -10t7.5 -22
q0 -13 -7 -22.5t-24 -9.5q-15 0 -22.5 10.5t-7.5 21.5z" />
    <glyph glyph-name="Ograve" unicode="&#xd2;" horiz-adv-x="826" 
d="M52 350q0 65 22.5 129.5t67.5 115.5t112.5 83t158.5 32t158.5 -32t112.5 -83t67.5 -115.5t22.5 -129.5t-22.5 -129.5t-67.5 -115.5t-112.5 -83t-158.5 -32t-158.5 32t-112.5 83t-67.5 115.5t-22.5 129.5zM749 350q0 61 -21 121t-63 108t-105 77.5t-147 29.5t-147 -29.5
t-105 -77.5t-63 -108t-21 -121t21 -121t63 -108t105 -77.5t147 -29.5t147 29.5t105 77.5t63 108t21 121zM158 913h500v-165h-500v165zM215 786h31q23 0 35 12t12 32q0 18 -12 31t-35 13h-31v-88zM230 858h16q15 0 23 -8t8 -20q0 -29 -31 -29h-16v57zM334 801v21h46v16h-46
v20h46v16h-62v-88h62v15h-46zM499 786v88h-21l-26 -36l-26 36h-21v-88h17v66l30 -39l31 40v-67h16zM569 879q-19 0 -32 -13.5t-13 -33.5q0 -19 11 -33t34 -14q24 0 35.5 14t11.5 33q0 22 -13.5 34.5t-33.5 12.5zM539 832q0 12 7.5 22t22.5 10q16 0 23.5 -10t7.5 -22
q0 -13 -7 -22.5t-24 -9.5q-15 0 -22.5 10.5t-7.5 21.5z" />
    <glyph glyph-name="Ohungarumlaut" unicode="&#x150;" horiz-adv-x="826" 
d="M52 350q0 65 22.5 129.5t67.5 115.5t112.5 83t158.5 32t158.5 -32t112.5 -83t67.5 -115.5t22.5 -129.5t-22.5 -129.5t-67.5 -115.5t-112.5 -83t-158.5 -32t-158.5 32t-112.5 83t-67.5 115.5t-22.5 129.5zM749 350q0 61 -21 121t-63 108t-105 77.5t-147 29.5t-147 -29.5
t-105 -77.5t-63 -108t-21 -121t21 -121t63 -108t105 -77.5t147 -29.5t147 29.5t105 77.5t63 108t21 121zM163 914h500v-165h-500v165zM220 787h31q23 0 35 12t12 32q0 18 -12 31t-35 13h-31v-88zM235 859h16q15 0 23 -8t8 -20q0 -29 -31 -29h-16v57zM339 802v21h46v16h-46
v20h46v16h-62v-88h62v15h-46zM504 787v88h-21l-26 -36l-26 36h-21v-88h17v66l30 -39l31 40v-67h16zM574 880q-19 0 -32 -13.5t-13 -33.5q0 -19 11 -33t34 -14q24 0 35.5 14t11.5 33q0 22 -13.5 34.5t-33.5 12.5zM544 833q0 12 7.5 22t22.5 10q16 0 23.5 -10t7.5 -22
q0 -13 -7 -22.5t-24 -9.5q-15 0 -22.5 10.5t-7.5 21.5z" />
    <glyph glyph-name="Omacron" unicode="&#x14c;" horiz-adv-x="826" 
d="M52 350q0 65 22.5 129.5t67.5 115.5t112.5 83t158.5 32t158.5 -32t112.5 -83t67.5 -115.5t22.5 -129.5t-22.5 -129.5t-67.5 -115.5t-112.5 -83t-158.5 -32t-158.5 32t-112.5 83t-67.5 115.5t-22.5 129.5zM749 350q0 61 -21 121t-63 108t-105 77.5t-147 29.5t-147 -29.5
t-105 -77.5t-63 -108t-21 -121t21 -121t63 -108t105 -77.5t147 -29.5t147 29.5t105 77.5t63 108t21 121zM153 914h500v-165h-500v165zM210 787h31q23 0 35 12t12 32q0 18 -12 31t-35 13h-31v-88zM225 859h16q15 0 23 -8t8 -20q0 -29 -31 -29h-16v57zM329 802v21h46v16h-46
v20h46v16h-62v-88h62v15h-46zM494 787v88h-21l-26 -36l-26 36h-21v-88h17v66l30 -39l31 40v-67h16zM564 880q-19 0 -32 -13.5t-13 -33.5q0 -19 11 -33t34 -14q24 0 35.5 14t11.5 33q0 22 -13.5 34.5t-33.5 12.5zM534 833q0 12 7.5 22t22.5 10q16 0 23.5 -10t7.5 -22
q0 -13 -7 -22.5t-24 -9.5q-15 0 -22.5 10.5t-7.5 21.5z" />
    <glyph glyph-name="Oslash" unicode="&#xd8;" horiz-adv-x="826" 
d="M52 350q0 65 22.5 129.5t67.5 115.5t112.5 83t158.5 32t158.5 -32t112.5 -83t67.5 -115.5t22.5 -129.5t-22.5 -129.5t-67.5 -115.5t-112.5 -83t-158.5 -32t-158.5 32t-112.5 83t-67.5 115.5t-22.5 129.5zM749 350q0 61 -21 121t-63 108t-105 77.5t-147 29.5t-147 -29.5
t-105 -77.5t-63 -108t-21 -121t21 -121t63 -108t105 -77.5t147 -29.5t147 29.5t105 77.5t63 108t21 121z" />
    <glyph glyph-name="Otilde" unicode="&#xd5;" horiz-adv-x="826" 
d="M52 350q0 65 22.5 129.5t67.5 115.5t112.5 83t158.5 32t158.5 -32t112.5 -83t67.5 -115.5t22.5 -129.5t-22.5 -129.5t-67.5 -115.5t-112.5 -83t-158.5 -32t-158.5 32t-112.5 83t-67.5 115.5t-22.5 129.5zM749 350q0 61 -21 121t-63 108t-105 77.5t-147 29.5t-147 -29.5
t-105 -77.5t-63 -108t-21 -121t21 -121t63 -108t105 -77.5t147 -29.5t147 29.5t105 77.5t63 108t21 121zM146 914h500v-165h-500v165zM203 787h31q23 0 35 12t12 32q0 18 -12 31t-35 13h-31v-88zM218 859h16q15 0 23 -8t8 -20q0 -29 -31 -29h-16v57zM322 802v21h46v16h-46
v20h46v16h-62v-88h62v15h-46zM487 787v88h-21l-26 -36l-26 36h-21v-88h17v66l30 -39l31 40v-67h16zM557 880q-19 0 -32 -13.5t-13 -33.5q0 -19 11 -33t34 -14q24 0 35.5 14t11.5 33q0 22 -13.5 34.5t-33.5 12.5zM527 833q0 12 7.5 22t22.5 10q16 0 23.5 -10t7.5 -22
q0 -13 -7 -22.5t-24 -9.5q-15 0 -22.5 10.5t-7.5 21.5z" />
    <glyph glyph-name="OE" unicode="&#x152;" 
d="M71 0v700h232v-700h-232zM247 77v48q0 32 -19 46.5t-42 13.5q-23 0 -41.5 -14t-18.5 -46v-48h121zM148 125q-1 20 11.5 28t26.5 10q14 0 27 -8.5t13 -29.5v-26h-78v26zM226 243h-28v65h-21v-65h-28v67h-23v-90h121v90h-21v-67zM247 477h-121v-26l53 -39l-53 -37v-26h121
v22h-87l53 39v4l-53 41h87v22zM123 574q0 -26 18 -44t47 -18q23 0 43 15t20 47t-20.5 46.5t-43.5 15.5q-23 0 -43.5 -15t-20.5 -47zM188 534q-18 -1 -31 9.5t-12 30.5q0 22 14 31t29 9q15 -2 28 -10t13 -30t-13 -31t-28 -9z" />
    <glyph glyph-name="P" unicode="P" horiz-adv-x="651" 
d="M322 700q58 0 111 -10t93 -35t64 -67t24 -105q0 -64 -24 -106t-64 -66.5t-93 -34.5t-111 -10h-192v-266h-25v700h217zM589 483q0 57 -21.5 94.5t-57.5 59t-84.5 30.5t-102.5 9h-193v-386h193q54 0 102 9t84.5 30.5t58 59t21.5 94.5z" />
    <glyph glyph-name="Thorn" unicode="&#xde;" horiz-adv-x="650" 
d="M322 567q58 0 111 -10t93 -35t64 -67t24 -105t-24 -105t-64 -67t-93 -35t-111 -10h-192v-133h-25v700h25v-133h192zM323 157q54 0 102 9t84.5 30.5t58 59t21.5 94.5t-21.5 94.5t-57.5 59t-84.5 30.5t-102.5 9h-193v-386h193z" />
    <glyph glyph-name="Q" unicode="Q" horiz-adv-x="826" 
d="M760 -58l-121 120q-43 -33 -99 -52.5t-127 -19.5q-91 0 -158.5 32t-112.5 83t-67.5 115.5t-22.5 129.5t22.5 129.5t67.5 115.5t112.5 83t158.5 32t158.5 -32t112.5 -83t67.5 -115.5t22.5 -129.5q0 -75 -28.5 -147t-88.5 -126l119 -119zM77 350q0 -61 21 -121t63 -108
t105 -77.5t147 -29.5q65 0 117 17.5t92 48.5l-162 162l16 16l163 -163q56 49 83 117t27 138q0 61 -21 121t-63 108t-105 77.5t-147 29.5t-147 -29.5t-105 -77.5t-63 -108t-21 -121z" />
    <glyph glyph-name="R" unicode="R" horiz-adv-x="682" 
d="M105 0v700h263q43 0 87 -10.5t79 -34.5t57.5 -63t22.5 -95q0 -53 -19.5 -90.5t-51.5 -61.5t-72 -36t-81 -14l268 -295h-31l-266 294h-231v-294h-25zM130 318h239q39 0 78 9t70.5 30t51.5 55t20 85q0 50 -20 84.5t-51.5 55.5t-70.5 30t-78 9h-239v-358z" />
    <glyph glyph-name="Racute" unicode="&#x154;" horiz-adv-x="682" 
d="M105 0v700h263q43 0 87 -10.5t79 -34.5t57.5 -63t22.5 -95q0 -53 -19.5 -90.5t-51.5 -61.5t-72 -36t-81 -14l268 -295h-31l-266 294h-231v-294h-25zM130 318h239q39 0 78 9t70.5 30t51.5 55t20 85q0 50 -20 84.5t-51.5 55.5t-70.5 30t-78 9h-239v-358zM102 914h500v-165
h-500v165zM159 787h31q23 0 35 12t12 32q0 18 -12 31t-35 13h-31v-88zM174 859h16q15 0 23 -8t8 -20q0 -29 -31 -29h-16v57zM278 802v21h46v16h-46v20h46v16h-62v-88h62v15h-46zM443 787v88h-21l-26 -36l-26 36h-21v-88h17v66l30 -39l31 40v-67h16zM513 880q-19 0 -32 -13.5
t-13 -33.5q0 -19 11 -33t34 -14q24 0 35.5 14t11.5 33q0 22 -13.5 34.5t-33.5 12.5zM483 833q0 12 7.5 22t22.5 10q16 0 23.5 -10t7.5 -22q0 -13 -7 -22.5t-24 -9.5q-15 0 -22.5 10.5t-7.5 21.5z" />
    <glyph glyph-name="Rcaron" unicode="&#x158;" horiz-adv-x="682" 
d="M105 0v700h263q43 0 87 -10.5t79 -34.5t57.5 -63t22.5 -95q0 -53 -19.5 -90.5t-51.5 -61.5t-72 -36t-81 -14l268 -295h-31l-266 294h-231v-294h-25zM130 318h239q39 0 78 9t70.5 30t51.5 55t20 85q0 50 -20 84.5t-51.5 55.5t-70.5 30t-78 9h-239v-358zM95 913h500v-165
h-500v165zM152 786h31q23 0 35 12t12 32q0 18 -12 31t-35 13h-31v-88zM167 858h16q15 0 23 -8t8 -20q0 -29 -31 -29h-16v57zM271 801v21h46v16h-46v20h46v16h-62v-88h62v15h-46zM436 786v88h-21l-26 -36l-26 36h-21v-88h17v66l30 -39l31 40v-67h16zM506 879q-19 0 -32 -13.5
t-13 -33.5q0 -19 11 -33t34 -14q24 0 35.5 14t11.5 33q0 22 -13.5 34.5t-33.5 12.5zM476 832q0 12 7.5 22t22.5 10q16 0 23.5 -10t7.5 -22q0 -13 -7 -22.5t-24 -9.5q-15 0 -22.5 10.5t-7.5 21.5z" />
    <glyph glyph-name="Rcommaaccent" unicode="&#x156;" horiz-adv-x="682" 
d="M105 0v700h263q43 0 87 -10.5t79 -34.5t57.5 -63t22.5 -95q0 -53 -19.5 -90.5t-51.5 -61.5t-72 -36t-81 -14l268 -295h-31l-266 294h-231v-294h-25zM130 318h239q39 0 78 9t70.5 30t51.5 55t20 85q0 50 -20 84.5t-51.5 55.5t-70.5 30t-78 9h-239v-358zM112 -25h500v-165
h-500v165zM169 -152h31q23 0 35 12t12 32q0 18 -12 31t-35 13h-31v-88zM184 -80h16q15 0 23 -8t8 -20q0 -29 -31 -29h-16v57zM288 -137v21h46v16h-46v20h46v16h-62v-88h62v15h-46zM453 -152v88h-21l-26 -36l-26 36h-21v-88h17v66l30 -39l31 40v-67h16zM523 -59
q-19 0 -32 -13.5t-13 -33.5q0 -19 11 -33t34 -14q24 0 35.5 14t11.5 33q0 22 -13.5 34.5t-33.5 12.5zM493 -106q0 12 7.5 22t22.5 10q16 0 23.5 -10t7.5 -22q0 -13 -7 -22.5t-24 -9.5q-15 0 -22.5 10.5t-7.5 21.5z" />
    <glyph glyph-name="S" unicode="S" horiz-adv-x="563" 
d="M59 541q0 44 18.5 76t49.5 52.5t70 30.5t80 10q54 0 106.5 -12.5t91.5 -34.5v-25q-39 23 -92.5 36t-104.5 12q-37 0 -72 -8t-62 -25.5t-43.5 -45t-16.5 -66.5q0 -55 32.5 -87.5t81.5 -54t105.5 -38t105.5 -40.5t81.5 -61.5t32.5 -100.5q0 -46 -19.5 -78.5t-51.5 -52.5
t-74 -29t-88 -9q-65 0 -127 15.5t-111 42.5v25q51 -29 113 -44t123 -15q42 0 80.5 7.5t67 24.5t45.5 44.5t17 67.5q0 43 -19 73t-49.5 50.5t-70 35.5t-81 28.5t-81 28.5t-70 37t-49.5 53t-19 77z" />
    <glyph glyph-name="Sacute" unicode="&#x15a;" horiz-adv-x="563" 
d="M59 541q0 44 18.5 76t49.5 52.5t70 30.5t80 10q54 0 106.5 -12.5t91.5 -34.5v-25q-39 23 -92.5 36t-104.5 12q-37 0 -72 -8t-62 -25.5t-43.5 -45t-16.5 -66.5q0 -55 32.5 -87.5t81.5 -54t105.5 -38t105.5 -40.5t81.5 -61.5t32.5 -100.5q0 -46 -19.5 -78.5t-51.5 -52.5
t-74 -29t-88 -9q-65 0 -127 15.5t-111 42.5v25q51 -29 113 -44t123 -15q42 0 80.5 7.5t67 24.5t45.5 44.5t17 67.5q0 43 -19 73t-49.5 50.5t-70 35.5t-81 28.5t-81 28.5t-70 37t-49.5 53t-19 77zM31 914h500v-165h-500v165zM88 787h31q23 0 35 12t12 32q0 18 -12 31t-35 13
h-31v-88zM103 859h16q15 0 23 -8t8 -20q0 -29 -31 -29h-16v57zM207 802v21h46v16h-46v20h46v16h-62v-88h62v15h-46zM372 787v88h-21l-26 -36l-26 36h-21v-88h17v66l30 -39l31 40v-67h16zM442 880q-19 0 -32 -13.5t-13 -33.5q0 -19 11 -33t34 -14q24 0 35.5 14t11.5 33
q0 22 -13.5 34.5t-33.5 12.5zM412 833q0 12 7.5 22t22.5 10q16 0 23.5 -10t7.5 -22q0 -13 -7 -22.5t-24 -9.5q-15 0 -22.5 10.5t-7.5 21.5z" />
    <glyph glyph-name="Scaron" unicode="&#x160;" horiz-adv-x="563" 
d="M59 541q0 44 18.5 76t49.5 52.5t70 30.5t80 10q54 0 106.5 -12.5t91.5 -34.5v-25q-39 23 -92.5 36t-104.5 12q-37 0 -72 -8t-62 -25.5t-43.5 -45t-16.5 -66.5q0 -55 32.5 -87.5t81.5 -54t105.5 -38t105.5 -40.5t81.5 -61.5t32.5 -100.5q0 -46 -19.5 -78.5t-51.5 -52.5
t-74 -29t-88 -9q-65 0 -127 15.5t-111 42.5v25q51 -29 113 -44t123 -15q42 0 80.5 7.5t67 24.5t45.5 44.5t17 67.5q0 43 -19 73t-49.5 50.5t-70 35.5t-81 28.5t-81 28.5t-70 37t-49.5 53t-19 77zM24 913h500v-165h-500v165zM81 786h31q23 0 35 12t12 32q0 18 -12 31t-35 13
h-31v-88zM96 858h16q15 0 23 -8t8 -20q0 -29 -31 -29h-16v57zM200 801v21h46v16h-46v20h46v16h-62v-88h62v15h-46zM365 786v88h-21l-26 -36l-26 36h-21v-88h17v66l30 -39l31 40v-67h16zM435 879q-19 0 -32 -13.5t-13 -33.5q0 -19 11 -33t34 -14q24 0 35.5 14t11.5 33
q0 22 -13.5 34.5t-33.5 12.5zM405 832q0 12 7.5 22t22.5 10q16 0 23.5 -10t7.5 -22q0 -13 -7 -22.5t-24 -9.5q-15 0 -22.5 10.5t-7.5 21.5z" />
    <glyph glyph-name="Scedilla" unicode="&#x15e;" horiz-adv-x="563" 
d="M59 541q0 44 18.5 76t49.5 52.5t70 30.5t80 10q54 0 106.5 -12.5t91.5 -34.5v-25q-39 23 -92.5 36t-104.5 12q-37 0 -72 -8t-62 -25.5t-43.5 -45t-16.5 -66.5q0 -55 32.5 -87.5t81.5 -54t105.5 -38t105.5 -40.5t81.5 -61.5t32.5 -100.5q0 -46 -19.5 -78.5t-51.5 -52.5
t-74 -29t-88 -9q-65 0 -127 15.5t-111 42.5v25q51 -29 113 -44t123 -15q42 0 80.5 7.5t67 24.5t45.5 44.5t17 67.5q0 43 -19 73t-49.5 50.5t-70 35.5t-81 28.5t-81 28.5t-70 37t-49.5 53t-19 77z" />
    <glyph glyph-name="Scommaaccent" unicode="&#x218;" horiz-adv-x="563" 
d="M59 541q0 44 18.5 76t49.5 52.5t70 30.5t80 10q54 0 106.5 -12.5t91.5 -34.5v-25q-39 23 -92.5 36t-104.5 12q-37 0 -72 -8t-62 -25.5t-43.5 -45t-16.5 -66.5q0 -55 32.5 -87.5t81.5 -54t105.5 -38t105.5 -40.5t81.5 -61.5t32.5 -100.5q0 -46 -19.5 -78.5t-51.5 -52.5
t-74 -29t-88 -9q-65 0 -127 15.5t-111 42.5v25q51 -29 113 -44t123 -15q42 0 80.5 7.5t67 24.5t45.5 44.5t17 67.5q0 43 -19 73t-49.5 50.5t-70 35.5t-81 28.5t-81 28.5t-70 37t-49.5 53t-19 77zM35 -25h500v-165h-500v165zM92 -152h31q23 0 35 12t12 32q0 18 -12 31t-35 13
h-31v-88zM107 -80h16q15 0 23 -8t8 -20q0 -29 -31 -29h-16v57zM211 -137v21h46v16h-46v20h46v16h-62v-88h62v15h-46zM376 -152v88h-21l-26 -36l-26 36h-21v-88h17v66l30 -39l31 40v-67h16zM446 -59q-19 0 -32 -13.5t-13 -33.5q0 -19 11 -33t34 -14q24 0 35.5 14t11.5 33
q0 22 -13.5 34.5t-33.5 12.5zM416 -106q0 12 7.5 22t22.5 10q16 0 23.5 -10t7.5 -22q0 -13 -7 -22.5t-24 -9.5q-15 0 -22.5 10.5t-7.5 21.5z" />
    <glyph glyph-name="T" unicode="T" horiz-adv-x="593" 
d="M578 700v-24h-269v-676h-25v676h-269v24h563z" />
    <glyph glyph-name="Tbar" unicode="&#x166;" horiz-adv-x="605" 
d="M290 0v676h-269v24h563v-24h-269v-676h-25z" />
    <glyph glyph-name="Tcaron" unicode="&#x164;" horiz-adv-x="593" 
d="M578 700v-24h-269v-676h-25v676h-269v24h563zM51 913h500v-165h-500v165zM108 786h31q23 0 35 12t12 32q0 18 -12 31t-35 13h-31v-88zM123 858h16q15 0 23 -8t8 -20q0 -29 -31 -29h-16v57zM227 801v21h46v16h-46v20h46v16h-62v-88h62v15h-46zM392 786v88h-21l-26 -36
l-26 36h-21v-88h17v66l30 -39l31 40v-67h16zM462 879q-19 0 -32 -13.5t-13 -33.5q0 -19 11 -33t34 -14q24 0 35.5 14t11.5 33q0 22 -13.5 34.5t-33.5 12.5zM432 832q0 12 7.5 22t22.5 10q16 0 23.5 -10t7.5 -22q0 -13 -7 -22.5t-24 -9.5q-15 0 -22.5 10.5t-7.5 21.5z" />
    <glyph glyph-name="Tcommaaccent" unicode="&#x162;" horiz-adv-x="593" 
d="M578 700v-24h-269v-676h-25v676h-269v24h563zM46 -25h500v-165h-500v165zM103 -152h31q23 0 35 12t12 32q0 18 -12 31t-35 13h-31v-88zM118 -80h16q15 0 23 -8t8 -20q0 -29 -31 -29h-16v57zM222 -137v21h46v16h-46v20h46v16h-62v-88h62v15h-46zM387 -152v88h-21l-26 -36
l-26 36h-21v-88h17v66l30 -39l31 40v-67h16zM457 -59q-19 0 -32 -13.5t-13 -33.5q0 -19 11 -33t34 -14q24 0 35.5 14t11.5 33q0 22 -13.5 34.5t-33.5 12.5zM427 -106q0 12 7.5 22t22.5 10q16 0 23.5 -10t7.5 -22q0 -13 -7 -22.5t-24 -9.5q-15 0 -22.5 10.5t-7.5 21.5z" />
    <glyph glyph-name="uni021A" unicode="&#x21a;" horiz-adv-x="593" 
d="M578 700v-24h-269v-676h-25v676h-269v24h563zM46 -25h500v-165h-500v165zM103 -152h31q23 0 35 12t12 32q0 18 -12 31t-35 13h-31v-88zM118 -80h16q15 0 23 -8t8 -20q0 -29 -31 -29h-16v57zM222 -137v21h46v16h-46v20h46v16h-62v-88h62v15h-46zM387 -152v88h-21l-26 -36
l-26 36h-21v-88h17v66l30 -39l31 40v-67h16zM457 -59q-19 0 -32 -13.5t-13 -33.5q0 -19 11 -33t34 -14q24 0 35.5 14t11.5 33q0 22 -13.5 34.5t-33.5 12.5zM427 -106q0 12 7.5 22t22.5 10q16 0 23.5 -10t7.5 -22q0 -13 -7 -22.5t-24 -9.5q-15 0 -22.5 10.5t-7.5 21.5z" />
    <glyph glyph-name="U" unicode="U" horiz-adv-x="749" 
d="M653 700v-459q0 -70 -21.5 -118t-59 -77.5t-88.5 -42.5t-109 -13q-59 0 -109.5 13t-88.5 42.5t-59.5 77.5t-21.5 118v459h25v-458q0 -64 19 -107.5t53 -70.5t80.5 -38.5t101.5 -11.5q54 0 100.5 11.5t80.5 38.5t53 70.5t19 107.5v458h25z" />
    <glyph glyph-name="Uacute" unicode="&#xda;" horiz-adv-x="749" 
d="M653 700v-459q0 -70 -21.5 -118t-59 -77.5t-88.5 -42.5t-109 -13q-59 0 -109.5 13t-88.5 42.5t-59.5 77.5t-21.5 118v459h25v-458q0 -64 19 -107.5t53 -70.5t80.5 -38.5t101.5 -11.5q54 0 100.5 11.5t80.5 38.5t53 70.5t19 107.5v458h25zM138 914h500v-165h-500v165z
M195 787h31q23 0 35 12t12 32q0 18 -12 31t-35 13h-31v-88zM210 859h16q15 0 23 -8t8 -20q0 -29 -31 -29h-16v57zM314 802v21h46v16h-46v20h46v16h-62v-88h62v15h-46zM479 787v88h-21l-26 -36l-26 36h-21v-88h17v66l30 -39l31 40v-67h16zM549 880q-19 0 -32 -13.5t-13 -33.5
q0 -19 11 -33t34 -14q24 0 35.5 14t11.5 33q0 22 -13.5 34.5t-33.5 12.5zM519 833q0 12 7.5 22t22.5 10q16 0 23.5 -10t7.5 -22q0 -13 -7 -22.5t-24 -9.5q-15 0 -22.5 10.5t-7.5 21.5z" />
    <glyph glyph-name="Ucircumflex" unicode="&#xdb;" horiz-adv-x="749" 
d="M653 700v-459q0 -70 -21.5 -118t-59 -77.5t-88.5 -42.5t-109 -13q-59 0 -109.5 13t-88.5 42.5t-59.5 77.5t-21.5 118v459h25v-458q0 -64 19 -107.5t53 -70.5t80.5 -38.5t101.5 -11.5q54 0 100.5 11.5t80.5 38.5t53 70.5t19 107.5v458h25zM112 914h500v-165h-500v165z
M169 787h31q23 0 35 12t12 32q0 18 -12 31t-35 13h-31v-88zM184 859h16q15 0 23 -8t8 -20q0 -29 -31 -29h-16v57zM288 802v21h46v16h-46v20h46v16h-62v-88h62v15h-46zM453 787v88h-21l-26 -36l-26 36h-21v-88h17v66l30 -39l31 40v-67h16zM523 880q-19 0 -32 -13.5t-13 -33.5
q0 -19 11 -33t34 -14q24 0 35.5 14t11.5 33q0 22 -13.5 34.5t-33.5 12.5zM493 833q0 12 7.5 22t22.5 10q16 0 23.5 -10t7.5 -22q0 -13 -7 -22.5t-24 -9.5q-15 0 -22.5 10.5t-7.5 21.5z" />
    <glyph glyph-name="Udieresis" unicode="&#xdc;" horiz-adv-x="749" 
d="M653 700v-459q0 -70 -21.5 -118t-59 -77.5t-88.5 -42.5t-109 -13q-59 0 -109.5 13t-88.5 42.5t-59.5 77.5t-21.5 118v459h25v-458q0 -64 19 -107.5t53 -70.5t80.5 -38.5t101.5 -11.5q54 0 100.5 11.5t80.5 38.5t53 70.5t19 107.5v458h25zM118 914h500v-165h-500v165z
M175 787h31q23 0 35 12t12 32q0 18 -12 31t-35 13h-31v-88zM190 859h16q15 0 23 -8t8 -20q0 -29 -31 -29h-16v57zM294 802v21h46v16h-46v20h46v16h-62v-88h62v15h-46zM459 787v88h-21l-26 -36l-26 36h-21v-88h17v66l30 -39l31 40v-67h16zM529 880q-19 0 -32 -13.5t-13 -33.5
q0 -19 11 -33t34 -14q24 0 35.5 14t11.5 33q0 22 -13.5 34.5t-33.5 12.5zM499 833q0 12 7.5 22t22.5 10q16 0 23.5 -10t7.5 -22q0 -13 -7 -22.5t-24 -9.5q-15 0 -22.5 10.5t-7.5 21.5z" />
    <glyph glyph-name="Ugrave" unicode="&#xd9;" horiz-adv-x="749" 
d="M653 700v-459q0 -70 -21.5 -118t-59 -77.5t-88.5 -42.5t-109 -13q-59 0 -109.5 13t-88.5 42.5t-59.5 77.5t-21.5 118v459h25v-458q0 -64 19 -107.5t53 -70.5t80.5 -38.5t101.5 -11.5q54 0 100.5 11.5t80.5 38.5t53 70.5t19 107.5v458h25zM123 913h500v-165h-500v165z
M180 786h31q23 0 35 12t12 32q0 18 -12 31t-35 13h-31v-88zM195 858h16q15 0 23 -8t8 -20q0 -29 -31 -29h-16v57zM299 801v21h46v16h-46v20h46v16h-62v-88h62v15h-46zM464 786v88h-21l-26 -36l-26 36h-21v-88h17v66l30 -39l31 40v-67h16zM534 879q-19 0 -32 -13.5t-13 -33.5
q0 -19 11 -33t34 -14q24 0 35.5 14t11.5 33q0 22 -13.5 34.5t-33.5 12.5zM504 832q0 12 7.5 22t22.5 10q16 0 23.5 -10t7.5 -22q0 -13 -7 -22.5t-24 -9.5q-15 0 -22.5 10.5t-7.5 21.5z" />
    <glyph glyph-name="Uhungarumlaut" unicode="&#x170;" horiz-adv-x="749" 
d="M653 700v-459q0 -70 -21.5 -118t-59 -77.5t-88.5 -42.5t-109 -13q-59 0 -109.5 13t-88.5 42.5t-59.5 77.5t-21.5 118v459h25v-458q0 -64 19 -107.5t53 -70.5t80.5 -38.5t101.5 -11.5q54 0 100.5 11.5t80.5 38.5t53 70.5t19 107.5v458h25zM128 914h500v-165h-500v165z
M185 787h31q23 0 35 12t12 32q0 18 -12 31t-35 13h-31v-88zM200 859h16q15 0 23 -8t8 -20q0 -29 -31 -29h-16v57zM304 802v21h46v16h-46v20h46v16h-62v-88h62v15h-46zM469 787v88h-21l-26 -36l-26 36h-21v-88h17v66l30 -39l31 40v-67h16zM539 880q-19 0 -32 -13.5t-13 -33.5
q0 -19 11 -33t34 -14q24 0 35.5 14t11.5 33q0 22 -13.5 34.5t-33.5 12.5zM509 833q0 12 7.5 22t22.5 10q16 0 23.5 -10t7.5 -22q0 -13 -7 -22.5t-24 -9.5q-15 0 -22.5 10.5t-7.5 21.5z" />
    <glyph glyph-name="Umacron" unicode="&#x16a;" horiz-adv-x="749" 
d="M653 700v-459q0 -70 -21.5 -118t-59 -77.5t-88.5 -42.5t-109 -13q-59 0 -109.5 13t-88.5 42.5t-59.5 77.5t-21.5 118v459h25v-458q0 -64 19 -107.5t53 -70.5t80.5 -38.5t101.5 -11.5q54 0 100.5 11.5t80.5 38.5t53 70.5t19 107.5v458h25zM118 914h500v-165h-500v165z
M175 787h31q23 0 35 12t12 32q0 18 -12 31t-35 13h-31v-88zM190 859h16q15 0 23 -8t8 -20q0 -29 -31 -29h-16v57zM294 802v21h46v16h-46v20h46v16h-62v-88h62v15h-46zM459 787v88h-21l-26 -36l-26 36h-21v-88h17v66l30 -39l31 40v-67h16zM529 880q-19 0 -32 -13.5t-13 -33.5
q0 -19 11 -33t34 -14q24 0 35.5 14t11.5 33q0 22 -13.5 34.5t-33.5 12.5zM499 833q0 12 7.5 22t22.5 10q16 0 23.5 -10t7.5 -22q0 -13 -7 -22.5t-24 -9.5q-15 0 -22.5 10.5t-7.5 21.5z" />
    <glyph glyph-name="Uogonek" unicode="&#x172;" horiz-adv-x="749" 
d="M653 700v-459q0 -70 -21.5 -118t-59 -77.5t-88.5 -42.5t-109 -13q-59 0 -109.5 13t-88.5 42.5t-59.5 77.5t-21.5 118v459h25v-458q0 -64 19 -107.5t53 -70.5t80.5 -38.5t101.5 -11.5q54 0 100.5 11.5t80.5 38.5t53 70.5t19 107.5v458h25z" />
    <glyph glyph-name="Uring" unicode="&#x16e;" horiz-adv-x="749" 
d="M653 700v-459q0 -70 -21.5 -118t-59 -77.5t-88.5 -42.5t-109 -13q-59 0 -109.5 13t-88.5 42.5t-59.5 77.5t-21.5 118v459h25v-458q0 -64 19 -107.5t53 -70.5t80.5 -38.5t101.5 -11.5q54 0 100.5 11.5t80.5 38.5t53 70.5t19 107.5v458h25zM114 914h500v-165h-500v165z
M171 787h31q23 0 35 12t12 32q0 18 -12 31t-35 13h-31v-88zM186 859h16q15 0 23 -8t8 -20q0 -29 -31 -29h-16v57zM290 802v21h46v16h-46v20h46v16h-62v-88h62v15h-46zM455 787v88h-21l-26 -36l-26 36h-21v-88h17v66l30 -39l31 40v-67h16zM525 880q-19 0 -32 -13.5t-13 -33.5
q0 -19 11 -33t34 -14q24 0 35.5 14t11.5 33q0 22 -13.5 34.5t-33.5 12.5zM495 833q0 12 7.5 22t22.5 10q16 0 23.5 -10t7.5 -22q0 -13 -7 -22.5t-24 -9.5q-15 0 -22.5 10.5t-7.5 21.5z" />
    <glyph glyph-name="V" unicode="V" horiz-adv-x="677" 
d="M326 0l-306 700h27l292 -672l292 672h26l-306 -700h-25z" />
    <glyph glyph-name="W" unicode="W" horiz-adv-x="987" 
d="M959 700l-224 -700h-27l-215 651l-214 -651h-27l-224 700h27l210 -666l217 658h23l216 -658l210 666h28z" />
    <glyph glyph-name="Wacute" unicode="&#x1e82;" horiz-adv-x="987" 
d="M959 700l-224 -700h-27l-215 651l-214 -651h-27l-224 700h27l210 -666l217 658h23l216 -658l210 666h28zM253 914h500v-165h-500v165zM310 787h31q23 0 35 12t12 32q0 18 -12 31t-35 13h-31v-88zM325 859h16q15 0 23 -8t8 -20q0 -29 -31 -29h-16v57zM429 802v21h46v16
h-46v20h46v16h-62v-88h62v15h-46zM594 787v88h-21l-26 -36l-26 36h-21v-88h17v66l30 -39l31 40v-67h16zM664 880q-19 0 -32 -13.5t-13 -33.5q0 -19 11 -33t34 -14q24 0 35.5 14t11.5 33q0 22 -13.5 34.5t-33.5 12.5zM634 833q0 12 7.5 22t22.5 10q16 0 23.5 -10t7.5 -22
q0 -13 -7 -22.5t-24 -9.5q-15 0 -22.5 10.5t-7.5 21.5z" />
    <glyph glyph-name="Wcircumflex" unicode="&#x174;" horiz-adv-x="987" 
d="M959 700l-224 -700h-27l-215 651l-214 -651h-27l-224 700h27l210 -666l217 658h23l216 -658l210 666h28zM227 914h500v-165h-500v165zM284 787h31q23 0 35 12t12 32q0 18 -12 31t-35 13h-31v-88zM299 859h16q15 0 23 -8t8 -20q0 -29 -31 -29h-16v57zM403 802v21h46v16
h-46v20h46v16h-62v-88h62v15h-46zM568 787v88h-21l-26 -36l-26 36h-21v-88h17v66l30 -39l31 40v-67h16zM638 880q-19 0 -32 -13.5t-13 -33.5q0 -19 11 -33t34 -14q24 0 35.5 14t11.5 33q0 22 -13.5 34.5t-33.5 12.5zM608 833q0 12 7.5 22t22.5 10q16 0 23.5 -10t7.5 -22
q0 -13 -7 -22.5t-24 -9.5q-15 0 -22.5 10.5t-7.5 21.5z" />
    <glyph glyph-name="Wdieresis" unicode="&#x1e84;" horiz-adv-x="987" 
d="M959 700l-224 -700h-27l-215 651l-214 -651h-27l-224 700h27l210 -666l217 658h23l216 -658l210 666h28zM233 914h500v-165h-500v165zM290 787h31q23 0 35 12t12 32q0 18 -12 31t-35 13h-31v-88zM305 859h16q15 0 23 -8t8 -20q0 -29 -31 -29h-16v57zM409 802v21h46v16
h-46v20h46v16h-62v-88h62v15h-46zM574 787v88h-21l-26 -36l-26 36h-21v-88h17v66l30 -39l31 40v-67h16zM644 880q-19 0 -32 -13.5t-13 -33.5q0 -19 11 -33t34 -14q24 0 35.5 14t11.5 33q0 22 -13.5 34.5t-33.5 12.5zM614 833q0 12 7.5 22t22.5 10q16 0 23.5 -10t7.5 -22
q0 -13 -7 -22.5t-24 -9.5q-15 0 -22.5 10.5t-7.5 21.5z" />
    <glyph glyph-name="Wgrave" unicode="&#x1e80;" horiz-adv-x="987" 
d="M959 700l-224 -700h-27l-215 651l-214 -651h-27l-224 700h27l210 -666l217 658h23l216 -658l210 666h28zM238 913h500v-165h-500v165zM295 786h31q23 0 35 12t12 32q0 18 -12 31t-35 13h-31v-88zM310 858h16q15 0 23 -8t8 -20q0 -29 -31 -29h-16v57zM414 801v21h46v16
h-46v20h46v16h-62v-88h62v15h-46zM579 786v88h-21l-26 -36l-26 36h-21v-88h17v66l30 -39l31 40v-67h16zM649 879q-19 0 -32 -13.5t-13 -33.5q0 -19 11 -33t34 -14q24 0 35.5 14t11.5 33q0 22 -13.5 34.5t-33.5 12.5zM619 832q0 12 7.5 22t22.5 10q16 0 23.5 -10t7.5 -22
q0 -13 -7 -22.5t-24 -9.5q-15 0 -22.5 10.5t-7.5 21.5z" />
    <glyph glyph-name="X" unicode="X" horiz-adv-x="606" 
d="M11 0l277 360l-262 340h30l247 -321l248 321h29l-262 -340l277 -360h-29l-263 340l-262 -340h-30z" />
    <glyph glyph-name="Y" unicode="Y" horiz-adv-x="625" 
d="M300 0v284l-276 416h28l260 -392l260 392h28l-275 -416v-284h-25z" />
    <glyph glyph-name="Yacute" unicode="&#xdd;" horiz-adv-x="625" 
d="M300 0v284l-276 416h28l260 -392l260 392h28l-275 -416v-284h-25zM73 914h500v-165h-500v165zM130 787h31q23 0 35 12t12 32q0 18 -12 31t-35 13h-31v-88zM145 859h16q15 0 23 -8t8 -20q0 -29 -31 -29h-16v57zM249 802v21h46v16h-46v20h46v16h-62v-88h62v15h-46zM414 787
v88h-21l-26 -36l-26 36h-21v-88h17v66l30 -39l31 40v-67h16zM484 880q-19 0 -32 -13.5t-13 -33.5q0 -19 11 -33t34 -14q24 0 35.5 14t11.5 33q0 22 -13.5 34.5t-33.5 12.5zM454 833q0 12 7.5 22t22.5 10q16 0 23.5 -10t7.5 -22q0 -13 -7 -22.5t-24 -9.5q-15 0 -22.5 10.5
t-7.5 21.5z" />
    <glyph glyph-name="Ycircumflex" unicode="&#x176;" horiz-adv-x="625" 
d="M300 0v284l-276 416h28l260 -392l260 392h28l-275 -416v-284h-25zM47 914h500v-165h-500v165zM104 787h31q23 0 35 12t12 32q0 18 -12 31t-35 13h-31v-88zM119 859h16q15 0 23 -8t8 -20q0 -29 -31 -29h-16v57zM223 802v21h46v16h-46v20h46v16h-62v-88h62v15h-46zM388 787
v88h-21l-26 -36l-26 36h-21v-88h17v66l30 -39l31 40v-67h16zM458 880q-19 0 -32 -13.5t-13 -33.5q0 -19 11 -33t34 -14q24 0 35.5 14t11.5 33q0 22 -13.5 34.5t-33.5 12.5zM428 833q0 12 7.5 22t22.5 10q16 0 23.5 -10t7.5 -22q0 -13 -7 -22.5t-24 -9.5q-15 0 -22.5 10.5
t-7.5 21.5z" />
    <glyph glyph-name="Ydieresis" unicode="&#x178;" horiz-adv-x="625" 
d="M300 0v284l-276 416h28l260 -392l260 392h28l-275 -416v-284h-25zM53 914h500v-165h-500v165zM110 787h31q23 0 35 12t12 32q0 18 -12 31t-35 13h-31v-88zM125 859h16q15 0 23 -8t8 -20q0 -29 -31 -29h-16v57zM229 802v21h46v16h-46v20h46v16h-62v-88h62v15h-46zM394 787
v88h-21l-26 -36l-26 36h-21v-88h17v66l30 -39l31 40v-67h16zM464 880q-19 0 -32 -13.5t-13 -33.5q0 -19 11 -33t34 -14q24 0 35.5 14t11.5 33q0 22 -13.5 34.5t-33.5 12.5zM434 833q0 12 7.5 22t22.5 10q16 0 23.5 -10t7.5 -22q0 -13 -7 -22.5t-24 -9.5q-15 0 -22.5 10.5
t-7.5 21.5z" />
    <glyph glyph-name="Ygrave" unicode="&#x1ef2;" horiz-adv-x="625" 
d="M300 0v284l-276 416h28l260 -392l260 392h28l-275 -416v-284h-25zM58 913h500v-165h-500v165zM115 786h31q23 0 35 12t12 32q0 18 -12 31t-35 13h-31v-88zM130 858h16q15 0 23 -8t8 -20q0 -29 -31 -29h-16v57zM234 801v21h46v16h-46v20h46v16h-62v-88h62v15h-46zM399 786
v88h-21l-26 -36l-26 36h-21v-88h17v66l30 -39l31 40v-67h16zM469 879q-19 0 -32 -13.5t-13 -33.5q0 -19 11 -33t34 -14q24 0 35.5 14t11.5 33q0 22 -13.5 34.5t-33.5 12.5zM439 832q0 12 7.5 22t22.5 10q16 0 23.5 -10t7.5 -22q0 -13 -7 -22.5t-24 -9.5q-15 0 -22.5 10.5
t-7.5 21.5z" />
    <glyph glyph-name="Z" unicode="Z" horiz-adv-x="569" 
d="M24 0v22l476 654h-456v24h488v-22l-477 -654h484v-24h-515z" />
    <glyph glyph-name="Zacute" unicode="&#x179;" horiz-adv-x="569" 
d="M24 0v22l476 654h-456v24h488v-22l-477 -654h484v-24h-515zM47 914h500v-165h-500v165zM104 787h31q23 0 35 12t12 32q0 18 -12 31t-35 13h-31v-88zM119 859h16q15 0 23 -8t8 -20q0 -29 -31 -29h-16v57zM223 802v21h46v16h-46v20h46v16h-62v-88h62v15h-46zM388 787v88
h-21l-26 -36l-26 36h-21v-88h17v66l30 -39l31 40v-67h16zM458 880q-19 0 -32 -13.5t-13 -33.5q0 -19 11 -33t34 -14q24 0 35.5 14t11.5 33q0 22 -13.5 34.5t-33.5 12.5zM428 833q0 12 7.5 22t22.5 10q16 0 23.5 -10t7.5 -22q0 -13 -7 -22.5t-24 -9.5q-15 0 -22.5 10.5
t-7.5 21.5z" />
    <glyph glyph-name="Zcaron" unicode="&#x17d;" horiz-adv-x="569" 
d="M24 0v22l476 654h-456v24h488v-22l-477 -654h484v-24h-515zM40 913h500v-165h-500v165zM97 786h31q23 0 35 12t12 32q0 18 -12 31t-35 13h-31v-88zM112 858h16q15 0 23 -8t8 -20q0 -29 -31 -29h-16v57zM216 801v21h46v16h-46v20h46v16h-62v-88h62v15h-46zM381 786v88h-21
l-26 -36l-26 36h-21v-88h17v66l30 -39l31 40v-67h16zM451 879q-19 0 -32 -13.5t-13 -33.5q0 -19 11 -33t34 -14q24 0 35.5 14t11.5 33q0 22 -13.5 34.5t-33.5 12.5zM421 832q0 12 7.5 22t22.5 10q16 0 23.5 -10t7.5 -22q0 -13 -7 -22.5t-24 -9.5q-15 0 -22.5 10.5t-7.5 21.5
z" />
    <glyph glyph-name="Zdotaccent" unicode="&#x17b;" horiz-adv-x="569" 
d="M24 0v22l476 654h-456v24h488v-22l-477 -654h484v-24h-515zM22 914h500v-165h-500v165zM79 787h31q23 0 35 12t12 32q0 18 -12 31t-35 13h-31v-88zM94 859h16q15 0 23 -8t8 -20q0 -29 -31 -29h-16v57zM198 802v21h46v16h-46v20h46v16h-62v-88h62v15h-46zM363 787v88h-21
l-26 -36l-26 36h-21v-88h17v66l30 -39l31 40v-67h16zM433 880q-19 0 -32 -13.5t-13 -33.5q0 -19 11 -33t34 -14q24 0 35.5 14t11.5 33q0 22 -13.5 34.5t-33.5 12.5zM403 833q0 12 7.5 22t22.5 10q16 0 23.5 -10t7.5 -22q0 -13 -7 -22.5t-24 -9.5q-15 0 -22.5 10.5t-7.5 21.5
z" />
    <glyph glyph-name="a" unicode="a" horiz-adv-x="539" 
d="M444 70q0 -28 15.5 -38.5t36.5 -10.5q20 0 37 7v-21q-21 -8 -42 -8q-13 0 -26 3.5t-23 12t-16 21.5t-6 33v36q-35 -56 -93 -85.5t-124 -29.5q-30 0 -59.5 8t-52.5 25t-37 43t-14 61q0 42 18 70.5t47 46.5t66 26t75 8q47 0 90.5 -8t83.5 -22v52q0 76 -43.5 122t-129.5 46
q-54 0 -97.5 -9.5t-72.5 -20.5v24q28 10 71 19t100 9q96 0 146 -51.5t50 -140.5v-228zM64 128q0 -30 12 -52t32.5 -36.5t46 -21.5t52.5 -7q32 0 63 8t59 24t51.5 39.5t39.5 54.5v89q-38 14 -82 22t-90 8q-35 0 -68 -6.5t-58.5 -21.5t-41.5 -39.5t-16 -60.5z" />
    <glyph glyph-name="aacute" unicode="&#xe1;" horiz-adv-x="539" 
d="M444 70q0 -28 15.5 -38.5t36.5 -10.5q20 0 37 7v-21q-21 -8 -42 -8q-13 0 -26 3.5t-23 12t-16 21.5t-6 33v36q-35 -56 -93 -85.5t-124 -29.5q-30 0 -59.5 8t-52.5 25t-37 43t-14 61q0 42 18 70.5t47 46.5t66 26t75 8q47 0 90.5 -8t83.5 -22v52q0 76 -43.5 122t-129.5 46
q-54 0 -97.5 -9.5t-72.5 -20.5v24q28 10 71 19t100 9q96 0 146 -51.5t50 -140.5v-228zM64 128q0 -30 12 -52t32.5 -36.5t46 -21.5t52.5 -7q32 0 63 8t59 24t51.5 39.5t39.5 54.5v89q-38 14 -82 22t-90 8q-35 0 -68 -6.5t-58.5 -21.5t-41.5 -39.5t-16 -60.5zM11 694h500v-165
h-500v165zM68 567h31q23 0 35 12t12 32q0 18 -12 31t-35 13h-31v-88zM83 639h16q15 0 23 -8t8 -20q0 -29 -31 -29h-16v57zM187 582v21h46v16h-46v20h46v16h-62v-88h62v15h-46zM352 567v88h-21l-26 -36l-26 36h-21v-88h17v66l30 -39l31 40v-67h16zM422 660q-19 0 -32 -13.5
t-13 -33.5q0 -19 11 -33t34 -14q24 0 35.5 14t11.5 33q0 22 -13.5 34.5t-33.5 12.5zM392 613q0 12 7.5 22t22.5 10q16 0 23.5 -10t7.5 -22q0 -13 -7 -22.5t-24 -9.5q-15 0 -22.5 10.5t-7.5 21.5z" />
    <glyph glyph-name="abreve" unicode="&#x103;" horiz-adv-x="539" 
d="M444 70q0 -28 15.5 -38.5t36.5 -10.5q20 0 37 7v-21q-21 -8 -42 -8q-13 0 -26 3.5t-23 12t-16 21.5t-6 33v36q-35 -56 -93 -85.5t-124 -29.5q-30 0 -59.5 8t-52.5 25t-37 43t-14 61q0 42 18 70.5t47 46.5t66 26t75 8q47 0 90.5 -8t83.5 -22v52q0 76 -43.5 122t-129.5 46
q-54 0 -97.5 -9.5t-72.5 -20.5v24q28 10 71 19t100 9q96 0 146 -51.5t50 -140.5v-228zM64 128q0 -30 12 -52t32.5 -36.5t46 -21.5t52.5 -7q32 0 63 8t59 24t51.5 39.5t39.5 54.5v89q-38 14 -82 22t-90 8q-35 0 -68 -6.5t-58.5 -21.5t-41.5 -39.5t-16 -60.5zM-4 694h500v-165
h-500v165zM53 567h31q23 0 35 12t12 32q0 18 -12 31t-35 13h-31v-88zM68 639h16q15 0 23 -8t8 -20q0 -29 -31 -29h-16v57zM172 582v21h46v16h-46v20h46v16h-62v-88h62v15h-46zM337 567v88h-21l-26 -36l-26 36h-21v-88h17v66l30 -39l31 40v-67h16zM407 660q-19 0 -32 -13.5
t-13 -33.5q0 -19 11 -33t34 -14q24 0 35.5 14t11.5 33q0 22 -13.5 34.5t-33.5 12.5zM377 613q0 12 7.5 22t22.5 10q16 0 23.5 -10t7.5 -22q0 -13 -7 -22.5t-24 -9.5q-15 0 -22.5 10.5t-7.5 21.5z" />
    <glyph glyph-name="acircumflex" unicode="&#xe2;" horiz-adv-x="539" 
d="M444 70q0 -28 15.5 -38.5t36.5 -10.5q20 0 37 7v-21q-21 -8 -42 -8q-13 0 -26 3.5t-23 12t-16 21.5t-6 33v36q-35 -56 -93 -85.5t-124 -29.5q-30 0 -59.5 8t-52.5 25t-37 43t-14 61q0 42 18 70.5t47 46.5t66 26t75 8q47 0 90.5 -8t83.5 -22v52q0 76 -43.5 122t-129.5 46
q-54 0 -97.5 -9.5t-72.5 -20.5v24q28 10 71 19t100 9q96 0 146 -51.5t50 -140.5v-228zM64 128q0 -30 12 -52t32.5 -36.5t46 -21.5t52.5 -7q32 0 63 8t59 24t51.5 39.5t39.5 54.5v89q-38 14 -82 22t-90 8q-35 0 -68 -6.5t-58.5 -21.5t-41.5 -39.5t-16 -60.5zM-15 694h500
v-165h-500v165zM42 567h31q23 0 35 12t12 32q0 18 -12 31t-35 13h-31v-88zM57 639h16q15 0 23 -8t8 -20q0 -29 -31 -29h-16v57zM161 582v21h46v16h-46v20h46v16h-62v-88h62v15h-46zM326 567v88h-21l-26 -36l-26 36h-21v-88h17v66l30 -39l31 40v-67h16zM396 660
q-19 0 -32 -13.5t-13 -33.5q0 -19 11 -33t34 -14q24 0 35.5 14t11.5 33q0 22 -13.5 34.5t-33.5 12.5zM366 613q0 12 7.5 22t22.5 10q16 0 23.5 -10t7.5 -22q0 -13 -7 -22.5t-24 -9.5q-15 0 -22.5 10.5t-7.5 21.5z" />
    <glyph glyph-name="adieresis" unicode="&#xe4;" horiz-adv-x="539" 
d="M444 70q0 -28 15.5 -38.5t36.5 -10.5q20 0 37 7v-21q-21 -8 -42 -8q-13 0 -26 3.5t-23 12t-16 21.5t-6 33v36q-35 -56 -93 -85.5t-124 -29.5q-30 0 -59.5 8t-52.5 25t-37 43t-14 61q0 42 18 70.5t47 46.5t66 26t75 8q47 0 90.5 -8t83.5 -22v52q0 76 -43.5 122t-129.5 46
q-54 0 -97.5 -9.5t-72.5 -20.5v24q28 10 71 19t100 9q96 0 146 -51.5t50 -140.5v-228zM64 128q0 -30 12 -52t32.5 -36.5t46 -21.5t52.5 -7q32 0 63 8t59 24t51.5 39.5t39.5 54.5v89q-38 14 -82 22t-90 8q-35 0 -68 -6.5t-58.5 -21.5t-41.5 -39.5t-16 -60.5zM-9 694h500v-165
h-500v165zM48 567h31q23 0 35 12t12 32q0 18 -12 31t-35 13h-31v-88zM63 639h16q15 0 23 -8t8 -20q0 -29 -31 -29h-16v57zM167 582v21h46v16h-46v20h46v16h-62v-88h62v15h-46zM332 567v88h-21l-26 -36l-26 36h-21v-88h17v66l30 -39l31 40v-67h16zM402 660q-19 0 -32 -13.5
t-13 -33.5q0 -19 11 -33t34 -14q24 0 35.5 14t11.5 33q0 22 -13.5 34.5t-33.5 12.5zM372 613q0 12 7.5 22t22.5 10q16 0 23.5 -10t7.5 -22q0 -13 -7 -22.5t-24 -9.5q-15 0 -22.5 10.5t-7.5 21.5z" />
    <glyph glyph-name="agrave" unicode="&#xe0;" horiz-adv-x="539" 
d="M444 70q0 -28 15.5 -38.5t36.5 -10.5q20 0 37 7v-21q-21 -8 -42 -8q-13 0 -26 3.5t-23 12t-16 21.5t-6 33v36q-35 -56 -93 -85.5t-124 -29.5q-30 0 -59.5 8t-52.5 25t-37 43t-14 61q0 42 18 70.5t47 46.5t66 26t75 8q47 0 90.5 -8t83.5 -22v52q0 76 -43.5 122t-129.5 46
q-54 0 -97.5 -9.5t-72.5 -20.5v24q28 10 71 19t100 9q96 0 146 -51.5t50 -140.5v-228zM64 128q0 -30 12 -52t32.5 -36.5t46 -21.5t52.5 -7q32 0 63 8t59 24t51.5 39.5t39.5 54.5v89q-38 14 -82 22t-90 8q-35 0 -68 -6.5t-58.5 -21.5t-41.5 -39.5t-16 -60.5zM-4 693h500v-165
h-500v165zM53 566h31q23 0 35 12t12 32q0 18 -12 31t-35 13h-31v-88zM68 638h16q15 0 23 -8t8 -20q0 -29 -31 -29h-16v57zM172 581v21h46v16h-46v20h46v16h-62v-88h62v15h-46zM337 566v88h-21l-26 -36l-26 36h-21v-88h17v66l30 -39l31 40v-67h16zM407 659q-19 0 -32 -13.5
t-13 -33.5q0 -19 11 -33t34 -14q24 0 35.5 14t11.5 33q0 22 -13.5 34.5t-33.5 12.5zM377 612q0 12 7.5 22t22.5 10q16 0 23.5 -10t7.5 -22q0 -13 -7 -22.5t-24 -9.5q-15 0 -22.5 10.5t-7.5 21.5z" />
    <glyph glyph-name="amacron" unicode="&#x101;" horiz-adv-x="539" 
d="M444 70q0 -28 15.5 -38.5t36.5 -10.5q20 0 37 7v-21q-21 -8 -42 -8q-13 0 -26 3.5t-23 12t-16 21.5t-6 33v36q-35 -56 -93 -85.5t-124 -29.5q-30 0 -59.5 8t-52.5 25t-37 43t-14 61q0 42 18 70.5t47 46.5t66 26t75 8q47 0 90.5 -8t83.5 -22v52q0 76 -43.5 122t-129.5 46
q-54 0 -97.5 -9.5t-72.5 -20.5v24q28 10 71 19t100 9q96 0 146 -51.5t50 -140.5v-228zM64 128q0 -30 12 -52t32.5 -36.5t46 -21.5t52.5 -7q32 0 63 8t59 24t51.5 39.5t39.5 54.5v89q-38 14 -82 22t-90 8q-35 0 -68 -6.5t-58.5 -21.5t-41.5 -39.5t-16 -60.5zM-9 694h500v-165
h-500v165zM48 567h31q23 0 35 12t12 32q0 18 -12 31t-35 13h-31v-88zM63 639h16q15 0 23 -8t8 -20q0 -29 -31 -29h-16v57zM167 582v21h46v16h-46v20h46v16h-62v-88h62v15h-46zM332 567v88h-21l-26 -36l-26 36h-21v-88h17v66l30 -39l31 40v-67h16zM402 660q-19 0 -32 -13.5
t-13 -33.5q0 -19 11 -33t34 -14q24 0 35.5 14t11.5 33q0 22 -13.5 34.5t-33.5 12.5zM372 613q0 12 7.5 22t22.5 10q16 0 23.5 -10t7.5 -22q0 -13 -7 -22.5t-24 -9.5q-15 0 -22.5 10.5t-7.5 21.5z" />
    <glyph glyph-name="aogonek" unicode="&#x105;" horiz-adv-x="539" 
d="M444 70q0 -28 15.5 -38.5t36.5 -10.5q20 0 37 7v-21q-21 -8 -42 -8q-13 0 -26 3.5t-23 12t-16 21.5t-6 33v36q-35 -56 -93 -85.5t-124 -29.5q-30 0 -59.5 8t-52.5 25t-37 43t-14 61q0 42 18 70.5t47 46.5t66 26t75 8q47 0 90.5 -8t83.5 -22v52q0 76 -43.5 122t-129.5 46
q-54 0 -97.5 -9.5t-72.5 -20.5v24q28 10 71 19t100 9q96 0 146 -51.5t50 -140.5v-228zM64 128q0 -30 12 -52t32.5 -36.5t46 -21.5t52.5 -7q32 0 63 8t59 24t51.5 39.5t39.5 54.5v89q-38 14 -82 22t-90 8q-35 0 -68 -6.5t-58.5 -21.5t-41.5 -39.5t-16 -60.5z" />
    <glyph glyph-name="aring" unicode="&#xe5;" horiz-adv-x="539" 
d="M444 70q0 -28 15.5 -38.5t36.5 -10.5q20 0 37 7v-21q-21 -8 -42 -8q-13 0 -26 3.5t-23 12t-16 21.5t-6 33v36q-35 -56 -93 -85.5t-124 -29.5q-30 0 -59.5 8t-52.5 25t-37 43t-14 61q0 42 18 70.5t47 46.5t66 26t75 8q47 0 90.5 -8t83.5 -22v52q0 76 -43.5 122t-129.5 46
q-54 0 -97.5 -9.5t-72.5 -20.5v24q28 10 71 19t100 9q96 0 146 -51.5t50 -140.5v-228zM64 128q0 -30 12 -52t32.5 -36.5t46 -21.5t52.5 -7q32 0 63 8t59 24t51.5 39.5t39.5 54.5v89q-38 14 -82 22t-90 8q-35 0 -68 -6.5t-58.5 -21.5t-41.5 -39.5t-16 -60.5zM-13 694h500
v-165h-500v165zM44 567h31q23 0 35 12t12 32q0 18 -12 31t-35 13h-31v-88zM59 639h16q15 0 23 -8t8 -20q0 -29 -31 -29h-16v57zM163 582v21h46v16h-46v20h46v16h-62v-88h62v15h-46zM328 567v88h-21l-26 -36l-26 36h-21v-88h17v66l30 -39l31 40v-67h16zM398 660
q-19 0 -32 -13.5t-13 -33.5q0 -19 11 -33t34 -14q24 0 35.5 14t11.5 33q0 22 -13.5 34.5t-33.5 12.5zM368 613q0 12 7.5 22t22.5 10q16 0 23.5 -10t7.5 -22q0 -13 -7 -22.5t-24 -9.5q-15 0 -22.5 10.5t-7.5 21.5z" />
    <glyph glyph-name="atilde" unicode="&#xe3;" horiz-adv-x="539" 
d="M444 70q0 -28 15.5 -38.5t36.5 -10.5q20 0 37 7v-21q-21 -8 -42 -8q-13 0 -26 3.5t-23 12t-16 21.5t-6 33v36q-35 -56 -93 -85.5t-124 -29.5q-30 0 -59.5 8t-52.5 25t-37 43t-14 61q0 42 18 70.5t47 46.5t66 26t75 8q47 0 90.5 -8t83.5 -22v52q0 76 -43.5 122t-129.5 46
q-54 0 -97.5 -9.5t-72.5 -20.5v24q28 10 71 19t100 9q96 0 146 -51.5t50 -140.5v-228zM64 128q0 -30 12 -52t32.5 -36.5t46 -21.5t52.5 -7q32 0 63 8t59 24t51.5 39.5t39.5 54.5v89q-38 14 -82 22t-90 8q-35 0 -68 -6.5t-58.5 -21.5t-41.5 -39.5t-16 -60.5zM-16 694h500
v-165h-500v165zM41 567h31q23 0 35 12t12 32q0 18 -12 31t-35 13h-31v-88zM56 639h16q15 0 23 -8t8 -20q0 -29 -31 -29h-16v57zM160 582v21h46v16h-46v20h46v16h-62v-88h62v15h-46zM325 567v88h-21l-26 -36l-26 36h-21v-88h17v66l30 -39l31 40v-67h16zM395 660
q-19 0 -32 -13.5t-13 -33.5q0 -19 11 -33t34 -14q24 0 35.5 14t11.5 33q0 22 -13.5 34.5t-33.5 12.5zM365 613q0 12 7.5 22t22.5 10q16 0 23.5 -10t7.5 -22q0 -13 -7 -22.5t-24 -9.5q-15 0 -22.5 10.5t-7.5 21.5z" />
    <glyph glyph-name="ae" unicode="&#xe6;" 
d="M71 0v700h232v-700h-232zM247 77v48q0 32 -19 46.5t-42 13.5q-23 0 -41.5 -14t-18.5 -46v-48h121zM148 125q-1 20 11.5 28t26.5 10q14 0 27 -8.5t13 -29.5v-26h-78v26zM226 243h-28v65h-21v-65h-28v67h-23v-90h121v90h-21v-67zM247 477h-121v-26l53 -39l-53 -37v-26h121
v22h-87l53 39v4l-53 41h87v22zM123 574q0 -26 18 -44t47 -18q23 0 43 15t20 47t-20.5 46.5t-43.5 15.5q-23 0 -43.5 -15t-20.5 -47zM188 534q-18 -1 -31 9.5t-12 30.5q0 22 14 31t29 9q15 -2 28 -10t13 -30t-13 -31t-28 -9z" />
    <glyph glyph-name="b" unicode="b" horiz-adv-x="613" 
d="M108 700v-343q14 28 35.5 52t49.5 42t61.5 28.5t71.5 10.5q51 0 94.5 -17.5t75.5 -50t50 -78.5t18 -104t-18 -104t-50 -78.5t-75.5 -50t-94.5 -17.5q-38 0 -71.5 10.5t-61.5 28.5t-50 42.5t-37 53.5v-125h-22v700h24zM540 240q0 54 -16.5 96t-45.5 71.5t-68.5 45
t-85.5 15.5q-39 0 -73.5 -12t-62.5 -33t-48.5 -49.5t-31.5 -60.5v-146q11 -32 31.5 -60.5t48.5 -49.5t62.5 -33t73.5 -12q46 0 86 15.5t68.5 45t45 72t16.5 95.5z" />
    <glyph glyph-name="c" unicode="c" horiz-adv-x="493" 
d="M49 236q0 67 22.5 115t59.5 79t83 45.5t93 14.5q35 0 72 -9t68 -30v-23q-29 20 -66 30t-72 10q-44 0 -86 -13.5t-75.5 -41.5t-54 -72t-20.5 -105q0 -57 19 -99.5t50.5 -70t71.5 -41t83 -13.5q41 0 81 9.5t74 29.5v-24q-35 -20 -75 -28.5t-82 -8.5q-46 0 -90.5 14.5
t-79 44.5t-55.5 76.5t-21 110.5z" />
    <glyph glyph-name="cacute" unicode="&#x107;" horiz-adv-x="493" 
d="M49 236q0 67 22.5 115t59.5 79t83 45.5t93 14.5q35 0 72 -9t68 -30v-23q-29 20 -66 30t-72 10q-44 0 -86 -13.5t-75.5 -41.5t-54 -72t-20.5 -105q0 -57 19 -99.5t50.5 -70t71.5 -41t83 -13.5q41 0 81 9.5t74 29.5v-24q-35 -20 -75 -28.5t-82 -8.5q-46 0 -90.5 14.5
t-79 44.5t-55.5 76.5t-21 110.5zM55 694h500v-165h-500v165zM112 567h31q23 0 35 12t12 32q0 18 -12 31t-35 13h-31v-88zM127 639h16q15 0 23 -8t8 -20q0 -29 -31 -29h-16v57zM231 582v21h46v16h-46v20h46v16h-62v-88h62v15h-46zM396 567v88h-21l-26 -36l-26 36h-21v-88h17
v66l30 -39l31 40v-67h16zM466 660q-19 0 -32 -13.5t-13 -33.5q0 -19 11 -33t34 -14q24 0 35.5 14t11.5 33q0 22 -13.5 34.5t-33.5 12.5zM436 613q0 12 7.5 22t22.5 10q16 0 23.5 -10t7.5 -22q0 -13 -7 -22.5t-24 -9.5q-15 0 -22.5 10.5t-7.5 21.5z" />
    <glyph glyph-name="ccaron" unicode="&#x10d;" horiz-adv-x="493" 
d="M49 236q0 67 22.5 115t59.5 79t83 45.5t93 14.5q35 0 72 -9t68 -30v-23q-29 20 -66 30t-72 10q-44 0 -86 -13.5t-75.5 -41.5t-54 -72t-20.5 -105q0 -57 19 -99.5t50.5 -70t71.5 -41t83 -13.5q41 0 81 9.5t74 29.5v-24q-35 -20 -75 -28.5t-82 -8.5q-46 0 -90.5 14.5
t-79 44.5t-55.5 76.5t-21 110.5zM48 693h500v-165h-500v165zM105 566h31q23 0 35 12t12 32q0 18 -12 31t-35 13h-31v-88zM120 638h16q15 0 23 -8t8 -20q0 -29 -31 -29h-16v57zM224 581v21h46v16h-46v20h46v16h-62v-88h62v15h-46zM389 566v88h-21l-26 -36l-26 36h-21v-88h17
v66l30 -39l31 40v-67h16zM459 659q-19 0 -32 -13.5t-13 -33.5q0 -19 11 -33t34 -14q24 0 35.5 14t11.5 33q0 22 -13.5 34.5t-33.5 12.5zM429 612q0 12 7.5 22t22.5 10q16 0 23.5 -10t7.5 -22q0 -13 -7 -22.5t-24 -9.5q-15 0 -22.5 10.5t-7.5 21.5z" />
    <glyph glyph-name="ccedilla" unicode="&#xe7;" horiz-adv-x="493" 
d="M49 236q0 67 22.5 115t59.5 79t83 45.5t93 14.5q35 0 72 -9t68 -30v-23q-29 20 -66 30t-72 10q-44 0 -86 -13.5t-75.5 -41.5t-54 -72t-20.5 -105q0 -57 19 -99.5t50.5 -70t71.5 -41t83 -13.5q41 0 81 9.5t74 29.5v-24q-35 -20 -75 -28.5t-82 -8.5q-46 0 -90.5 14.5
t-79 44.5t-55.5 76.5t-21 110.5z" />
    <glyph glyph-name="cdotaccent" unicode="&#x10b;" horiz-adv-x="493" 
d="M49 236q0 67 22.5 115t59.5 79t83 45.5t93 14.5q35 0 72 -9t68 -30v-23q-29 20 -66 30t-72 10q-44 0 -86 -13.5t-75.5 -41.5t-54 -72t-20.5 -105q0 -57 19 -99.5t50.5 -70t71.5 -41t83 -13.5q41 0 81 9.5t74 29.5v-24q-35 -20 -75 -28.5t-82 -8.5q-46 0 -90.5 14.5
t-79 44.5t-55.5 76.5t-21 110.5zM30 694h500v-165h-500v165zM87 567h31q23 0 35 12t12 32q0 18 -12 31t-35 13h-31v-88zM102 639h16q15 0 23 -8t8 -20q0 -29 -31 -29h-16v57zM206 582v21h46v16h-46v20h46v16h-62v-88h62v15h-46zM371 567v88h-21l-26 -36l-26 36h-21v-88h17
v66l30 -39l31 40v-67h16zM441 660q-19 0 -32 -13.5t-13 -33.5q0 -19 11 -33t34 -14q24 0 35.5 14t11.5 33q0 22 -13.5 34.5t-33.5 12.5zM411 613q0 12 7.5 22t22.5 10q16 0 23.5 -10t7.5 -22q0 -13 -7 -22.5t-24 -9.5q-15 0 -22.5 10.5t-7.5 21.5z" />
    <glyph glyph-name="d" unicode="d" horiz-adv-x="613" 
d="M529 700v-700h-22v125q-15 -29 -37 -53.5t-50 -42.5t-61.5 -28.5t-71.5 -10.5q-51 0 -94.5 17.5t-75.5 50t-50 78.5t-18 104t18 104t50 78.5t75.5 50t94.5 17.5q38 0 71.5 -10.5t61.5 -28.5t49.5 -42t35.5 -52v343h24zM505 313q-11 32 -31.5 60.5t-48.5 49.5t-62.5 33
t-73.5 12q-46 0 -85.5 -15.5t-68.5 -45t-45.5 -71.5t-16.5 -96q0 -53 16.5 -95.5t45.5 -72t68.5 -45t85.5 -15.5q39 0 73.5 12t62.5 33t48.5 49.5t31.5 60.5v146z" />
    <glyph glyph-name="eth" unicode="&#xf0;" horiz-adv-x="596" 
d="M537 266q0 -63 -18 -114t-50 -87t-77.5 -55.5t-100.5 -19.5q-53 0 -97 16.5t-76.5 47t-50.5 73.5t-18 97q0 50 18.5 91.5t50.5 71t74.5 46t89.5 16.5q38 0 76 -11.5t70 -35t55 -59t31 -83.5q1 6 0.5 12t-0.5 12q-2 82 -23 142.5t-54.5 104t-76 71.5t-86.5 44l-119 -119
l-15 15l112 111q-42 14 -81 19t-70 5v23q35 0 79 -6t90 -23l84 85l15 -15l-78 -79q46 -18 90.5 -49.5t79 -79t55.5 -113.5t21 -154zM73 224q0 -49 16 -88t45 -66.5t69 -42t88 -14.5q88 0 144 50.5t72 135.5q-1 58 -20.5 100.5t-51 70.5t-71 42t-80.5 14q-43 0 -81.5 -14.5
t-67 -41t-45.5 -64t-17 -82.5z" />
    <glyph glyph-name="dcaron" unicode="&#x10f;" horiz-adv-x="613" 
d="M529 700v-700h-22v125q-15 -29 -37 -53.5t-50 -42.5t-61.5 -28.5t-71.5 -10.5q-51 0 -94.5 17.5t-75.5 50t-50 78.5t-18 104t18 104t50 78.5t75.5 50t94.5 17.5q38 0 71.5 -10.5t61.5 -28.5t49.5 -42t35.5 -52v343h24zM505 313q-11 32 -31.5 60.5t-48.5 49.5t-62.5 33
t-73.5 12q-46 0 -85.5 -15.5t-68.5 -45t-45.5 -71.5t-16.5 -96q0 -53 16.5 -95.5t45.5 -72t68.5 -45t85.5 -15.5q39 0 73.5 12t62.5 33t48.5 49.5t31.5 60.5v146z" />
    <glyph glyph-name="dcroat" unicode="&#x111;" horiz-adv-x="613" 
d="M529 0h-22v125q-15 -29 -37 -53.5t-50 -42.5t-61.5 -28.5t-71.5 -10.5q-51 0 -94.5 17.5t-75.5 50t-50 78.5t-18 104t18 104t50 78.5t75.5 50t94.5 17.5q38 0 71.5 -10.5t61.5 -28.5t49.5 -42t35.5 -52v343h24v-700zM289 12q39 0 73.5 12t62.5 33t48.5 49.5t31.5 60.5
v146q-11 32 -31.5 60.5t-48.5 49.5t-62.5 33t-73.5 12q-46 0 -85.5 -15.5t-68.5 -45t-45.5 -71.5t-16.5 -96q0 -53 16.5 -95.5t45.5 -72t68.5 -45t85.5 -15.5z" />
    <glyph glyph-name="e" unicode="e" horiz-adv-x="545" 
d="M49 240q0 60 20 107t52.5 78.5t74.5 48t87 16.5q66 0 110.5 -25.5t69.5 -64.5t33 -85.5t1 -88.5h-424q1 -57 22 -97.5t54 -66.5t75.5 -38t88.5 -12q42 0 83 10t72 28v-24q-31 -18 -72.5 -27t-85.5 -9q-51 0 -98 14.5t-83.5 44.5t-58 77.5t-21.5 113.5zM476 248
q3 35 -4.5 73.5t-30 71t-61 54t-96.5 21.5q-41 0 -78.5 -14.5t-66.5 -42t-47 -68.5t-19 -95h403z" />
    <glyph glyph-name="eacute" unicode="&#xe9;" horiz-adv-x="545" 
d="M49 240q0 60 20 107t52.5 78.5t74.5 48t87 16.5q66 0 110.5 -25.5t69.5 -64.5t33 -85.5t1 -88.5h-424q1 -57 22 -97.5t54 -66.5t75.5 -38t88.5 -12q42 0 83 10t72 28v-24q-31 -18 -72.5 -27t-85.5 -9q-51 0 -98 14.5t-83.5 44.5t-58 77.5t-21.5 113.5zM476 248
q3 35 -4.5 73.5t-30 71t-61 54t-96.5 21.5q-41 0 -78.5 -14.5t-66.5 -42t-47 -68.5t-19 -95h403zM42 694h500v-165h-500v165zM99 567h31q23 0 35 12t12 32q0 18 -12 31t-35 13h-31v-88zM114 639h16q15 0 23 -8t8 -20q0 -29 -31 -29h-16v57zM218 582v21h46v16h-46v20h46v16
h-62v-88h62v15h-46zM383 567v88h-21l-26 -36l-26 36h-21v-88h17v66l30 -39l31 40v-67h16zM453 660q-19 0 -32 -13.5t-13 -33.5q0 -19 11 -33t34 -14q24 0 35.5 14t11.5 33q0 22 -13.5 34.5t-33.5 12.5zM423 613q0 12 7.5 22t22.5 10q16 0 23.5 -10t7.5 -22q0 -13 -7 -22.5
t-24 -9.5q-15 0 -22.5 10.5t-7.5 21.5z" />
    <glyph glyph-name="ecaron" unicode="&#x11b;" horiz-adv-x="545" 
d="M49 240q0 60 20 107t52.5 78.5t74.5 48t87 16.5q66 0 110.5 -25.5t69.5 -64.5t33 -85.5t1 -88.5h-424q1 -57 22 -97.5t54 -66.5t75.5 -38t88.5 -12q42 0 83 10t72 28v-24q-31 -18 -72.5 -27t-85.5 -9q-51 0 -98 14.5t-83.5 44.5t-58 77.5t-21.5 113.5zM476 248
q3 35 -4.5 73.5t-30 71t-61 54t-96.5 21.5q-41 0 -78.5 -14.5t-66.5 -42t-47 -68.5t-19 -95h403zM35 693h500v-165h-500v165zM92 566h31q23 0 35 12t12 32q0 18 -12 31t-35 13h-31v-88zM107 638h16q15 0 23 -8t8 -20q0 -29 -31 -29h-16v57zM211 581v21h46v16h-46v20h46v16
h-62v-88h62v15h-46zM376 566v88h-21l-26 -36l-26 36h-21v-88h17v66l30 -39l31 40v-67h16zM446 659q-19 0 -32 -13.5t-13 -33.5q0 -19 11 -33t34 -14q24 0 35.5 14t11.5 33q0 22 -13.5 34.5t-33.5 12.5zM416 612q0 12 7.5 22t22.5 10q16 0 23.5 -10t7.5 -22q0 -13 -7 -22.5
t-24 -9.5q-15 0 -22.5 10.5t-7.5 21.5z" />
    <glyph glyph-name="ecircumflex" unicode="&#xea;" horiz-adv-x="545" 
d="M49 240q0 60 20 107t52.5 78.5t74.5 48t87 16.5q66 0 110.5 -25.5t69.5 -64.5t33 -85.5t1 -88.5h-424q1 -57 22 -97.5t54 -66.5t75.5 -38t88.5 -12q42 0 83 10t72 28v-24q-31 -18 -72.5 -27t-85.5 -9q-51 0 -98 14.5t-83.5 44.5t-58 77.5t-21.5 113.5zM476 248
q3 35 -4.5 73.5t-30 71t-61 54t-96.5 21.5q-41 0 -78.5 -14.5t-66.5 -42t-47 -68.5t-19 -95h403zM16 694h500v-165h-500v165zM73 567h31q23 0 35 12t12 32q0 18 -12 31t-35 13h-31v-88zM88 639h16q15 0 23 -8t8 -20q0 -29 -31 -29h-16v57zM192 582v21h46v16h-46v20h46v16
h-62v-88h62v15h-46zM357 567v88h-21l-26 -36l-26 36h-21v-88h17v66l30 -39l31 40v-67h16zM427 660q-19 0 -32 -13.5t-13 -33.5q0 -19 11 -33t34 -14q24 0 35.5 14t11.5 33q0 22 -13.5 34.5t-33.5 12.5zM397 613q0 12 7.5 22t22.5 10q16 0 23.5 -10t7.5 -22q0 -13 -7 -22.5
t-24 -9.5q-15 0 -22.5 10.5t-7.5 21.5z" />
    <glyph glyph-name="edieresis" unicode="&#xeb;" horiz-adv-x="545" 
d="M49 240q0 60 20 107t52.5 78.5t74.5 48t87 16.5q66 0 110.5 -25.5t69.5 -64.5t33 -85.5t1 -88.5h-424q1 -57 22 -97.5t54 -66.5t75.5 -38t88.5 -12q42 0 83 10t72 28v-24q-31 -18 -72.5 -27t-85.5 -9q-51 0 -98 14.5t-83.5 44.5t-58 77.5t-21.5 113.5zM476 248
q3 35 -4.5 73.5t-30 71t-61 54t-96.5 21.5q-41 0 -78.5 -14.5t-66.5 -42t-47 -68.5t-19 -95h403zM22 694h500v-165h-500v165zM79 567h31q23 0 35 12t12 32q0 18 -12 31t-35 13h-31v-88zM94 639h16q15 0 23 -8t8 -20q0 -29 -31 -29h-16v57zM198 582v21h46v16h-46v20h46v16
h-62v-88h62v15h-46zM363 567v88h-21l-26 -36l-26 36h-21v-88h17v66l30 -39l31 40v-67h16zM433 660q-19 0 -32 -13.5t-13 -33.5q0 -19 11 -33t34 -14q24 0 35.5 14t11.5 33q0 22 -13.5 34.5t-33.5 12.5zM403 613q0 12 7.5 22t22.5 10q16 0 23.5 -10t7.5 -22q0 -13 -7 -22.5
t-24 -9.5q-15 0 -22.5 10.5t-7.5 21.5z" />
    <glyph glyph-name="edotaccent" unicode="&#x117;" horiz-adv-x="545" 
d="M49 240q0 60 20 107t52.5 78.5t74.5 48t87 16.5q66 0 110.5 -25.5t69.5 -64.5t33 -85.5t1 -88.5h-424q1 -57 22 -97.5t54 -66.5t75.5 -38t88.5 -12q42 0 83 10t72 28v-24q-31 -18 -72.5 -27t-85.5 -9q-51 0 -98 14.5t-83.5 44.5t-58 77.5t-21.5 113.5zM476 248
q3 35 -4.5 73.5t-30 71t-61 54t-96.5 21.5q-41 0 -78.5 -14.5t-66.5 -42t-47 -68.5t-19 -95h403zM17 694h500v-165h-500v165zM74 567h31q23 0 35 12t12 32q0 18 -12 31t-35 13h-31v-88zM89 639h16q15 0 23 -8t8 -20q0 -29 -31 -29h-16v57zM193 582v21h46v16h-46v20h46v16
h-62v-88h62v15h-46zM358 567v88h-21l-26 -36l-26 36h-21v-88h17v66l30 -39l31 40v-67h16zM428 660q-19 0 -32 -13.5t-13 -33.5q0 -19 11 -33t34 -14q24 0 35.5 14t11.5 33q0 22 -13.5 34.5t-33.5 12.5zM398 613q0 12 7.5 22t22.5 10q16 0 23.5 -10t7.5 -22q0 -13 -7 -22.5
t-24 -9.5q-15 0 -22.5 10.5t-7.5 21.5z" />
    <glyph glyph-name="egrave" unicode="&#xe8;" horiz-adv-x="545" 
d="M49 240q0 60 20 107t52.5 78.5t74.5 48t87 16.5q66 0 110.5 -25.5t69.5 -64.5t33 -85.5t1 -88.5h-424q1 -57 22 -97.5t54 -66.5t75.5 -38t88.5 -12q42 0 83 10t72 28v-24q-31 -18 -72.5 -27t-85.5 -9q-51 0 -98 14.5t-83.5 44.5t-58 77.5t-21.5 113.5zM476 248
q3 35 -4.5 73.5t-30 71t-61 54t-96.5 21.5q-41 0 -78.5 -14.5t-66.5 -42t-47 -68.5t-19 -95h403zM27 693h500v-165h-500v165zM84 566h31q23 0 35 12t12 32q0 18 -12 31t-35 13h-31v-88zM99 638h16q15 0 23 -8t8 -20q0 -29 -31 -29h-16v57zM203 581v21h46v16h-46v20h46v16
h-62v-88h62v15h-46zM368 566v88h-21l-26 -36l-26 36h-21v-88h17v66l30 -39l31 40v-67h16zM438 659q-19 0 -32 -13.5t-13 -33.5q0 -19 11 -33t34 -14q24 0 35.5 14t11.5 33q0 22 -13.5 34.5t-33.5 12.5zM408 612q0 12 7.5 22t22.5 10q16 0 23.5 -10t7.5 -22q0 -13 -7 -22.5
t-24 -9.5q-15 0 -22.5 10.5t-7.5 21.5z" />
    <glyph glyph-name="emacron" unicode="&#x113;" horiz-adv-x="545" 
d="M49 240q0 60 20 107t52.5 78.5t74.5 48t87 16.5q66 0 110.5 -25.5t69.5 -64.5t33 -85.5t1 -88.5h-424q1 -57 22 -97.5t54 -66.5t75.5 -38t88.5 -12q42 0 83 10t72 28v-24q-31 -18 -72.5 -27t-85.5 -9q-51 0 -98 14.5t-83.5 44.5t-58 77.5t-21.5 113.5zM476 248
q3 35 -4.5 73.5t-30 71t-61 54t-96.5 21.5q-41 0 -78.5 -14.5t-66.5 -42t-47 -68.5t-19 -95h403zM22 694h500v-165h-500v165zM79 567h31q23 0 35 12t12 32q0 18 -12 31t-35 13h-31v-88zM94 639h16q15 0 23 -8t8 -20q0 -29 -31 -29h-16v57zM198 582v21h46v16h-46v20h46v16
h-62v-88h62v15h-46zM363 567v88h-21l-26 -36l-26 36h-21v-88h17v66l30 -39l31 40v-67h16zM433 660q-19 0 -32 -13.5t-13 -33.5q0 -19 11 -33t34 -14q24 0 35.5 14t11.5 33q0 22 -13.5 34.5t-33.5 12.5zM403 613q0 12 7.5 22t22.5 10q16 0 23.5 -10t7.5 -22q0 -13 -7 -22.5
t-24 -9.5q-15 0 -22.5 10.5t-7.5 21.5z" />
    <glyph glyph-name="eogonek" unicode="&#x119;" horiz-adv-x="545" 
d="M49 240q0 60 20 107t52.5 78.5t74.5 48t87 16.5q66 0 110.5 -25.5t69.5 -64.5t33 -85.5t1 -88.5h-424q1 -57 22 -97.5t54 -66.5t75.5 -38t88.5 -12q42 0 83 10t72 28v-24q-31 -18 -72.5 -27t-85.5 -9q-51 0 -98 14.5t-83.5 44.5t-58 77.5t-21.5 113.5zM476 248
q3 35 -4.5 73.5t-30 71t-61 54t-96.5 21.5q-41 0 -78.5 -14.5t-66.5 -42t-47 -68.5t-19 -95h403z" />
    <glyph glyph-name="f" unicode="f" horiz-adv-x="347" 
d="M106 0v457h-82v23h82v83q0 41 13 69t34 45.5t48.5 25t56.5 7.5q33 0 63.5 -6t50.5 -17v-23q-19 11 -49 17.5t-61 6.5q-26 0 -50 -6.5t-42 -21.5t-29 -39t-11 -59v-82h213v-23h-213v-457h-24z" />
    <glyph glyph-name="g" unicode="g" horiz-adv-x="613" 
d="M49 240q0 58 18 104t50 78.5t75.5 50t94.5 17.5q38 0 71.5 -10.5t61.5 -28.5t50 -43t37 -53v125h22v-480q0 -61 -21 -104.5t-56 -71.5t-80.5 -41t-93.5 -13q-51 0 -98 11.5t-90 33.5v24q44 -23 89.5 -35t96.5 -12q45 0 86.5 12t73 37t50.5 64.5t19 94.5v124
q-14 -28 -35.5 -52.5t-49.5 -42.5t-61.5 -28.5t-71.5 -10.5q-51 0 -94.5 17.5t-75.5 50t-50 78.5t-18 104zM505 313q-11 32 -31.5 60.5t-48.5 49.5t-62.5 33t-73.5 12q-46 0 -85.5 -15.5t-68.5 -45t-45.5 -71.5t-16.5 -96q0 -53 16.5 -95.5t45.5 -72t68.5 -45t85.5 -15.5
q39 0 73.5 12t62.5 32.5t48.5 48.5t31.5 60v148z" />
    <glyph glyph-name="gbreve" unicode="&#x11f;" horiz-adv-x="613" 
d="M49 240q0 58 18 104t50 78.5t75.5 50t94.5 17.5q38 0 71.5 -10.5t61.5 -28.5t50 -43t37 -53v125h22v-480q0 -61 -21 -104.5t-56 -71.5t-80.5 -41t-93.5 -13q-51 0 -98 11.5t-90 33.5v24q44 -23 89.5 -35t96.5 -12q45 0 86.5 12t73 37t50.5 64.5t19 94.5v124
q-14 -28 -35.5 -52.5t-49.5 -42.5t-61.5 -28.5t-71.5 -10.5q-51 0 -94.5 17.5t-75.5 50t-50 78.5t-18 104zM505 313q-11 32 -31.5 60.5t-48.5 49.5t-62.5 33t-73.5 12q-46 0 -85.5 -15.5t-68.5 -45t-45.5 -71.5t-16.5 -96q0 -53 16.5 -95.5t45.5 -72t68.5 -45t85.5 -15.5
q39 0 73.5 12t62.5 32.5t48.5 48.5t31.5 60v148zM34 694h500v-165h-500v165zM91 567h31q23 0 35 12t12 32q0 18 -12 31t-35 13h-31v-88zM106 639h16q15 0 23 -8t8 -20q0 -29 -31 -29h-16v57zM210 582v21h46v16h-46v20h46v16h-62v-88h62v15h-46zM375 567v88h-21l-26 -36
l-26 36h-21v-88h17v66l30 -39l31 40v-67h16zM445 660q-19 0 -32 -13.5t-13 -33.5q0 -19 11 -33t34 -14q24 0 35.5 14t11.5 33q0 22 -13.5 34.5t-33.5 12.5zM415 613q0 12 7.5 22t22.5 10q16 0 23.5 -10t7.5 -22q0 -13 -7 -22.5t-24 -9.5q-15 0 -22.5 10.5t-7.5 21.5z" />
    <glyph glyph-name="gcommaaccent" unicode="&#x123;" horiz-adv-x="613" 
d="M49 240q0 58 18 104t50 78.5t75.5 50t94.5 17.5q38 0 71.5 -10.5t61.5 -28.5t50 -43t37 -53v125h22v-480q0 -61 -21 -104.5t-56 -71.5t-80.5 -41t-93.5 -13q-51 0 -98 11.5t-90 33.5v24q44 -23 89.5 -35t96.5 -12q45 0 86.5 12t73 37t50.5 64.5t19 94.5v124
q-14 -28 -35.5 -52.5t-49.5 -42.5t-61.5 -28.5t-71.5 -10.5q-51 0 -94.5 17.5t-75.5 50t-50 78.5t-18 104zM505 313q-11 32 -31.5 60.5t-48.5 49.5t-62.5 33t-73.5 12q-46 0 -85.5 -15.5t-68.5 -45t-45.5 -71.5t-16.5 -96q0 -53 16.5 -95.5t45.5 -72t68.5 -45t85.5 -15.5
q39 0 73.5 12t62.5 32.5t48.5 48.5t31.5 60v148z" />
    <glyph glyph-name="gdotaccent" unicode="&#x121;" horiz-adv-x="613" 
d="M49 240q0 58 18 104t50 78.5t75.5 50t94.5 17.5q38 0 71.5 -10.5t61.5 -28.5t50 -43t37 -53v125h22v-480q0 -61 -21 -104.5t-56 -71.5t-80.5 -41t-93.5 -13q-51 0 -98 11.5t-90 33.5v24q44 -23 89.5 -35t96.5 -12q45 0 86.5 12t73 37t50.5 64.5t19 94.5v124
q-14 -28 -35.5 -52.5t-49.5 -42.5t-61.5 -28.5t-71.5 -10.5q-51 0 -94.5 17.5t-75.5 50t-50 78.5t-18 104zM505 313q-11 32 -31.5 60.5t-48.5 49.5t-62.5 33t-73.5 12q-46 0 -85.5 -15.5t-68.5 -45t-45.5 -71.5t-16.5 -96q0 -53 16.5 -95.5t45.5 -72t68.5 -45t85.5 -15.5
q39 0 73.5 12t62.5 32.5t48.5 48.5t31.5 60v148zM24 694h500v-165h-500v165zM81 567h31q23 0 35 12t12 32q0 18 -12 31t-35 13h-31v-88zM96 639h16q15 0 23 -8t8 -20q0 -29 -31 -29h-16v57zM200 582v21h46v16h-46v20h46v16h-62v-88h62v15h-46zM365 567v88h-21l-26 -36
l-26 36h-21v-88h17v66l30 -39l31 40v-67h16zM435 660q-19 0 -32 -13.5t-13 -33.5q0 -19 11 -33t34 -14q24 0 35.5 14t11.5 33q0 22 -13.5 34.5t-33.5 12.5zM405 613q0 12 7.5 22t22.5 10q16 0 23.5 -10t7.5 -22q0 -13 -7 -22.5t-24 -9.5q-15 0 -22.5 10.5t-7.5 21.5z" />
    <glyph glyph-name="h" unicode="h" horiz-adv-x="574" 
d="M108 700v-326q12 18 31 38.5t44.5 38t57.5 28.5t70 11q39 0 73 -13t59 -38t39.5 -61.5t14.5 -82.5v-295h-24v293q0 42 -12.5 75t-35 55t-52.5 33.5t-64 11.5q-38 0 -70 -12t-57 -30.5t-43.5 -41.5t-30.5 -45v-339h-24v700h24z" />
    <glyph glyph-name="hbar" unicode="&#x127;" horiz-adv-x="574" 
d="M108 374q12 18 31 38.5t44.5 38t57 28.5t69.5 11q39 0 73.5 -13t59.5 -38t39.5 -61.5t14.5 -82.5v-295h-24v293q0 42 -12.5 75t-35 55t-52.5 33.5t-64 11.5q-38 0 -70 -12t-57 -30.5t-43.5 -41.5t-30.5 -45v-339h-24v700h24v-326v0z" />
    <glyph glyph-name="i" unicode="i" horiz-adv-x="198" 
d="M87 0v480h24v-480h-24zM119 615q0 -10 -6 -14.5t-14 -4.5t-14 4.5t-6 14.5t6 15t14 5t14 -5t6 -15z" />
    <glyph glyph-name="dotlessi" unicode="&#x131;" horiz-adv-x="198" 
d="M111 480v-480h-24v480h24z" />
    <glyph glyph-name="iacute" unicode="&#xed;" horiz-adv-x="199" 
d="M111 480v-480h-24v480h24zM-141 694h500v-165h-500v165zM-84 567h31q23 0 35 12t12 32q0 18 -12 31t-35 13h-31v-88zM-69 639h16q15 0 23 -8t8 -20q0 -29 -31 -29h-16v57zM35 582v21h46v16h-46v20h46v16h-62v-88h62v15h-46zM200 567v88h-21l-26 -36l-26 36h-21v-88h17v66
l30 -39l31 40v-67h16zM270 660q-19 0 -32 -13.5t-13 -33.5q0 -19 11 -33t34 -14q24 0 35.5 14t11.5 33q0 22 -13.5 34.5t-33.5 12.5zM240 613q0 12 7.5 22t22.5 10q16 0 23.5 -10t7.5 -22q0 -13 -7 -22.5t-24 -9.5q-15 0 -22.5 10.5t-7.5 21.5z" />
    <glyph glyph-name="icircumflex" unicode="&#xee;" horiz-adv-x="200" 
d="M112 480v-480h-24v480h24z" />
    <glyph glyph-name="idieresis" unicode="&#xef;" horiz-adv-x="200" 
d="M112 480v-480h-24v480h24z" />
    <glyph glyph-name="i.loclTRK" horiz-adv-x="198" 
d="M111 480v-480h-24v480h24zM-166 694h500v-165h-500v165zM-109 567h31q23 0 35 12t12 32q0 18 -12 31t-35 13h-31v-88zM-94 639h16q15 0 23 -8t8 -20q0 -29 -31 -29h-16v57zM10 582v21h46v16h-46v20h46v16h-62v-88h62v15h-46zM175 567v88h-21l-26 -36l-26 36h-21v-88h17
v66l30 -39l31 40v-67h16zM245 660q-19 0 -32 -13.5t-13 -33.5q0 -19 11 -33t34 -14q24 0 35.5 14t11.5 33q0 22 -13.5 34.5t-33.5 12.5zM215 613q0 12 7.5 22t22.5 10q16 0 23.5 -10t7.5 -22q0 -13 -7 -22.5t-24 -9.5q-15 0 -22.5 10.5t-7.5 21.5z" />
    <glyph glyph-name="igrave" unicode="&#xec;" horiz-adv-x="199" 
d="M88 0v480h24v-480h-24z" />
    <glyph glyph-name="ij" unicode="&#x133;" horiz-adv-x="396" 
d="M87 0v480h24v-480h-24zM119 615q0 -10 -6 -14.5t-14 -4.5t-14 4.5t-6 14.5t6 15t14 5t14 -5t6 -15zM309 -116q0 -33 -10.5 -55t-27 -35t-37.5 -18.5t-42 -5.5q-37 0 -68 11v23q30 -11 64 -11q18 0 35.5 4.5t31 15t22 28.5t8.5 45v594h24v-596zM317 615q0 -10 -6 -14.5
t-14 -4.5t-14 4.5t-6 14.5t6 15t14 5t14 -5t6 -15z" />
    <glyph glyph-name="imacron" unicode="&#x12b;" horiz-adv-x="200" 
d="M112 480v-480h-24v480h24z" />
    <glyph glyph-name="iogonek" unicode="&#x12f;" horiz-adv-x="198" 
d="M87 0v480h24v-480h-24zM119 615q0 -10 -6 -14.5t-14 -4.5t-14 4.5t-6 14.5t6 15t14 5t14 -5t6 -15z" />
    <glyph glyph-name="j" unicode="j" horiz-adv-x="198" 
d="M111 -116q0 -33 -10.5 -55t-27 -35t-37.5 -18.5t-42 -5.5q-37 0 -68 11v23q30 -11 64 -11q18 0 35.5 4.5t31 15t22 28.5t8.5 45v594h24v-596zM119 615q0 -10 -6 -14.5t-14 -4.5t-14 4.5t-6 14.5t6 15t14 5t14 -5t6 -15z" />
    <glyph glyph-name="k" unicode="k" horiz-adv-x="490" 
d="M457 0l-220 237h-129v-237h-24v700h24v-440h131l190 220h29l-200 -233l228 -247h-29z" />
    <glyph glyph-name="kcommaaccent" unicode="&#x137;" horiz-adv-x="490" 
d="M457 0l-220 237h-129v-237h-24v700h24v-440h131l190 220h29l-200 -233l228 -247h-29zM19 -25h500v-165h-500v165zM76 -152h31q23 0 35 12t12 32q0 18 -12 31t-35 13h-31v-88zM91 -80h16q15 0 23 -8t8 -20q0 -29 -31 -29h-16v57zM195 -137v21h46v16h-46v20h46v16h-62v-88
h62v15h-46zM360 -152v88h-21l-26 -36l-26 36h-21v-88h17v66l30 -39l31 40v-67h16zM430 -59q-19 0 -32 -13.5t-13 -33.5q0 -19 11 -33t34 -14q24 0 35.5 14t11.5 33q0 22 -13.5 34.5t-33.5 12.5zM400 -106q0 12 7.5 22t22.5 10q16 0 23.5 -10t7.5 -22q0 -13 -7 -22.5
t-24 -9.5q-15 0 -22.5 10.5t-7.5 21.5z" />
    <glyph glyph-name="l" unicode="l" horiz-adv-x="198" 
d="M111 730v-730h-24v730h24z" />
    <glyph glyph-name="lacute" unicode="&#x13a;" horiz-adv-x="198" 
d="M111 730v-730h-24v730h24zM-134 922h500v-165h-500v165zM-77 795h31q23 0 35 12t12 32q0 18 -12 31t-35 13h-31v-88zM-62 867h16q15 0 23 -8t8 -20q0 -29 -31 -29h-16v57zM42 810v21h46v16h-46v20h46v16h-62v-88h62v15h-46zM207 795v88h-21l-26 -36l-26 36h-21v-88h17v66
l30 -39l31 40v-67h16zM277 888q-19 0 -32 -13.5t-13 -33.5q0 -19 11 -33t34 -14q24 0 35.5 14t11.5 33q0 22 -13.5 34.5t-33.5 12.5zM247 841q0 12 7.5 22t22.5 10q16 0 23.5 -10t7.5 -22q0 -13 -7 -22.5t-24 -9.5q-15 0 -22.5 10.5t-7.5 21.5z" />
    <glyph glyph-name="lcaron" unicode="&#x13e;" horiz-adv-x="199" 
d="M111 730v-730h-24v730h24z" />
    <glyph glyph-name="lcommaaccent" unicode="&#x13c;" horiz-adv-x="198" 
d="M111 730v-730h-24v730h24zM-151 -25h500v-165h-500v165zM-94 -152h31q23 0 35 12t12 32q0 18 -12 31t-35 13h-31v-88zM-79 -80h16q15 0 23 -8t8 -20q0 -29 -31 -29h-16v57zM25 -137v21h46v16h-46v20h46v16h-62v-88h62v15h-46zM190 -152v88h-21l-26 -36l-26 36h-21v-88h17
v66l30 -39l31 40v-67h16zM260 -59q-19 0 -32 -13.5t-13 -33.5q0 -19 11 -33t34 -14q24 0 35.5 14t11.5 33q0 22 -13.5 34.5t-33.5 12.5zM230 -106q0 12 7.5 22t22.5 10q16 0 23.5 -10t7.5 -22q0 -13 -7 -22.5t-24 -9.5q-15 0 -22.5 10.5t-7.5 21.5z" />
    <glyph glyph-name="ldot" unicode="&#x140;" horiz-adv-x="231" 
d="M111 730v-730h-24v730h24zM193 111v700h232v-700h-232zM369 188v48q0 32 -19 46.5t-42 13.5q-23 0 -41.5 -14t-18.5 -46v-48h121zM270 236q-1 20 11.5 28t26.5 10q14 0 27 -8.5t13 -29.5v-26h-78v26zM348 354h-28v65h-21v-65h-28v67h-23v-90h121v90h-21v-67zM369 588
h-121v-26l53 -39l-53 -37v-26h121v22h-87l53 39v4l-53 41h87v22zM245 685q0 -26 18 -44t47 -18q23 0 43 15t20 47t-20.5 46.5t-43.5 15.5q-23 0 -43.5 -15t-20.5 -47zM310 645q-18 -1 -31 9.5t-12 30.5q0 22 14 31t29 9q15 -2 28 -10t13 -30t-13 -31t-28 -9z" />
    <glyph glyph-name="lslash" unicode="&#x142;" horiz-adv-x="198" 
d="M111 730v-730h-24v730h24z" />
    <glyph glyph-name="m" unicode="m" horiz-adv-x="894" 
d="M84 0v480h22v-102q12 18 30 37.5t42 36t54 27.5t65 11q58 0 99.5 -29.5t58.5 -79.5q13 18 32 37.5t43 35t53 26t63 10.5q38 0 69.5 -13t54 -36.5t34.5 -56t12 -71.5v-313h-24v312q0 33 -10 61.5t-29.5 49.5t-47 33t-61.5 12q-32 0 -60 -10.5t-50.5 -26.5t-40.5 -36.5
t-30 -39.5q4 -17 4 -42v-313h-24v312q0 33 -10 61.5t-29.5 49.5t-47 33t-61.5 12t-63 -11.5t-53 -29.5t-41.5 -40t-29.5 -42v-345h-24z" />
    <glyph glyph-name="n" unicode="n" horiz-adv-x="574" 
d="M106 372q12 19 31 39.5t45 38t58 29t71 11.5t73 -13t59 -38t39.5 -61.5t14.5 -82.5v-295h-24v293q0 42 -12.5 75t-35 55t-52.5 33.5t-64 11.5q-38 0 -70 -12t-57 -30.5t-43.5 -41.5t-30.5 -45v-339h-24v480h22v-108v0z" />
    <glyph glyph-name="nacute" unicode="&#x144;" horiz-adv-x="574" 
d="M106 372q12 19 31 39.5t45 38t58 29t71 11.5t73 -13t59 -38t39.5 -61.5t14.5 -82.5v-295h-24v293q0 42 -12.5 75t-35 55t-52.5 33.5t-64 11.5q-38 0 -70 -12t-57 -30.5t-43.5 -41.5t-30.5 -45v-339h-24v480h22v-108v0zM45 694h500v-165h-500v165zM102 567h31q23 0 35 12
t12 32q0 18 -12 31t-35 13h-31v-88zM117 639h16q15 0 23 -8t8 -20q0 -29 -31 -29h-16v57zM221 582v21h46v16h-46v20h46v16h-62v-88h62v15h-46zM386 567v88h-21l-26 -36l-26 36h-21v-88h17v66l30 -39l31 40v-67h16zM456 660q-19 0 -32 -13.5t-13 -33.5q0 -19 11 -33t34 -14
q24 0 35.5 14t11.5 33q0 22 -13.5 34.5t-33.5 12.5zM426 613q0 12 7.5 22t22.5 10q16 0 23.5 -10t7.5 -22q0 -13 -7 -22.5t-24 -9.5q-15 0 -22.5 10.5t-7.5 21.5z" />
    <glyph glyph-name="ncaron" unicode="&#x148;" horiz-adv-x="574" 
d="M106 372q12 19 31 39.5t45 38t58 29t71 11.5t73 -13t59 -38t39.5 -61.5t14.5 -82.5v-295h-24v293q0 42 -12.5 75t-35 55t-52.5 33.5t-64 11.5q-38 0 -70 -12t-57 -30.5t-43.5 -41.5t-30.5 -45v-339h-24v480h22v-108v0zM38 693h500v-165h-500v165zM95 566h31q23 0 35 12
t12 32q0 18 -12 31t-35 13h-31v-88zM110 638h16q15 0 23 -8t8 -20q0 -29 -31 -29h-16v57zM214 581v21h46v16h-46v20h46v16h-62v-88h62v15h-46zM379 566v88h-21l-26 -36l-26 36h-21v-88h17v66l30 -39l31 40v-67h16zM449 659q-19 0 -32 -13.5t-13 -33.5q0 -19 11 -33t34 -14
q24 0 35.5 14t11.5 33q0 22 -13.5 34.5t-33.5 12.5zM419 612q0 12 7.5 22t22.5 10q16 0 23.5 -10t7.5 -22q0 -13 -7 -22.5t-24 -9.5q-15 0 -22.5 10.5t-7.5 21.5z" />
    <glyph glyph-name="ncommaaccent" unicode="&#x146;" horiz-adv-x="574" 
d="M106 372q12 19 31 39.5t45 38t58 29t71 11.5t73 -13t59 -38t39.5 -61.5t14.5 -82.5v-295h-24v293q0 42 -12.5 75t-35 55t-52.5 33.5t-64 11.5q-38 0 -70 -12t-57 -30.5t-43.5 -41.5t-30.5 -45v-339h-24v480h22v-108v0zM45 -25h500v-165h-500v165zM102 -152h31q23 0 35 12
t12 32q0 18 -12 31t-35 13h-31v-88zM117 -80h16q15 0 23 -8t8 -20q0 -29 -31 -29h-16v57zM221 -137v21h46v16h-46v20h46v16h-62v-88h62v15h-46zM386 -152v88h-21l-26 -36l-26 36h-21v-88h17v66l30 -39l31 40v-67h16zM456 -59q-19 0 -32 -13.5t-13 -33.5q0 -19 11 -33t34 -14
q24 0 35.5 14t11.5 33q0 22 -13.5 34.5t-33.5 12.5zM426 -106q0 12 7.5 22t22.5 10q16 0 23.5 -10t7.5 -22q0 -13 -7 -22.5t-24 -9.5q-15 0 -22.5 10.5t-7.5 21.5z" />
    <glyph glyph-name="eng" unicode="&#x14b;" horiz-adv-x="574" 
d="M106 372q12 19 31 39.5t45 38t58 29t71 11.5t73 -13t59 -38t39.5 -61.5t14.5 -82.5v-295h-24v293q0 42 -12.5 75t-35 55t-52.5 33.5t-64 11.5q-38 0 -70 -12t-57 -30.5t-43.5 -41.5t-30.5 -45v-339h-24v480h22v-108v0z" />
    <glyph glyph-name="ntilde" unicode="&#xf1;" horiz-adv-x="574" 
d="M106 372q12 19 31 39.5t45 38t58 29t71 11.5t73 -13t59 -38t39.5 -61.5t14.5 -82.5v-295h-24v293q0 42 -12.5 75t-35 55t-52.5 33.5t-64 11.5q-38 0 -70 -12t-57 -30.5t-43.5 -41.5t-30.5 -45v-339h-24v480h22v-108v0zM18 694h500v-165h-500v165zM75 567h31q23 0 35 12
t12 32q0 18 -12 31t-35 13h-31v-88zM90 639h16q15 0 23 -8t8 -20q0 -29 -31 -29h-16v57zM194 582v21h46v16h-46v20h46v16h-62v-88h62v15h-46zM359 567v88h-21l-26 -36l-26 36h-21v-88h17v66l30 -39l31 40v-67h16zM429 660q-19 0 -32 -13.5t-13 -33.5q0 -19 11 -33t34 -14
q24 0 35.5 14t11.5 33q0 22 -13.5 34.5t-33.5 12.5zM399 613q0 12 7.5 22t22.5 10q16 0 23.5 -10t7.5 -22q0 -13 -7 -22.5t-24 -9.5q-15 0 -22.5 10.5t-7.5 21.5z" />
    <glyph glyph-name="o" unicode="o" horiz-adv-x="592" 
d="M49 240q0 60 20.5 106.5t54.5 78.5t79 48.5t93 16.5q49 0 93.5 -16.5t78.5 -48.5t54.5 -78.5t20.5 -106.5t-20.5 -106.5t-54.5 -78.5t-78.5 -48.5t-93.5 -16.5q-48 0 -93 16.5t-79 48.5t-54.5 78.5t-20.5 106.5zM519 240q0 54 -18 96.5t-49 71.5t-71 44t-85 15t-85 -15
t-71 -44t-49 -71.5t-18 -96.5t18 -96.5t49 -71.5t71 -44t85 -15t85 15t71 44t49 71.5t18 96.5z" />
    <glyph glyph-name="oacute" unicode="&#xf3;" horiz-adv-x="592" 
d="M49 240q0 60 20.5 106.5t54.5 78.5t79 48.5t93 16.5q49 0 93.5 -16.5t78.5 -48.5t54.5 -78.5t20.5 -106.5t-20.5 -106.5t-54.5 -78.5t-78.5 -48.5t-93.5 -16.5q-48 0 -93 16.5t-79 48.5t-54.5 78.5t-20.5 106.5zM519 240q0 54 -18 96.5t-49 71.5t-71 44t-85 15t-85 -15
t-71 -44t-49 -71.5t-18 -96.5t18 -96.5t49 -71.5t71 -44t85 -15t85 15t71 44t49 71.5t18 96.5zM56 686h500v-165h-500v165zM113 559h31q23 0 35 12t12 32q0 18 -12 31t-35 13h-31v-88zM128 631h16q15 0 23 -8t8 -20q0 -29 -31 -29h-16v57zM232 574v21h46v16h-46v20h46v16
h-62v-88h62v15h-46zM397 559v88h-21l-26 -36l-26 36h-21v-88h17v66l30 -39l31 40v-67h16zM467 652q-19 0 -32 -13.5t-13 -33.5q0 -19 11 -33t34 -14q24 0 35.5 14t11.5 33q0 22 -13.5 34.5t-33.5 12.5zM437 605q0 12 7.5 22t22.5 10q16 0 23.5 -10t7.5 -22q0 -13 -7 -22.5
t-24 -9.5q-15 0 -22.5 10.5t-7.5 21.5z" />
    <glyph glyph-name="ocircumflex" unicode="&#xf4;" horiz-adv-x="592" 
d="M49 240q0 60 20.5 106.5t54.5 78.5t79 48.5t93 16.5q49 0 93.5 -16.5t78.5 -48.5t54.5 -78.5t20.5 -106.5t-20.5 -106.5t-54.5 -78.5t-78.5 -48.5t-93.5 -16.5q-48 0 -93 16.5t-79 48.5t-54.5 78.5t-20.5 106.5zM519 240q0 54 -18 96.5t-49 71.5t-71 44t-85 15t-85 -15
t-71 -44t-49 -71.5t-18 -96.5t18 -96.5t49 -71.5t71 -44t85 -15t85 15t71 44t49 71.5t18 96.5zM30 686h500v-165h-500v165zM87 559h31q23 0 35 12t12 32q0 18 -12 31t-35 13h-31v-88zM102 631h16q15 0 23 -8t8 -20q0 -29 -31 -29h-16v57zM206 574v21h46v16h-46v20h46v16h-62
v-88h62v15h-46zM371 559v88h-21l-26 -36l-26 36h-21v-88h17v66l30 -39l31 40v-67h16zM441 652q-19 0 -32 -13.5t-13 -33.5q0 -19 11 -33t34 -14q24 0 35.5 14t11.5 33q0 22 -13.5 34.5t-33.5 12.5zM411 605q0 12 7.5 22t22.5 10q16 0 23.5 -10t7.5 -22q0 -13 -7 -22.5
t-24 -9.5q-15 0 -22.5 10.5t-7.5 21.5z" />
    <glyph glyph-name="odieresis" unicode="&#xf6;" horiz-adv-x="592" 
d="M49 240q0 60 20.5 106.5t54.5 78.5t79 48.5t93 16.5q49 0 93.5 -16.5t78.5 -48.5t54.5 -78.5t20.5 -106.5t-20.5 -106.5t-54.5 -78.5t-78.5 -48.5t-93.5 -16.5q-48 0 -93 16.5t-79 48.5t-54.5 78.5t-20.5 106.5zM519 240q0 54 -18 96.5t-49 71.5t-71 44t-85 15t-85 -15
t-71 -44t-49 -71.5t-18 -96.5t18 -96.5t49 -71.5t71 -44t85 -15t85 15t71 44t49 71.5t18 96.5zM36 686h500v-165h-500v165zM93 559h31q23 0 35 12t12 32q0 18 -12 31t-35 13h-31v-88zM108 631h16q15 0 23 -8t8 -20q0 -29 -31 -29h-16v57zM212 574v21h46v16h-46v20h46v16h-62
v-88h62v15h-46zM377 559v88h-21l-26 -36l-26 36h-21v-88h17v66l30 -39l31 40v-67h16zM447 652q-19 0 -32 -13.5t-13 -33.5q0 -19 11 -33t34 -14q24 0 35.5 14t11.5 33q0 22 -13.5 34.5t-33.5 12.5zM417 605q0 12 7.5 22t22.5 10q16 0 23.5 -10t7.5 -22q0 -13 -7 -22.5
t-24 -9.5q-15 0 -22.5 10.5t-7.5 21.5z" />
    <glyph glyph-name="ograve" unicode="&#xf2;" horiz-adv-x="592" 
d="M49 240q0 60 20.5 106.5t54.5 78.5t79 48.5t93 16.5q49 0 93.5 -16.5t78.5 -48.5t54.5 -78.5t20.5 -106.5t-20.5 -106.5t-54.5 -78.5t-78.5 -48.5t-93.5 -16.5q-48 0 -93 16.5t-79 48.5t-54.5 78.5t-20.5 106.5zM519 240q0 54 -18 96.5t-49 71.5t-71 44t-85 15t-85 -15
t-71 -44t-49 -71.5t-18 -96.5t18 -96.5t49 -71.5t71 -44t85 -15t85 15t71 44t49 71.5t18 96.5zM41 685h500v-165h-500v165zM98 558h31q23 0 35 12t12 32q0 18 -12 31t-35 13h-31v-88zM113 630h16q15 0 23 -8t8 -20q0 -29 -31 -29h-16v57zM217 573v21h46v16h-46v20h46v16h-62
v-88h62v15h-46zM382 558v88h-21l-26 -36l-26 36h-21v-88h17v66l30 -39l31 40v-67h16zM452 651q-19 0 -32 -13.5t-13 -33.5q0 -19 11 -33t34 -14q24 0 35.5 14t11.5 33q0 22 -13.5 34.5t-33.5 12.5zM422 604q0 12 7.5 22t22.5 10q16 0 23.5 -10t7.5 -22q0 -13 -7 -22.5
t-24 -9.5q-15 0 -22.5 10.5t-7.5 21.5z" />
    <glyph glyph-name="ohungarumlaut" unicode="&#x151;" horiz-adv-x="592" 
d="M49 240q0 60 20.5 106.5t54.5 78.5t79 48.5t93 16.5q49 0 93.5 -16.5t78.5 -48.5t54.5 -78.5t20.5 -106.5t-20.5 -106.5t-54.5 -78.5t-78.5 -48.5t-93.5 -16.5q-48 0 -93 16.5t-79 48.5t-54.5 78.5t-20.5 106.5zM519 240q0 54 -18 96.5t-49 71.5t-71 44t-85 15t-85 -15
t-71 -44t-49 -71.5t-18 -96.5t18 -96.5t49 -71.5t71 -44t85 -15t85 15t71 44t49 71.5t18 96.5zM46 686h500v-165h-500v165zM103 559h31q23 0 35 12t12 32q0 18 -12 31t-35 13h-31v-88zM118 631h16q15 0 23 -8t8 -20q0 -29 -31 -29h-16v57zM222 574v21h46v16h-46v20h46v16
h-62v-88h62v15h-46zM387 559v88h-21l-26 -36l-26 36h-21v-88h17v66l30 -39l31 40v-67h16zM457 652q-19 0 -32 -13.5t-13 -33.5q0 -19 11 -33t34 -14q24 0 35.5 14t11.5 33q0 22 -13.5 34.5t-33.5 12.5zM427 605q0 12 7.5 22t22.5 10q16 0 23.5 -10t7.5 -22q0 -13 -7 -22.5
t-24 -9.5q-15 0 -22.5 10.5t-7.5 21.5z" />
    <glyph glyph-name="omacron" unicode="&#x14d;" horiz-adv-x="592" 
d="M49 240q0 60 20.5 106.5t54.5 78.5t79 48.5t93 16.5q49 0 93.5 -16.5t78.5 -48.5t54.5 -78.5t20.5 -106.5t-20.5 -106.5t-54.5 -78.5t-78.5 -48.5t-93.5 -16.5q-48 0 -93 16.5t-79 48.5t-54.5 78.5t-20.5 106.5zM519 240q0 54 -18 96.5t-49 71.5t-71 44t-85 15t-85 -15
t-71 -44t-49 -71.5t-18 -96.5t18 -96.5t49 -71.5t71 -44t85 -15t85 15t71 44t49 71.5t18 96.5zM36 686h500v-165h-500v165zM93 559h31q23 0 35 12t12 32q0 18 -12 31t-35 13h-31v-88zM108 631h16q15 0 23 -8t8 -20q0 -29 -31 -29h-16v57zM212 574v21h46v16h-46v20h46v16h-62
v-88h62v15h-46zM377 559v88h-21l-26 -36l-26 36h-21v-88h17v66l30 -39l31 40v-67h16zM447 652q-19 0 -32 -13.5t-13 -33.5q0 -19 11 -33t34 -14q24 0 35.5 14t11.5 33q0 22 -13.5 34.5t-33.5 12.5zM417 605q0 12 7.5 22t22.5 10q16 0 23.5 -10t7.5 -22q0 -13 -7 -22.5
t-24 -9.5q-15 0 -22.5 10.5t-7.5 21.5z" />
    <glyph glyph-name="oslash" unicode="&#xf8;" horiz-adv-x="592" 
d="M49 240q0 60 20.5 106.5t54.5 78.5t79 48.5t93 16.5q49 0 93.5 -16.5t78.5 -48.5t54.5 -78.5t20.5 -106.5t-20.5 -106.5t-54.5 -78.5t-78.5 -48.5t-93.5 -16.5q-48 0 -93 16.5t-79 48.5t-54.5 78.5t-20.5 106.5zM519 240q0 54 -18 96.5t-49 71.5t-71 44t-85 15t-85 -15
t-71 -44t-49 -71.5t-18 -96.5t18 -96.5t49 -71.5t71 -44t85 -15t85 15t71 44t49 71.5t18 96.5z" />
    <glyph glyph-name="otilde" unicode="&#xf5;" horiz-adv-x="592" 
d="M49 240q0 60 20.5 106.5t54.5 78.5t79 48.5t93 16.5q49 0 93.5 -16.5t78.5 -48.5t54.5 -78.5t20.5 -106.5t-20.5 -106.5t-54.5 -78.5t-78.5 -48.5t-93.5 -16.5q-48 0 -93 16.5t-79 48.5t-54.5 78.5t-20.5 106.5zM519 240q0 54 -18 96.5t-49 71.5t-71 44t-85 15t-85 -15
t-71 -44t-49 -71.5t-18 -96.5t18 -96.5t49 -71.5t71 -44t85 -15t85 15t71 44t49 71.5t18 96.5zM29 686h500v-165h-500v165zM86 559h31q23 0 35 12t12 32q0 18 -12 31t-35 13h-31v-88zM101 631h16q15 0 23 -8t8 -20q0 -29 -31 -29h-16v57zM205 574v21h46v16h-46v20h46v16h-62
v-88h62v15h-46zM370 559v88h-21l-26 -36l-26 36h-21v-88h17v66l30 -39l31 40v-67h16zM440 652q-19 0 -32 -13.5t-13 -33.5q0 -19 11 -33t34 -14q24 0 35.5 14t11.5 33q0 22 -13.5 34.5t-33.5 12.5zM410 605q0 12 7.5 22t22.5 10q16 0 23.5 -10t7.5 -22q0 -13 -7 -22.5
t-24 -9.5q-15 0 -22.5 10.5t-7.5 21.5z" />
    <glyph glyph-name="oe" unicode="&#x153;" 
d="M71 0v700h232v-700h-232zM247 77v48q0 32 -19 46.5t-42 13.5q-23 0 -41.5 -14t-18.5 -46v-48h121zM148 125q-1 20 11.5 28t26.5 10q14 0 27 -8.5t13 -29.5v-26h-78v26zM226 243h-28v65h-21v-65h-28v67h-23v-90h121v90h-21v-67zM247 477h-121v-26l53 -39l-53 -37v-26h121
v22h-87l53 39v4l-53 41h87v22zM123 574q0 -26 18 -44t47 -18q23 0 43 15t20 47t-20.5 46.5t-43.5 15.5q-23 0 -43.5 -15t-20.5 -47zM188 534q-18 -1 -31 9.5t-12 30.5q0 22 14 31t29 9q15 -2 28 -10t13 -30t-13 -31t-28 -9z" />
    <glyph glyph-name="p" unicode="p" horiz-adv-x="613" 
d="M106 355q15 28 37 53t50 43t61.5 28.5t71.5 10.5q51 0 94.5 -17.5t75.5 -50t50 -78.5t18 -104t-18 -104t-50 -78.5t-75.5 -50t-94.5 -17.5q-38 0 -71.5 10.5t-61.5 28.5t-49.5 42t-35.5 52v-343h-24v700h22v-125zM540 240q0 53 -16.5 95.5t-45 72t-68.5 45t-86 15.5
q-39 0 -73.5 -12t-62.5 -33t-48.5 -49.5t-31.5 -60.5v-146q11 -32 31.5 -60.5t48.5 -49.5t62.5 -33t73.5 -12q46 0 85.5 15.5t68.5 45t45.5 71.5t16.5 96z" />
    <glyph glyph-name="thorn" unicode="&#xfe;" horiz-adv-x="613" 
d="M108 700v-343q14 28 35.5 52t49.5 42t61.5 28.5t71.5 10.5q51 0 94.5 -17.5t75.5 -50t50 -78.5t18 -104t-18 -104t-50 -78.5t-75.5 -50t-94.5 -17.5q-38 0 -71.5 10.5t-61.5 28.5t-49.5 42t-35.5 52v-343h-24v920h24zM540 240q0 53 -16.5 95.5t-45 72t-68.5 45t-86 15.5
q-39 0 -73.5 -12t-62.5 -33t-48.5 -49.5t-31.5 -60.5v-146q11 -32 31.5 -60.5t48.5 -49.5t62.5 -33t73.5 -12q46 0 85.5 15.5t68.5 45t45.5 71.5t16.5 96z" />
    <glyph glyph-name="q" unicode="q" horiz-adv-x="613" 
d="M49 240q0 58 18 104t50 78.5t75.5 50t94.5 17.5q38 0 71.5 -10.5t61.5 -28.5t50 -43t37 -53v125h22v-700h-24v343q-14 -28 -35.5 -52t-49.5 -42t-61.5 -28.5t-71.5 -10.5q-51 0 -94.5 17.5t-75.5 50t-50 78.5t-18 104zM505 313q-11 32 -31.5 60.5t-48.5 49.5t-62.5 33
t-73.5 12q-46 0 -85.5 -15.5t-68.5 -45t-45.5 -72t-16.5 -95.5q0 -54 16.5 -96t45.5 -71.5t68.5 -45t85.5 -15.5q39 0 73.5 12t62.5 33t48.5 49.5t31.5 60.5v146z" />
    <glyph glyph-name="r" unicode="r" horiz-adv-x="336" 
d="M106 333q12 31 32 59.5t47.5 50t62.5 34.5t77 13v-24q-45 1 -82 -14.5t-64 -41t-45 -58.5t-26 -67v-285h-24v480h22v-147v0z" />
    <glyph glyph-name="racute" unicode="&#x155;" horiz-adv-x="336" 
d="M106 333q12 31 32 59.5t47.5 50t62.5 34.5t77 13v-24q-45 1 -82 -14.5t-64 -41t-45 -58.5t-26 -67v-285h-24v480h22v-147v0zM-53 694h500v-165h-500v165zM4 567h31q23 0 35 12t12 32q0 18 -12 31t-35 13h-31v-88zM19 639h16q15 0 23 -8t8 -20q0 -29 -31 -29h-16v57z
M123 582v21h46v16h-46v20h46v16h-62v-88h62v15h-46zM288 567v88h-21l-26 -36l-26 36h-21v-88h17v66l30 -39l31 40v-67h16zM358 660q-19 0 -32 -13.5t-13 -33.5q0 -19 11 -33t34 -14q24 0 35.5 14t11.5 33q0 22 -13.5 34.5t-33.5 12.5zM328 613q0 12 7.5 22t22.5 10
q16 0 23.5 -10t7.5 -22q0 -13 -7 -22.5t-24 -9.5q-15 0 -22.5 10.5t-7.5 21.5z" />
    <glyph glyph-name="rcaron" unicode="&#x159;" horiz-adv-x="336" 
d="M106 333q12 31 32 59.5t47.5 50t62.5 34.5t77 13v-24q-45 1 -82 -14.5t-64 -41t-45 -58.5t-26 -67v-285h-24v480h22v-147v0zM-60 693h500v-165h-500v165zM-3 566h31q23 0 35 12t12 32q0 18 -12 31t-35 13h-31v-88zM12 638h16q15 0 23 -8t8 -20q0 -29 -31 -29h-16v57z
M116 581v21h46v16h-46v20h46v16h-62v-88h62v15h-46zM281 566v88h-21l-26 -36l-26 36h-21v-88h17v66l30 -39l31 40v-67h16zM351 659q-19 0 -32 -13.5t-13 -33.5q0 -19 11 -33t34 -14q24 0 35.5 14t11.5 33q0 22 -13.5 34.5t-33.5 12.5zM321 612q0 12 7.5 22t22.5 10
q16 0 23.5 -10t7.5 -22q0 -13 -7 -22.5t-24 -9.5q-15 0 -22.5 10.5t-7.5 21.5z" />
    <glyph glyph-name="rcommaaccent" unicode="&#x157;" horiz-adv-x="336" 
d="M106 333q12 31 32 59.5t47.5 50t62.5 34.5t77 13v-24q-45 1 -82 -14.5t-64 -41t-45 -58.5t-26 -67v-285h-24v480h22v-147v0zM-156 -25h500v-165h-500v165zM-99 -152h31q23 0 35 12t12 32q0 18 -12 31t-35 13h-31v-88zM-84 -80h16q15 0 23 -8t8 -20q0 -29 -31 -29h-16v57z
M20 -137v21h46v16h-46v20h46v16h-62v-88h62v15h-46zM185 -152v88h-21l-26 -36l-26 36h-21v-88h17v66l30 -39l31 40v-67h16zM255 -59q-19 0 -32 -13.5t-13 -33.5q0 -19 11 -33t34 -14q24 0 35.5 14t11.5 33q0 22 -13.5 34.5t-33.5 12.5zM225 -106q0 12 7.5 22t22.5 10
q16 0 23.5 -10t7.5 -22q0 -13 -7 -22.5t-24 -9.5q-15 0 -22.5 10.5t-7.5 21.5z" />
    <glyph glyph-name="s" unicode="s" horiz-adv-x="452" 
d="M53 368q0 33 15 56t39 38t54 21.5t60 6.5q45 0 88.5 -11.5t74.5 -29.5v-24q-29 19 -73.5 31t-88.5 12q-27 0 -52.5 -5.5t-46 -17.5t-33 -30.5t-12.5 -45.5q0 -40 24.5 -62t61.5 -35.5t80.5 -23.5t80.5 -25t61.5 -40.5t24.5 -69.5q0 -33 -15 -56.5t-39.5 -38t-57 -21.5
t-67.5 -7q-24 0 -49.5 3.5t-50 9.5t-46 15t-37.5 20v24q18 -12 39.5 -21t45.5 -15.5t49 -10t48 -3.5q31 0 59.5 6t50 18t34 31t12.5 45q0 39 -24.5 60.5t-62 35t-80.5 23.5t-80.5 25.5t-62 41t-24.5 70.5z" />
    <glyph glyph-name="sacute" unicode="&#x15b;" horiz-adv-x="452" 
d="M53 368q0 33 15 56t39 38t54 21.5t60 6.5q45 0 88.5 -11.5t74.5 -29.5v-24q-29 19 -73.5 31t-88.5 12q-27 0 -52.5 -5.5t-46 -17.5t-33 -30.5t-12.5 -45.5q0 -40 24.5 -62t61.5 -35.5t80.5 -23.5t80.5 -25t61.5 -40.5t24.5 -69.5q0 -33 -15 -56.5t-39.5 -38t-57 -21.5
t-67.5 -7q-24 0 -49.5 3.5t-50 9.5t-46 15t-37.5 20v24q18 -12 39.5 -21t45.5 -15.5t49 -10t48 -3.5q31 0 59.5 6t50 18t34 31t12.5 45q0 39 -24.5 60.5t-62 35t-80.5 23.5t-80.5 25.5t-62 41t-24.5 70.5zM-19 694h500v-165h-500v165zM38 567h31q23 0 35 12t12 32
q0 18 -12 31t-35 13h-31v-88zM53 639h16q15 0 23 -8t8 -20q0 -29 -31 -29h-16v57zM157 582v21h46v16h-46v20h46v16h-62v-88h62v15h-46zM322 567v88h-21l-26 -36l-26 36h-21v-88h17v66l30 -39l31 40v-67h16zM392 660q-19 0 -32 -13.5t-13 -33.5q0 -19 11 -33t34 -14
q24 0 35.5 14t11.5 33q0 22 -13.5 34.5t-33.5 12.5zM362 613q0 12 7.5 22t22.5 10q16 0 23.5 -10t7.5 -22q0 -13 -7 -22.5t-24 -9.5q-15 0 -22.5 10.5t-7.5 21.5z" />
    <glyph glyph-name="scaron" unicode="&#x161;" horiz-adv-x="452" 
d="M53 368q0 33 15 56t39 38t54 21.5t60 6.5q45 0 88.5 -11.5t74.5 -29.5v-24q-29 19 -73.5 31t-88.5 12q-27 0 -52.5 -5.5t-46 -17.5t-33 -30.5t-12.5 -45.5q0 -40 24.5 -62t61.5 -35.5t80.5 -23.5t80.5 -25t61.5 -40.5t24.5 -69.5q0 -33 -15 -56.5t-39.5 -38t-57 -21.5
t-67.5 -7q-24 0 -49.5 3.5t-50 9.5t-46 15t-37.5 20v24q18 -12 39.5 -21t45.5 -15.5t49 -10t48 -3.5q31 0 59.5 6t50 18t34 31t12.5 45q0 39 -24.5 60.5t-62 35t-80.5 23.5t-80.5 25.5t-62 41t-24.5 70.5zM-26 693h500v-165h-500v165zM31 566h31q23 0 35 12t12 32
q0 18 -12 31t-35 13h-31v-88zM46 638h16q15 0 23 -8t8 -20q0 -29 -31 -29h-16v57zM150 581v21h46v16h-46v20h46v16h-62v-88h62v15h-46zM315 566v88h-21l-26 -36l-26 36h-21v-88h17v66l30 -39l31 40v-67h16zM385 659q-19 0 -32 -13.5t-13 -33.5q0 -19 11 -33t34 -14
q24 0 35.5 14t11.5 33q0 22 -13.5 34.5t-33.5 12.5zM355 612q0 12 7.5 22t22.5 10q16 0 23.5 -10t7.5 -22q0 -13 -7 -22.5t-24 -9.5q-15 0 -22.5 10.5t-7.5 21.5z" />
    <glyph glyph-name="scedilla" unicode="&#x15f;" horiz-adv-x="452" 
d="M53 368q0 33 15 56t39 38t54 21.5t60 6.5q45 0 88.5 -11.5t74.5 -29.5v-24q-29 19 -73.5 31t-88.5 12q-27 0 -52.5 -5.5t-46 -17.5t-33 -30.5t-12.5 -45.5q0 -40 24.5 -62t61.5 -35.5t80.5 -23.5t80.5 -25t61.5 -40.5t24.5 -69.5q0 -33 -15 -56.5t-39.5 -38t-57 -21.5
t-67.5 -7q-24 0 -49.5 3.5t-50 9.5t-46 15t-37.5 20v24q18 -12 39.5 -21t45.5 -15.5t49 -10t48 -3.5q31 0 59.5 6t50 18t34 31t12.5 45q0 39 -24.5 60.5t-62 35t-80.5 23.5t-80.5 25.5t-62 41t-24.5 70.5z" />
    <glyph glyph-name="scommaaccent" unicode="&#x219;" horiz-adv-x="452" 
d="M53 368q0 33 15 56t39 38t54 21.5t60 6.5q45 0 88.5 -11.5t74.5 -29.5v-24q-29 19 -73.5 31t-88.5 12q-27 0 -52.5 -5.5t-46 -17.5t-33 -30.5t-12.5 -45.5q0 -40 24.5 -62t61.5 -35.5t80.5 -23.5t80.5 -25t61.5 -40.5t24.5 -69.5q0 -33 -15 -56.5t-39.5 -38t-57 -21.5
t-67.5 -7q-24 0 -49.5 3.5t-50 9.5t-46 15t-37.5 20v24q18 -12 39.5 -21t45.5 -15.5t49 -10t48 -3.5q31 0 59.5 6t50 18t34 31t12.5 45q0 39 -24.5 60.5t-62 35t-80.5 23.5t-80.5 25.5t-62 41t-24.5 70.5zM-10 -25h500v-165h-500v165zM47 -152h31q23 0 35 12t12 32
q0 18 -12 31t-35 13h-31v-88zM62 -80h16q15 0 23 -8t8 -20q0 -29 -31 -29h-16v57zM166 -137v21h46v16h-46v20h46v16h-62v-88h62v15h-46zM331 -152v88h-21l-26 -36l-26 36h-21v-88h17v66l30 -39l31 40v-67h16zM401 -59q-19 0 -32 -13.5t-13 -33.5q0 -19 11 -33t34 -14
q24 0 35.5 14t11.5 33q0 22 -13.5 34.5t-33.5 12.5zM371 -106q0 12 7.5 22t22.5 10q16 0 23.5 -10t7.5 -22q0 -13 -7 -22.5t-24 -9.5q-15 0 -22.5 10.5t-7.5 21.5z" />
    <glyph glyph-name="germandbls" unicode="&#xdf;" horiz-adv-x="588" 
d="M549 150q0 -42 -16.5 -72.5t-44.5 -50t-64.5 -28.5t-76.5 -9q-33 0 -68 7.5t-63 24.5v22q29 -17 62.5 -24.5t65.5 -7.5q37 0 69.5 8t57.5 25t39.5 43t14.5 63q0 29 -12 53t-29.5 45t-38 39t-38 35.5t-29.5 35t-12 36.5q0 25 12.5 43t27.5 36t27.5 39t12.5 53q0 22 -10 44
t-29.5 39t-48 28t-65.5 11q-40 0 -74 -12t-58.5 -35t-38.5 -57t-14 -77v-507h-24v504q0 49 15.5 87.5t43 64.5t66 40t84.5 14q43 0 76 -12.5t55.5 -32.5t34 -46t11.5 -51q0 -33 -12.5 -55.5t-27.5 -40.5t-27.5 -35t-12.5 -39q0 -17 12 -33t29.5 -33.5t38 -36t38 -40.5
t29.5 -48t12 -57z" />
    <glyph glyph-name="t" unicode="t" horiz-adv-x="362" 
d="M127 646v-166h214v-23h-214v-321q0 -122 123 -122q30 0 56 6.5t47 17.5v-23q-20 -11 -48 -17.5t-60 -6.5q-68 0 -105 36.5t-37 105.5v324h-90v23h90v158z" />
    <glyph glyph-name="tbar" unicode="&#x167;" horiz-adv-x="363" 
d="M128 136q0 -122 123 -122q30 0 56 6.5t47 17.5v-23q-20 -11 -48 -17.5t-60 -6.5q-68 0 -105 36.5t-37 105.5v324h-90v23h90v158l24 8v-166h214v-23h-214v-321v0z" />
    <glyph glyph-name="tcaron" unicode="&#x165;" horiz-adv-x="362" 
d="M127 646v-166h214v-23h-214v-321q0 -122 123 -122q30 0 56 6.5t47 17.5v-23q-20 -11 -48 -17.5t-60 -6.5q-68 0 -105 36.5t-37 105.5v324h-90v23h90v158z" />
    <glyph glyph-name="tcommaaccent" unicode="&#x163;" horiz-adv-x="362" 
d="M127 646v-166h214v-23h-214v-321q0 -122 123 -122q30 0 56 6.5t47 17.5v-23q-20 -11 -48 -17.5t-60 -6.5q-68 0 -105 36.5t-37 105.5v324h-90v23h90v158zM-17 -25h500v-165h-500v165zM40 -152h31q23 0 35 12t12 32q0 18 -12 31t-35 13h-31v-88zM55 -80h16q15 0 23 -8
t8 -20q0 -29 -31 -29h-16v57zM159 -137v21h46v16h-46v20h46v16h-62v-88h62v15h-46zM324 -152v88h-21l-26 -36l-26 36h-21v-88h17v66l30 -39l31 40v-67h16zM394 -59q-19 0 -32 -13.5t-13 -33.5q0 -19 11 -33t34 -14q24 0 35.5 14t11.5 33q0 22 -13.5 34.5t-33.5 12.5z
M364 -106q0 12 7.5 22t22.5 10q16 0 23.5 -10t7.5 -22q0 -13 -7 -22.5t-24 -9.5q-15 0 -22.5 10.5t-7.5 21.5z" />
    <glyph glyph-name="uni021B" unicode="&#x21b;" horiz-adv-x="362" 
d="M127 646v-166h214v-23h-214v-321q0 -122 123 -122q30 0 56 6.5t47 17.5v-23q-20 -11 -48 -17.5t-60 -6.5q-68 0 -105 36.5t-37 105.5v324h-90v23h90v158zM-17 -25h500v-165h-500v165zM40 -152h31q23 0 35 12t12 32q0 18 -12 31t-35 13h-31v-88zM55 -80h16q15 0 23 -8
t8 -20q0 -29 -31 -29h-16v57zM159 -137v21h46v16h-46v20h46v16h-62v-88h62v15h-46zM324 -152v88h-21l-26 -36l-26 36h-21v-88h17v66l30 -39l31 40v-67h16zM394 -59q-19 0 -32 -13.5t-13 -33.5q0 -19 11 -33t34 -14q24 0 35.5 14t11.5 33q0 22 -13.5 34.5t-33.5 12.5z
M364 -106q0 12 7.5 22t22.5 10q16 0 23.5 -10t7.5 -22q0 -13 -7 -22.5t-24 -9.5q-15 0 -22.5 10.5t-7.5 21.5z" />
    <glyph glyph-name="u" unicode="u" horiz-adv-x="574" 
d="M490 480v-480h-22v108q-12 -19 -31 -39.5t-45 -38t-58 -29t-71 -11.5q-40 0 -74 13t-59 38t-39 61.5t-14 82.5v295h24v-293q0 -42 12.5 -75t34.5 -55t52 -33.5t65 -11.5q38 0 70 12t57 30.5t43.5 41.5t30.5 45v339h24z" />
    <glyph glyph-name="uacute" unicode="&#xfa;" horiz-adv-x="574" 
d="M490 480v-480h-22v108q-12 -19 -31 -39.5t-45 -38t-58 -29t-71 -11.5q-40 0 -74 13t-59 38t-39 61.5t-14 82.5v295h24v-293q0 -42 12.5 -75t34.5 -55t52 -33.5t65 -11.5q38 0 70 12t57 30.5t43.5 41.5t30.5 45v339h24zM51 694h500v-165h-500v165zM108 567h31q23 0 35 12
t12 32q0 18 -12 31t-35 13h-31v-88zM123 639h16q15 0 23 -8t8 -20q0 -29 -31 -29h-16v57zM227 582v21h46v16h-46v20h46v16h-62v-88h62v15h-46zM392 567v88h-21l-26 -36l-26 36h-21v-88h17v66l30 -39l31 40v-67h16zM462 660q-19 0 -32 -13.5t-13 -33.5q0 -19 11 -33t34 -14
q24 0 35.5 14t11.5 33q0 22 -13.5 34.5t-33.5 12.5zM432 613q0 12 7.5 22t22.5 10q16 0 23.5 -10t7.5 -22q0 -13 -7 -22.5t-24 -9.5q-15 0 -22.5 10.5t-7.5 21.5z" />
    <glyph glyph-name="ucircumflex" unicode="&#xfb;" horiz-adv-x="574" 
d="M490 480v-480h-22v108q-12 -19 -31 -39.5t-45 -38t-58 -29t-71 -11.5q-40 0 -74 13t-59 38t-39 61.5t-14 82.5v295h24v-293q0 -42 12.5 -75t34.5 -55t52 -33.5t65 -11.5q38 0 70 12t57 30.5t43.5 41.5t30.5 45v339h24zM25 694h500v-165h-500v165zM82 567h31q23 0 35 12
t12 32q0 18 -12 31t-35 13h-31v-88zM97 639h16q15 0 23 -8t8 -20q0 -29 -31 -29h-16v57zM201 582v21h46v16h-46v20h46v16h-62v-88h62v15h-46zM366 567v88h-21l-26 -36l-26 36h-21v-88h17v66l30 -39l31 40v-67h16zM436 660q-19 0 -32 -13.5t-13 -33.5q0 -19 11 -33t34 -14
q24 0 35.5 14t11.5 33q0 22 -13.5 34.5t-33.5 12.5zM406 613q0 12 7.5 22t22.5 10q16 0 23.5 -10t7.5 -22q0 -13 -7 -22.5t-24 -9.5q-15 0 -22.5 10.5t-7.5 21.5z" />
    <glyph glyph-name="udieresis" unicode="&#xfc;" horiz-adv-x="574" 
d="M490 480v-480h-22v108q-12 -19 -31 -39.5t-45 -38t-58 -29t-71 -11.5q-40 0 -74 13t-59 38t-39 61.5t-14 82.5v295h24v-293q0 -42 12.5 -75t34.5 -55t52 -33.5t65 -11.5q38 0 70 12t57 30.5t43.5 41.5t30.5 45v339h24zM31 694h500v-165h-500v165zM88 567h31q23 0 35 12
t12 32q0 18 -12 31t-35 13h-31v-88zM103 639h16q15 0 23 -8t8 -20q0 -29 -31 -29h-16v57zM207 582v21h46v16h-46v20h46v16h-62v-88h62v15h-46zM372 567v88h-21l-26 -36l-26 36h-21v-88h17v66l30 -39l31 40v-67h16zM442 660q-19 0 -32 -13.5t-13 -33.5q0 -19 11 -33t34 -14
q24 0 35.5 14t11.5 33q0 22 -13.5 34.5t-33.5 12.5zM412 613q0 12 7.5 22t22.5 10q16 0 23.5 -10t7.5 -22q0 -13 -7 -22.5t-24 -9.5q-15 0 -22.5 10.5t-7.5 21.5z" />
    <glyph glyph-name="ugrave" unicode="&#xf9;" horiz-adv-x="574" 
d="M490 480v-480h-22v108q-12 -19 -31 -39.5t-45 -38t-58 -29t-71 -11.5q-40 0 -74 13t-59 38t-39 61.5t-14 82.5v295h24v-293q0 -42 12.5 -75t34.5 -55t52 -33.5t65 -11.5q38 0 70 12t57 30.5t43.5 41.5t30.5 45v339h24zM36 693h500v-165h-500v165zM93 566h31q23 0 35 12
t12 32q0 18 -12 31t-35 13h-31v-88zM108 638h16q15 0 23 -8t8 -20q0 -29 -31 -29h-16v57zM212 581v21h46v16h-46v20h46v16h-62v-88h62v15h-46zM377 566v88h-21l-26 -36l-26 36h-21v-88h17v66l30 -39l31 40v-67h16zM447 659q-19 0 -32 -13.5t-13 -33.5q0 -19 11 -33t34 -14
q24 0 35.5 14t11.5 33q0 22 -13.5 34.5t-33.5 12.5zM417 612q0 12 7.5 22t22.5 10q16 0 23.5 -10t7.5 -22q0 -13 -7 -22.5t-24 -9.5q-15 0 -22.5 10.5t-7.5 21.5z" />
    <glyph glyph-name="uhungarumlaut" unicode="&#x171;" horiz-adv-x="574" 
d="M490 480v-480h-22v108q-12 -19 -31 -39.5t-45 -38t-58 -29t-71 -11.5q-40 0 -74 13t-59 38t-39 61.5t-14 82.5v295h24v-293q0 -42 12.5 -75t34.5 -55t52 -33.5t65 -11.5q38 0 70 12t57 30.5t43.5 41.5t30.5 45v339h24zM41 694h500v-165h-500v165zM98 567h31q23 0 35 12
t12 32q0 18 -12 31t-35 13h-31v-88zM113 639h16q15 0 23 -8t8 -20q0 -29 -31 -29h-16v57zM217 582v21h46v16h-46v20h46v16h-62v-88h62v15h-46zM382 567v88h-21l-26 -36l-26 36h-21v-88h17v66l30 -39l31 40v-67h16zM452 660q-19 0 -32 -13.5t-13 -33.5q0 -19 11 -33t34 -14
q24 0 35.5 14t11.5 33q0 22 -13.5 34.5t-33.5 12.5zM422 613q0 12 7.5 22t22.5 10q16 0 23.5 -10t7.5 -22q0 -13 -7 -22.5t-24 -9.5q-15 0 -22.5 10.5t-7.5 21.5z" />
    <glyph glyph-name="umacron" unicode="&#x16b;" horiz-adv-x="574" 
d="M490 480v-480h-22v108q-12 -19 -31 -39.5t-45 -38t-58 -29t-71 -11.5q-40 0 -74 13t-59 38t-39 61.5t-14 82.5v295h24v-293q0 -42 12.5 -75t34.5 -55t52 -33.5t65 -11.5q38 0 70 12t57 30.5t43.5 41.5t30.5 45v339h24zM31 694h500v-165h-500v165zM88 567h31q23 0 35 12
t12 32q0 18 -12 31t-35 13h-31v-88zM103 639h16q15 0 23 -8t8 -20q0 -29 -31 -29h-16v57zM207 582v21h46v16h-46v20h46v16h-62v-88h62v15h-46zM372 567v88h-21l-26 -36l-26 36h-21v-88h17v66l30 -39l31 40v-67h16zM442 660q-19 0 -32 -13.5t-13 -33.5q0 -19 11 -33t34 -14
q24 0 35.5 14t11.5 33q0 22 -13.5 34.5t-33.5 12.5zM412 613q0 12 7.5 22t22.5 10q16 0 23.5 -10t7.5 -22q0 -13 -7 -22.5t-24 -9.5q-15 0 -22.5 10.5t-7.5 21.5z" />
    <glyph glyph-name="uogonek" unicode="&#x173;" horiz-adv-x="574" 
d="M490 480v-480h-22v108q-12 -19 -31 -39.5t-45 -38t-58 -29t-71 -11.5q-40 0 -74 13t-59 38t-39 61.5t-14 82.5v295h24v-293q0 -42 12.5 -75t34.5 -55t52 -33.5t65 -11.5q38 0 70 12t57 30.5t43.5 41.5t30.5 45v339h24z" />
    <glyph glyph-name="uring" unicode="&#x16f;" horiz-adv-x="574" 
d="M490 480v-480h-22v108q-12 -19 -31 -39.5t-45 -38t-58 -29t-71 -11.5q-40 0 -74 13t-59 38t-39 61.5t-14 82.5v295h24v-293q0 -42 12.5 -75t34.5 -55t52 -33.5t65 -11.5q38 0 70 12t57 30.5t43.5 41.5t30.5 45v339h24zM27 694h500v-165h-500v165zM84 567h31q23 0 35 12
t12 32q0 18 -12 31t-35 13h-31v-88zM99 639h16q15 0 23 -8t8 -20q0 -29 -31 -29h-16v57zM203 582v21h46v16h-46v20h46v16h-62v-88h62v15h-46zM368 567v88h-21l-26 -36l-26 36h-21v-88h17v66l30 -39l31 40v-67h16zM438 660q-19 0 -32 -13.5t-13 -33.5q0 -19 11 -33t34 -14
q24 0 35.5 14t11.5 33q0 22 -13.5 34.5t-33.5 12.5zM408 613q0 12 7.5 22t22.5 10q16 0 23.5 -10t7.5 -22q0 -13 -7 -22.5t-24 -9.5q-15 0 -22.5 10.5t-7.5 21.5z" />
    <glyph glyph-name="v" unicode="v" horiz-adv-x="522" 
d="M500 480l-226 -480h-26l-226 480h27l212 -453l212 453h27z" />
    <glyph glyph-name="w" unicode="w" horiz-adv-x="798" 
d="M771 480l-184 -480h-24l-164 441l-163 -441h-24l-185 480h26l171 -449l163 441h24l164 -441l171 449h25z" />
    <glyph glyph-name="wacute" unicode="&#x1e83;" horiz-adv-x="798" 
d="M771 480l-184 -480h-24l-164 441l-163 -441h-24l-185 480h26l171 -449l163 441h24l164 -441l171 449h25zM159 694h500v-165h-500v165zM216 567h31q23 0 35 12t12 32q0 18 -12 31t-35 13h-31v-88zM231 639h16q15 0 23 -8t8 -20q0 -29 -31 -29h-16v57zM335 582v21h46v16
h-46v20h46v16h-62v-88h62v15h-46zM500 567v88h-21l-26 -36l-26 36h-21v-88h17v66l30 -39l31 40v-67h16zM570 660q-19 0 -32 -13.5t-13 -33.5q0 -19 11 -33t34 -14q24 0 35.5 14t11.5 33q0 22 -13.5 34.5t-33.5 12.5zM540 613q0 12 7.5 22t22.5 10q16 0 23.5 -10t7.5 -22
q0 -13 -7 -22.5t-24 -9.5q-15 0 -22.5 10.5t-7.5 21.5z" />
    <glyph glyph-name="wcircumflex" unicode="&#x175;" horiz-adv-x="798" 
d="M771 480l-184 -480h-24l-164 441l-163 -441h-24l-185 480h26l171 -449l163 441h24l164 -441l171 449h25zM133 694h500v-165h-500v165zM190 567h31q23 0 35 12t12 32q0 18 -12 31t-35 13h-31v-88zM205 639h16q15 0 23 -8t8 -20q0 -29 -31 -29h-16v57zM309 582v21h46v16
h-46v20h46v16h-62v-88h62v15h-46zM474 567v88h-21l-26 -36l-26 36h-21v-88h17v66l30 -39l31 40v-67h16zM544 660q-19 0 -32 -13.5t-13 -33.5q0 -19 11 -33t34 -14q24 0 35.5 14t11.5 33q0 22 -13.5 34.5t-33.5 12.5zM514 613q0 12 7.5 22t22.5 10q16 0 23.5 -10t7.5 -22
q0 -13 -7 -22.5t-24 -9.5q-15 0 -22.5 10.5t-7.5 21.5z" />
    <glyph glyph-name="wdieresis" unicode="&#x1e85;" horiz-adv-x="798" 
d="M771 480l-184 -480h-24l-164 441l-163 -441h-24l-185 480h26l171 -449l163 441h24l164 -441l171 449h25zM139 694h500v-165h-500v165zM196 567h31q23 0 35 12t12 32q0 18 -12 31t-35 13h-31v-88zM211 639h16q15 0 23 -8t8 -20q0 -29 -31 -29h-16v57zM315 582v21h46v16
h-46v20h46v16h-62v-88h62v15h-46zM480 567v88h-21l-26 -36l-26 36h-21v-88h17v66l30 -39l31 40v-67h16zM550 660q-19 0 -32 -13.5t-13 -33.5q0 -19 11 -33t34 -14q24 0 35.5 14t11.5 33q0 22 -13.5 34.5t-33.5 12.5zM520 613q0 12 7.5 22t22.5 10q16 0 23.5 -10t7.5 -22
q0 -13 -7 -22.5t-24 -9.5q-15 0 -22.5 10.5t-7.5 21.5z" />
    <glyph glyph-name="wgrave" unicode="&#x1e81;" horiz-adv-x="798" 
d="M771 480l-184 -480h-24l-164 441l-163 -441h-24l-185 480h26l171 -449l163 441h24l164 -441l171 449h25zM144 693h500v-165h-500v165zM201 566h31q23 0 35 12t12 32q0 18 -12 31t-35 13h-31v-88zM216 638h16q15 0 23 -8t8 -20q0 -29 -31 -29h-16v57zM320 581v21h46v16
h-46v20h46v16h-62v-88h62v15h-46zM485 566v88h-21l-26 -36l-26 36h-21v-88h17v66l30 -39l31 40v-67h16zM555 659q-19 0 -32 -13.5t-13 -33.5q0 -19 11 -33t34 -14q24 0 35.5 14t11.5 33q0 22 -13.5 34.5t-33.5 12.5zM525 612q0 12 7.5 22t22.5 10q16 0 23.5 -10t7.5 -22
q0 -13 -7 -22.5t-24 -9.5q-15 0 -22.5 10.5t-7.5 21.5z" />
    <glyph glyph-name="x" unicode="x" horiz-adv-x="482" 
d="M454 480l-198 -234l209 -246h-29l-195 229l-195 -229h-29l210 246l-199 234h29l184 -216l185 216h28z" />
    <glyph glyph-name="y" unicode="y" horiz-adv-x="530" 
d="M481 480h26l-255 -568q-18 -40 -36 -67t-37.5 -43.5t-40.5 -24t-45 -7.5t-49 6v22q24 -6 47 -6q45 0 78.5 31t62.5 100l33 75l-248 482h26l234 -455z" />
    <glyph glyph-name="yacute" unicode="&#xfd;" horiz-adv-x="530" 
d="M481 480h26l-255 -568q-18 -40 -36 -67t-37.5 -43.5t-40.5 -24t-45 -7.5t-49 6v22q24 -6 47 -6q45 0 78.5 31t62.5 100l33 75l-248 482h26l234 -455zM18 694h500v-165h-500v165zM75 567h31q23 0 35 12t12 32q0 18 -12 31t-35 13h-31v-88zM90 639h16q15 0 23 -8t8 -20
q0 -29 -31 -29h-16v57zM194 582v21h46v16h-46v20h46v16h-62v-88h62v15h-46zM359 567v88h-21l-26 -36l-26 36h-21v-88h17v66l30 -39l31 40v-67h16zM429 660q-19 0 -32 -13.5t-13 -33.5q0 -19 11 -33t34 -14q24 0 35.5 14t11.5 33q0 22 -13.5 34.5t-33.5 12.5zM399 613
q0 12 7.5 22t22.5 10q16 0 23.5 -10t7.5 -22q0 -13 -7 -22.5t-24 -9.5q-15 0 -22.5 10.5t-7.5 21.5z" />
    <glyph glyph-name="ycircumflex" unicode="&#x177;" horiz-adv-x="530" 
d="M481 480h26l-255 -568q-18 -40 -36 -67t-37.5 -43.5t-40.5 -24t-45 -7.5t-49 6v22q24 -6 47 -6q45 0 78.5 31t62.5 100l33 75l-248 482h26l234 -455zM-8 694h500v-165h-500v165zM49 567h31q23 0 35 12t12 32q0 18 -12 31t-35 13h-31v-88zM64 639h16q15 0 23 -8t8 -20
q0 -29 -31 -29h-16v57zM168 582v21h46v16h-46v20h46v16h-62v-88h62v15h-46zM333 567v88h-21l-26 -36l-26 36h-21v-88h17v66l30 -39l31 40v-67h16zM403 660q-19 0 -32 -13.5t-13 -33.5q0 -19 11 -33t34 -14q24 0 35.5 14t11.5 33q0 22 -13.5 34.5t-33.5 12.5zM373 613
q0 12 7.5 22t22.5 10q16 0 23.5 -10t7.5 -22q0 -13 -7 -22.5t-24 -9.5q-15 0 -22.5 10.5t-7.5 21.5z" />
    <glyph glyph-name="ydieresis" unicode="&#xff;" horiz-adv-x="530" 
d="M481 480h26l-255 -568q-18 -40 -36 -67t-37.5 -43.5t-40.5 -24t-45 -7.5t-49 6v22q24 -6 47 -6q45 0 78.5 31t62.5 100l33 75l-248 482h26l234 -455zM-2 694h500v-165h-500v165zM55 567h31q23 0 35 12t12 32q0 18 -12 31t-35 13h-31v-88zM70 639h16q15 0 23 -8t8 -20
q0 -29 -31 -29h-16v57zM174 582v21h46v16h-46v20h46v16h-62v-88h62v15h-46zM339 567v88h-21l-26 -36l-26 36h-21v-88h17v66l30 -39l31 40v-67h16zM409 660q-19 0 -32 -13.5t-13 -33.5q0 -19 11 -33t34 -14q24 0 35.5 14t11.5 33q0 22 -13.5 34.5t-33.5 12.5zM379 613
q0 12 7.5 22t22.5 10q16 0 23.5 -10t7.5 -22q0 -13 -7 -22.5t-24 -9.5q-15 0 -22.5 10.5t-7.5 21.5z" />
    <glyph glyph-name="ygrave" unicode="&#x1ef3;" horiz-adv-x="530" 
d="M481 480h26l-255 -568q-18 -40 -36 -67t-37.5 -43.5t-40.5 -24t-45 -7.5t-49 6v22q24 -6 47 -6q45 0 78.5 31t62.5 100l33 75l-248 482h26l234 -455zM3 693h500v-165h-500v165zM60 566h31q23 0 35 12t12 32q0 18 -12 31t-35 13h-31v-88zM75 638h16q15 0 23 -8t8 -20
q0 -29 -31 -29h-16v57zM179 581v21h46v16h-46v20h46v16h-62v-88h62v15h-46zM344 566v88h-21l-26 -36l-26 36h-21v-88h17v66l30 -39l31 40v-67h16zM414 659q-19 0 -32 -13.5t-13 -33.5q0 -19 11 -33t34 -14q24 0 35.5 14t11.5 33q0 22 -13.5 34.5t-33.5 12.5zM384 612
q0 12 7.5 22t22.5 10q16 0 23.5 -10t7.5 -22q0 -13 -7 -22.5t-24 -9.5q-15 0 -22.5 10.5t-7.5 21.5z" />
    <glyph glyph-name="z" unicode="z" horiz-adv-x="443" 
d="M400 480v-20l-339 -438h350v-22h-381v20l339 438h-325v22h356z" />
    <glyph glyph-name="zacute" unicode="&#x17a;" horiz-adv-x="443" 
d="M400 480v-20l-339 -438h350v-22h-381v20l339 438h-325v22h356zM-6 694h500v-165h-500v165zM51 567h31q23 0 35 12t12 32q0 18 -12 31t-35 13h-31v-88zM66 639h16q15 0 23 -8t8 -20q0 -29 -31 -29h-16v57zM170 582v21h46v16h-46v20h46v16h-62v-88h62v15h-46zM335 567v88
h-21l-26 -36l-26 36h-21v-88h17v66l30 -39l31 40v-67h16zM405 660q-19 0 -32 -13.5t-13 -33.5q0 -19 11 -33t34 -14q24 0 35.5 14t11.5 33q0 22 -13.5 34.5t-33.5 12.5zM375 613q0 12 7.5 22t22.5 10q16 0 23.5 -10t7.5 -22q0 -13 -7 -22.5t-24 -9.5q-15 0 -22.5 10.5
t-7.5 21.5z" />
    <glyph glyph-name="zcaron" unicode="&#x17e;" horiz-adv-x="443" 
d="M400 480v-20l-339 -438h350v-22h-381v20l339 438h-325v22h356zM-13 693h500v-165h-500v165zM44 566h31q23 0 35 12t12 32q0 18 -12 31t-35 13h-31v-88zM59 638h16q15 0 23 -8t8 -20q0 -29 -31 -29h-16v57zM163 581v21h46v16h-46v20h46v16h-62v-88h62v15h-46zM328 566v88
h-21l-26 -36l-26 36h-21v-88h17v66l30 -39l31 40v-67h16zM398 659q-19 0 -32 -13.5t-13 -33.5q0 -19 11 -33t34 -14q24 0 35.5 14t11.5 33q0 22 -13.5 34.5t-33.5 12.5zM368 612q0 12 7.5 22t22.5 10q16 0 23.5 -10t7.5 -22q0 -13 -7 -22.5t-24 -9.5q-15 0 -22.5 10.5
t-7.5 21.5z" />
    <glyph glyph-name="zdotaccent" unicode="&#x17c;" horiz-adv-x="443" 
d="M400 480v-20l-339 -438h350v-22h-381v20l339 438h-325v22h356zM-31 694h500v-165h-500v165zM26 567h31q23 0 35 12t12 32q0 18 -12 31t-35 13h-31v-88zM41 639h16q15 0 23 -8t8 -20q0 -29 -31 -29h-16v57zM145 582v21h46v16h-46v20h46v16h-62v-88h62v15h-46zM310 567v88
h-21l-26 -36l-26 36h-21v-88h17v66l30 -39l31 40v-67h16zM380 660q-19 0 -32 -13.5t-13 -33.5q0 -19 11 -33t34 -14q24 0 35.5 14t11.5 33q0 22 -13.5 34.5t-33.5 12.5zM350 613q0 12 7.5 22t22.5 10q16 0 23.5 -10t7.5 -22q0 -13 -7 -22.5t-24 -9.5q-15 0 -22.5 10.5
t-7.5 21.5z" />
    <glyph glyph-name="a.ss01" horiz-adv-x="613" 
d="M507 125q-28 -57 -84 -96t-132 -39q-51 0 -95 17.5t-77 50t-51.5 78.5t-18.5 104t18.5 104t51.5 78.5t77 50t95 17.5q76 0 132 -39t84 -96v125h22v-480h-22v125zM73 240q0 -54 17 -96t47 -71.5t70 -45t86 -15.5q39 0 73.5 12t61.5 33t46.5 49.5t30.5 60.5v146
q-11 32 -30.5 60.5t-46.5 49.5t-61.5 33t-73.5 12q-46 0 -86 -15.5t-70 -45t-47 -72t-17 -95.5z" />
    <glyph glyph-name="aacute.ss01" horiz-adv-x="613" 
d="M507 125q-28 -57 -84 -96t-132 -39q-51 0 -95 17.5t-77 50t-51.5 78.5t-18.5 104t18.5 104t51.5 78.5t77 50t95 17.5q76 0 132 -39t84 -96v125h22v-480h-22v125zM73 240q0 -54 17 -96t47 -71.5t70 -45t86 -15.5q39 0 73.5 12t61.5 33t46.5 49.5t30.5 60.5v146
q-11 32 -30.5 60.5t-46.5 49.5t-61.5 33t-73.5 12q-46 0 -86 -15.5t-70 -45t-47 -72t-17 -95.5zM66 694h500v-165h-500v165zM123 567h31q23 0 35 12t12 32q0 18 -12 31t-35 13h-31v-88zM138 639h16q15 0 23 -8t8 -20q0 -29 -31 -29h-16v57zM242 582v21h46v16h-46v20h46v16
h-62v-88h62v15h-46zM407 567v88h-21l-26 -36l-26 36h-21v-88h17v66l30 -39l31 40v-67h16zM477 660q-19 0 -32 -13.5t-13 -33.5q0 -19 11 -33t34 -14q24 0 35.5 14t11.5 33q0 22 -13.5 34.5t-33.5 12.5zM447 613q0 12 7.5 22t22.5 10q16 0 23.5 -10t7.5 -22q0 -13 -7 -22.5
t-24 -9.5q-15 0 -22.5 10.5t-7.5 21.5z" />
    <glyph glyph-name="abreve.ss01" horiz-adv-x="613" 
d="M507 125q-28 -57 -84 -96t-132 -39q-51 0 -95 17.5t-77 50t-51.5 78.5t-18.5 104t18.5 104t51.5 78.5t77 50t95 17.5q76 0 132 -39t84 -96v125h22v-480h-22v125zM73 240q0 -54 17 -96t47 -71.5t70 -45t86 -15.5q39 0 73.5 12t61.5 33t46.5 49.5t30.5 60.5v146
q-11 32 -30.5 60.5t-46.5 49.5t-61.5 33t-73.5 12q-46 0 -86 -15.5t-70 -45t-47 -72t-17 -95.5zM51 694h500v-165h-500v165zM108 567h31q23 0 35 12t12 32q0 18 -12 31t-35 13h-31v-88zM123 639h16q15 0 23 -8t8 -20q0 -29 -31 -29h-16v57zM227 582v21h46v16h-46v20h46v16
h-62v-88h62v15h-46zM392 567v88h-21l-26 -36l-26 36h-21v-88h17v66l30 -39l31 40v-67h16zM462 660q-19 0 -32 -13.5t-13 -33.5q0 -19 11 -33t34 -14q24 0 35.5 14t11.5 33q0 22 -13.5 34.5t-33.5 12.5zM432 613q0 12 7.5 22t22.5 10q16 0 23.5 -10t7.5 -22q0 -13 -7 -22.5
t-24 -9.5q-15 0 -22.5 10.5t-7.5 21.5z" />
    <glyph glyph-name="acircumflex.ss01" horiz-adv-x="613" 
d="M507 125q-28 -57 -84 -96t-132 -39q-51 0 -95 17.5t-77 50t-51.5 78.5t-18.5 104t18.5 104t51.5 78.5t77 50t95 17.5q76 0 132 -39t84 -96v125h22v-480h-22v125zM73 240q0 -54 17 -96t47 -71.5t70 -45t86 -15.5q39 0 73.5 12t61.5 33t46.5 49.5t30.5 60.5v146
q-11 32 -30.5 60.5t-46.5 49.5t-61.5 33t-73.5 12q-46 0 -86 -15.5t-70 -45t-47 -72t-17 -95.5zM40 694h500v-165h-500v165zM97 567h31q23 0 35 12t12 32q0 18 -12 31t-35 13h-31v-88zM112 639h16q15 0 23 -8t8 -20q0 -29 -31 -29h-16v57zM216 582v21h46v16h-46v20h46v16
h-62v-88h62v15h-46zM381 567v88h-21l-26 -36l-26 36h-21v-88h17v66l30 -39l31 40v-67h16zM451 660q-19 0 -32 -13.5t-13 -33.5q0 -19 11 -33t34 -14q24 0 35.5 14t11.5 33q0 22 -13.5 34.5t-33.5 12.5zM421 613q0 12 7.5 22t22.5 10q16 0 23.5 -10t7.5 -22q0 -13 -7 -22.5
t-24 -9.5q-15 0 -22.5 10.5t-7.5 21.5z" />
    <glyph glyph-name="adieresis.ss01" horiz-adv-x="613" 
d="M507 125q-28 -57 -84 -96t-132 -39q-51 0 -95 17.5t-77 50t-51.5 78.5t-18.5 104t18.5 104t51.5 78.5t77 50t95 17.5q76 0 132 -39t84 -96v125h22v-480h-22v125zM73 240q0 -54 17 -96t47 -71.5t70 -45t86 -15.5q39 0 73.5 12t61.5 33t46.5 49.5t30.5 60.5v146
q-11 32 -30.5 60.5t-46.5 49.5t-61.5 33t-73.5 12q-46 0 -86 -15.5t-70 -45t-47 -72t-17 -95.5zM46 694h500v-165h-500v165zM103 567h31q23 0 35 12t12 32q0 18 -12 31t-35 13h-31v-88zM118 639h16q15 0 23 -8t8 -20q0 -29 -31 -29h-16v57zM222 582v21h46v16h-46v20h46v16
h-62v-88h62v15h-46zM387 567v88h-21l-26 -36l-26 36h-21v-88h17v66l30 -39l31 40v-67h16zM457 660q-19 0 -32 -13.5t-13 -33.5q0 -19 11 -33t34 -14q24 0 35.5 14t11.5 33q0 22 -13.5 34.5t-33.5 12.5zM427 613q0 12 7.5 22t22.5 10q16 0 23.5 -10t7.5 -22q0 -13 -7 -22.5
t-24 -9.5q-15 0 -22.5 10.5t-7.5 21.5z" />
    <glyph glyph-name="agrave.ss01" horiz-adv-x="613" 
d="M507 125q-28 -57 -84 -96t-132 -39q-51 0 -95 17.5t-77 50t-51.5 78.5t-18.5 104t18.5 104t51.5 78.5t77 50t95 17.5q76 0 132 -39t84 -96v125h22v-480h-22v125zM73 240q0 -54 17 -96t47 -71.5t70 -45t86 -15.5q39 0 73.5 12t61.5 33t46.5 49.5t30.5 60.5v146
q-11 32 -30.5 60.5t-46.5 49.5t-61.5 33t-73.5 12q-46 0 -86 -15.5t-70 -45t-47 -72t-17 -95.5zM51 693h500v-165h-500v165zM108 566h31q23 0 35 12t12 32q0 18 -12 31t-35 13h-31v-88zM123 638h16q15 0 23 -8t8 -20q0 -29 -31 -29h-16v57zM227 581v21h46v16h-46v20h46v16
h-62v-88h62v15h-46zM392 566v88h-21l-26 -36l-26 36h-21v-88h17v66l30 -39l31 40v-67h16zM462 659q-19 0 -32 -13.5t-13 -33.5q0 -19 11 -33t34 -14q24 0 35.5 14t11.5 33q0 22 -13.5 34.5t-33.5 12.5zM432 612q0 12 7.5 22t22.5 10q16 0 23.5 -10t7.5 -22q0 -13 -7 -22.5
t-24 -9.5q-15 0 -22.5 10.5t-7.5 21.5z" />
    <glyph glyph-name="amacron.ss01" horiz-adv-x="613" 
d="M507 125q-28 -57 -84 -96t-132 -39q-51 0 -95 17.5t-77 50t-51.5 78.5t-18.5 104t18.5 104t51.5 78.5t77 50t95 17.5q76 0 132 -39t84 -96v125h22v-480h-22v125zM73 240q0 -54 17 -96t47 -71.5t70 -45t86 -15.5q39 0 73.5 12t61.5 33t46.5 49.5t30.5 60.5v146
q-11 32 -30.5 60.5t-46.5 49.5t-61.5 33t-73.5 12q-46 0 -86 -15.5t-70 -45t-47 -72t-17 -95.5zM46 694h500v-165h-500v165zM103 567h31q23 0 35 12t12 32q0 18 -12 31t-35 13h-31v-88zM118 639h16q15 0 23 -8t8 -20q0 -29 -31 -29h-16v57zM222 582v21h46v16h-46v20h46v16
h-62v-88h62v15h-46zM387 567v88h-21l-26 -36l-26 36h-21v-88h17v66l30 -39l31 40v-67h16zM457 660q-19 0 -32 -13.5t-13 -33.5q0 -19 11 -33t34 -14q24 0 35.5 14t11.5 33q0 22 -13.5 34.5t-33.5 12.5zM427 613q0 12 7.5 22t22.5 10q16 0 23.5 -10t7.5 -22q0 -13 -7 -22.5
t-24 -9.5q-15 0 -22.5 10.5t-7.5 21.5z" />
    <glyph glyph-name="aogonek.ss01" horiz-adv-x="613" 
d="M507 125q-28 -57 -84 -96t-132 -39q-51 0 -95 17.5t-77 50t-51.5 78.5t-18.5 104t18.5 104t51.5 78.5t77 50t95 17.5q76 0 132 -39t84 -96v125h22v-480h-22v125zM73 240q0 -54 17 -96t47 -71.5t70 -45t86 -15.5q39 0 73.5 12t61.5 33t46.5 49.5t30.5 60.5v146
q-11 32 -30.5 60.5t-46.5 49.5t-61.5 33t-73.5 12q-46 0 -86 -15.5t-70 -45t-47 -72t-17 -95.5z" />
    <glyph glyph-name="aring.ss01" horiz-adv-x="613" 
d="M507 125q-28 -57 -84 -96t-132 -39q-51 0 -95 17.5t-77 50t-51.5 78.5t-18.5 104t18.5 104t51.5 78.5t77 50t95 17.5q76 0 132 -39t84 -96v125h22v-480h-22v125zM73 240q0 -54 17 -96t47 -71.5t70 -45t86 -15.5q39 0 73.5 12t61.5 33t46.5 49.5t30.5 60.5v146
q-11 32 -30.5 60.5t-46.5 49.5t-61.5 33t-73.5 12q-46 0 -86 -15.5t-70 -45t-47 -72t-17 -95.5zM42 694h500v-165h-500v165zM99 567h31q23 0 35 12t12 32q0 18 -12 31t-35 13h-31v-88zM114 639h16q15 0 23 -8t8 -20q0 -29 -31 -29h-16v57zM218 582v21h46v16h-46v20h46v16
h-62v-88h62v15h-46zM383 567v88h-21l-26 -36l-26 36h-21v-88h17v66l30 -39l31 40v-67h16zM453 660q-19 0 -32 -13.5t-13 -33.5q0 -19 11 -33t34 -14q24 0 35.5 14t11.5 33q0 22 -13.5 34.5t-33.5 12.5zM423 613q0 12 7.5 22t22.5 10q16 0 23.5 -10t7.5 -22q0 -13 -7 -22.5
t-24 -9.5q-15 0 -22.5 10.5t-7.5 21.5z" />
    <glyph glyph-name="atilde.ss01" horiz-adv-x="613" 
d="M507 125q-28 -57 -84 -96t-132 -39q-51 0 -95 17.5t-77 50t-51.5 78.5t-18.5 104t18.5 104t51.5 78.5t77 50t95 17.5q76 0 132 -39t84 -96v125h22v-480h-22v125zM73 240q0 -54 17 -96t47 -71.5t70 -45t86 -15.5q39 0 73.5 12t61.5 33t46.5 49.5t30.5 60.5v146
q-11 32 -30.5 60.5t-46.5 49.5t-61.5 33t-73.5 12q-46 0 -86 -15.5t-70 -45t-47 -72t-17 -95.5zM39 694h500v-165h-500v165zM96 567h31q23 0 35 12t12 32q0 18 -12 31t-35 13h-31v-88zM111 639h16q15 0 23 -8t8 -20q0 -29 -31 -29h-16v57zM215 582v21h46v16h-46v20h46v16
h-62v-88h62v15h-46zM380 567v88h-21l-26 -36l-26 36h-21v-88h17v66l30 -39l31 40v-67h16zM450 660q-19 0 -32 -13.5t-13 -33.5q0 -19 11 -33t34 -14q24 0 35.5 14t11.5 33q0 22 -13.5 34.5t-33.5 12.5zM420 613q0 12 7.5 22t22.5 10q16 0 23.5 -10t7.5 -22q0 -13 -7 -22.5
t-24 -9.5q-15 0 -22.5 10.5t-7.5 21.5z" />
    <glyph glyph-name="ae.ss01" horiz-adv-x="1004" 
d="M507 125q-28 -57 -84 -96t-132 -39q-51 0 -95 17.5t-77 50t-51.5 78.5t-18.5 104t18.5 104t51.5 78.5t77 50t95 17.5q76 0 132 -39t84 -96v125h22v-146q12 38 34 67t50.5 49t62 30t68.5 10q66 0 110 -25.5t68.5 -65t32 -87t0.5 -91.5h-424q2 -55 22.5 -94.5t53.5 -65
t75.5 -37.5t88.5 -12q42 0 83 10t72 28v-23q-32 -18 -72.5 -27.5t-83.5 -9.5q-40 0 -78 9t-69.5 27.5t-56 47.5t-37.5 70v-144h-22v125zM73 240q0 -54 17 -96t47 -71.5t70 -45t86 -15.5q39 0 73.5 12t61.5 33t46.5 49.5t30.5 60.5v146q-11 32 -30.5 60.5t-46.5 49.5
t-61.5 33t-73.5 12q-46 0 -86 -15.5t-70 -45t-47 -72t-17 -95.5zM742 468q-41 0 -78.5 -14.5t-66.5 -42.5t-47 -70.5t-19 -97.5h403q3 37 -4.5 76.5t-30 72.5t-61 54.5t-96.5 21.5z" />
    <glyph glyph-name="y.ss01" horiz-adv-x="574" 
d="M490 -8q0 -61 -21 -103.5t-54.5 -68.5t-75 -38t-82.5 -12q-47 0 -90.5 10.5t-69.5 25.5v23q26 -15 68.5 -26t89.5 -11q38 0 75.5 10.5t67.5 34t49 61.5t19 94v114q-12 -18 -31 -38.5t-44.5 -38t-57.5 -28.5t-70 -11q-40 0 -74 13t-59 38t-39 61.5t-14 82.5v295h24v-293
q0 -42 12.5 -75t34.5 -55t52 -33.5t65 -11.5q38 0 70 12t57 30.5t43.5 41.5t30.5 45v339h24v-488v0z" />
    <glyph glyph-name="yacute.ss01" horiz-adv-x="574" 
d="M490 -8q0 -61 -21 -103.5t-54.5 -68.5t-75 -38t-82.5 -12q-47 0 -90.5 10.5t-69.5 25.5v23q26 -15 68.5 -26t89.5 -11q38 0 75.5 10.5t67.5 34t49 61.5t19 94v114q-12 -18 -31 -38.5t-44.5 -38t-57.5 -28.5t-70 -11q-40 0 -74 13t-59 38t-39 61.5t-14 82.5v295h24v-293
q0 -42 12.5 -75t34.5 -55t52 -33.5t65 -11.5q38 0 70 12t57 30.5t43.5 41.5t30.5 45v339h24v-488v0zM51 694h500v-165h-500v165zM108 567h31q23 0 35 12t12 32q0 18 -12 31t-35 13h-31v-88zM123 639h16q15 0 23 -8t8 -20q0 -29 -31 -29h-16v57zM227 582v21h46v16h-46v20h46
v16h-62v-88h62v15h-46zM392 567v88h-21l-26 -36l-26 36h-21v-88h17v66l30 -39l31 40v-67h16zM462 660q-19 0 -32 -13.5t-13 -33.5q0 -19 11 -33t34 -14q24 0 35.5 14t11.5 33q0 22 -13.5 34.5t-33.5 12.5zM432 613q0 12 7.5 22t22.5 10q16 0 23.5 -10t7.5 -22
q0 -13 -7 -22.5t-24 -9.5q-15 0 -22.5 10.5t-7.5 21.5z" />
    <glyph glyph-name="ycircumflex.ss01" horiz-adv-x="574" 
d="M490 -8q0 -61 -21 -103.5t-54.5 -68.5t-75 -38t-82.5 -12q-47 0 -90.5 10.5t-69.5 25.5v23q26 -15 68.5 -26t89.5 -11q38 0 75.5 10.5t67.5 34t49 61.5t19 94v114q-12 -18 -31 -38.5t-44.5 -38t-57.5 -28.5t-70 -11q-40 0 -74 13t-59 38t-39 61.5t-14 82.5v295h24v-293
q0 -42 12.5 -75t34.5 -55t52 -33.5t65 -11.5q38 0 70 12t57 30.5t43.5 41.5t30.5 45v339h24v-488v0zM25 694h500v-165h-500v165zM82 567h31q23 0 35 12t12 32q0 18 -12 31t-35 13h-31v-88zM97 639h16q15 0 23 -8t8 -20q0 -29 -31 -29h-16v57zM201 582v21h46v16h-46v20h46v16
h-62v-88h62v15h-46zM366 567v88h-21l-26 -36l-26 36h-21v-88h17v66l30 -39l31 40v-67h16zM436 660q-19 0 -32 -13.5t-13 -33.5q0 -19 11 -33t34 -14q24 0 35.5 14t11.5 33q0 22 -13.5 34.5t-33.5 12.5zM406 613q0 12 7.5 22t22.5 10q16 0 23.5 -10t7.5 -22q0 -13 -7 -22.5
t-24 -9.5q-15 0 -22.5 10.5t-7.5 21.5z" />
    <glyph glyph-name="ydieresis.ss01" horiz-adv-x="574" 
d="M490 -8q0 -61 -21 -103.5t-54.5 -68.5t-75 -38t-82.5 -12q-47 0 -90.5 10.5t-69.5 25.5v23q26 -15 68.5 -26t89.5 -11q38 0 75.5 10.5t67.5 34t49 61.5t19 94v114q-12 -18 -31 -38.5t-44.5 -38t-57.5 -28.5t-70 -11q-40 0 -74 13t-59 38t-39 61.5t-14 82.5v295h24v-293
q0 -42 12.5 -75t34.5 -55t52 -33.5t65 -11.5q38 0 70 12t57 30.5t43.5 41.5t30.5 45v339h24v-488v0zM31 694h500v-165h-500v165zM88 567h31q23 0 35 12t12 32q0 18 -12 31t-35 13h-31v-88zM103 639h16q15 0 23 -8t8 -20q0 -29 -31 -29h-16v57zM207 582v21h46v16h-46v20h46
v16h-62v-88h62v15h-46zM372 567v88h-21l-26 -36l-26 36h-21v-88h17v66l30 -39l31 40v-67h16zM442 660q-19 0 -32 -13.5t-13 -33.5q0 -19 11 -33t34 -14q24 0 35.5 14t11.5 33q0 22 -13.5 34.5t-33.5 12.5zM412 613q0 12 7.5 22t22.5 10q16 0 23.5 -10t7.5 -22
q0 -13 -7 -22.5t-24 -9.5q-15 0 -22.5 10.5t-7.5 21.5z" />
    <glyph glyph-name="ygrave.ss01" horiz-adv-x="574" 
d="M490 -8q0 -61 -21 -103.5t-54.5 -68.5t-75 -38t-82.5 -12q-47 0 -90.5 10.5t-69.5 25.5v23q26 -15 68.5 -26t89.5 -11q38 0 75.5 10.5t67.5 34t49 61.5t19 94v114q-12 -18 -31 -38.5t-44.5 -38t-57.5 -28.5t-70 -11q-40 0 -74 13t-59 38t-39 61.5t-14 82.5v295h24v-293
q0 -42 12.5 -75t34.5 -55t52 -33.5t65 -11.5q38 0 70 12t57 30.5t43.5 41.5t30.5 45v339h24v-488v0zM36 693h500v-165h-500v165zM93 566h31q23 0 35 12t12 32q0 18 -12 31t-35 13h-31v-88zM108 638h16q15 0 23 -8t8 -20q0 -29 -31 -29h-16v57zM212 581v21h46v16h-46v20h46
v16h-62v-88h62v15h-46zM377 566v88h-21l-26 -36l-26 36h-21v-88h17v66l30 -39l31 40v-67h16zM447 659q-19 0 -32 -13.5t-13 -33.5q0 -19 11 -33t34 -14q24 0 35.5 14t11.5 33q0 22 -13.5 34.5t-33.5 12.5zM417 612q0 12 7.5 22t22.5 10q16 0 23.5 -10t7.5 -22
q0 -13 -7 -22.5t-24 -9.5q-15 0 -22.5 10.5t-7.5 21.5z" />
    <glyph glyph-name="f_b" horiz-adv-x="952" 
d="M447 357q14 28 35.5 52t49.5 42t61.5 28.5t71.5 10.5q51 0 94.5 -17.5t75.5 -50t50 -78.5t18 -104t-18 -104t-50 -78.5t-75.5 -50t-94.5 -17.5q-38 0 -71.5 10.5t-61.5 28.5t-50 42.5t-37 53.5v-125h-22v648q-32 18 -70 29t-83 11q-63 0 -101.5 -34.5t-38.5 -97.5v-76
h195v-23h-195v-457h-24v457h-82v23h82v76q0 39 13 68t35.5 48t52 28.5t62.5 9.5q43 0 81.5 -10t72.5 -29v25l24 8v-347zM447 167q11 -32 31.5 -60.5t48.5 -49.5t62.5 -33t73.5 -12q46 0 86 15.5t68.5 45t45 72t16.5 95.5q0 54 -16.5 96t-45.5 71.5t-68.5 45t-85.5 15.5
q-39 0 -73.5 -12t-62.5 -33t-48.5 -49.5t-31.5 -60.5v-146z" />
    <glyph glyph-name="f_f_b" horiz-adv-x="1262" 
d="M757 357q14 28 35.5 52t49.5 42t61.5 28.5t71.5 10.5q51 0 94.5 -17.5t75.5 -50t50 -78.5t18 -104t-18 -104t-50 -78.5t-75.5 -50t-94.5 -17.5q-38 0 -71.5 10.5t-61.5 28.5t-50 42.5t-37 53.5v-125h-22v650q-32 18 -70 29t-83 11q-63 0 -101.5 -34.5t-38.5 -99.5v-76
h195v-23h-195v-457h-24v457h-286v-457h-24v457h-82v23h82v58q0 39 13 68t36.5 48t54.5 28.5t67 9.5q48 0 85 -13.5t75 -39.5q20 38 58.5 55.5t83.5 17.5q43 0 81.5 -10t72.5 -29v25l24 8v-349zM416 556q0 37 12 64q-34 23 -68 36.5t-82 13.5q-69 0 -108.5 -34.5t-39.5 -97.5
v-58h286v76zM757 167q11 -32 31.5 -60.5t48.5 -49.5t62.5 -33t73.5 -12q46 0 86 15.5t68.5 45t45 72t16.5 95.5q0 54 -16.5 96t-45.5 71.5t-68.5 45t-85.5 15.5q-39 0 -73.5 -12t-62.5 -33t-48.5 -49.5t-31.5 -60.5v-146z" />
    <glyph glyph-name="f_f_h" horiz-adv-x="1223" 
d="M757 374q12 18 31 38.5t44.5 38t57.5 28.5t70 11q39 0 73 -13t59 -38t39.5 -61.5t14.5 -82.5v-295h-24v293q0 42 -12.5 75t-35 55t-52.5 33.5t-64 11.5q-38 0 -70 -12t-57 -30.5t-43.5 -41.5t-30.5 -45v-339h-24v650q-32 18 -70 29t-83 11q-63 0 -101.5 -34.5
t-38.5 -99.5v-76h195v-23h-195v-457h-24v457h-286v-457h-24v457h-82v23h82v58q0 39 13 68t36.5 48t54.5 28.5t67 9.5q48 0 85 -13.5t75 -39.5q20 38 58.5 55.5t83.5 17.5q43 0 81.5 -10t72.5 -29v25l24 8v-332zM416 556q0 37 12 64q-34 23 -68 36.5t-82 13.5
q-69 0 -108.5 -34.5t-39.5 -97.5v-58h286v76z" />
    <glyph glyph-name="f_f_j" horiz-adv-x="834" 
d="M747 -116q0 -33 -10 -55t-26.5 -35t-37.5 -18.5t-42 -5.5q-37 0 -68 11v23q14 -5 30.5 -8.5t33.5 -3.5q18 0 35.5 4.5t31 15.5t21.5 29t8 45v571h-283v-457h-24v457h-286v-457h-24v457h-82v23h82v58q0 39 13 68t36.5 48t54.5 28.5t67 9.5q48 0 84 -13t74 -39
q21 36 59.5 54t84.5 18q83 0 157 -45v-25q-33 21 -73.5 34.5t-82.5 13.5q-63 0 -101.5 -33.5t-38.5 -92.5v-84h307v-596zM130 480h286v84q0 29 10 57q-32 23 -66.5 36t-81.5 13q-69 0 -108.5 -34.5t-39.5 -97.5v-58z" />
    <glyph glyph-name="f_f_k" horiz-adv-x="1139" 
d="M907 247l228 -247h-29l-220 237h-129v-237h-24v650q-32 18 -70 29t-83 11q-63 0 -101.5 -34.5t-38.5 -99.5v-76h195v-23h-195v-457h-24v457h-286v-457h-24v457h-82v23h82v58q0 39 13 68t36.5 48t54.5 28.5t67 9.5q48 0 85 -13.5t75 -39.5q20 38 58.5 55.5t83.5 17.5
q43 0 81.5 -10t72.5 -29v25l24 8v-446h131l190 220h29zM416 556q0 37 12 64q-34 23 -68 36.5t-82 13.5q-69 0 -108.5 -34.5t-39.5 -97.5v-58h286v76z" />
    <glyph glyph-name="f_h" horiz-adv-x="913" 
d="M447 374q12 18 31 38.5t44.5 38t57.5 28.5t70 11q39 0 73 -13t59 -38t39.5 -61.5t14.5 -82.5v-295h-24v293q0 42 -12.5 75t-35 55t-52.5 33.5t-64 11.5q-38 0 -70 -12t-57 -30.5t-43.5 -41.5t-30.5 -45v-339h-24v648q-32 18 -70 29t-83 11q-63 0 -101.5 -34.5
t-38.5 -97.5v-76h195v-23h-195v-457h-24v457h-82v23h82v76q0 39 13 68t35.5 48t52 28.5t62.5 9.5q43 0 81.5 -10t72.5 -29v25l24 8v-330v0z" />
    <glyph glyph-name="f_i" horiz-adv-x="524" 
d="M437 480v-480h-24v457h-283v-457h-24v457h-82v23h82v76q0 39 13 68t35.5 48t52 28.5t62.5 9.5q83 0 157 -45v-25q-33 21 -73.5 34.5t-82.5 13.5q-63 0 -101.5 -34.5t-38.5 -97.5v-76h307z" />
    <glyph glyph-name="f_j" horiz-adv-x="524" 
d="M437 480v-596q0 -33 -10 -55t-26.5 -35t-37.5 -18.5t-42 -5.5q-37 0 -68 11v23q14 -5 30.5 -8.5t33.5 -3.5q18 0 35.5 4.5t31 15.5t21.5 29t8 45v571h-283v-457h-24v457h-82v23h82v76q0 39 13 68t35.5 48t52 28.5t62.5 9.5q83 0 157 -45v-25q-33 21 -73.5 34.5
t-82.5 13.5q-63 0 -101.5 -34.5t-38.5 -97.5v-76h307z" />
    <glyph glyph-name="f_k" horiz-adv-x="829" 
d="M597 247l228 -247h-29l-220 237h-129v-237h-24v648q-32 18 -70 29t-83 11q-63 0 -101.5 -34.5t-38.5 -97.5v-76h195v-23h-195v-457h-24v457h-82v23h82v76q0 39 13 68t35.5 48t52 28.5t62.5 9.5q43 0 81.5 -10t72.5 -29v25l24 8v-444h131l190 220h29z" />
    <glyph glyph-name="f_l" horiz-adv-x="534" 
d="M423 696l24 8v-704h-24v648q-32 18 -70 29t-83 11q-63 0 -101.5 -34.5t-38.5 -97.5v-76h195v-23h-195v-457h-24v457h-82v23h82v76q0 39 13 68t35.5 48t52 28.5t62.5 9.5q43 0 81.5 -10t72.5 -29v25z" />
    <glyph glyph-name="uni0410" unicode="&#x410;" horiz-adv-x="704" 
d="M16 0l322 700h29l321 -700h-27l-99 215h-420l-99 -215h-27zM153 239h400l-193 421l-3.5 8.5t-3.5 7.5q-2 -4 -3.5 -7.5l-3.5 -8.5z" />
    <glyph glyph-name="uni0411" unicode="&#x411;" horiz-adv-x="656" 
d="M329 395q55 0 106.5 -7t91.5 -28.5t63.5 -60t23.5 -101.5t-23.5 -102t-63.5 -60.5t-91.5 -28.5t-106.5 -7h-224v700h458v-24h-433v-281h199zM330 24q52 0 99 6t83 24.5t57 52.5t21 91t-21.5 91t-57.5 52t-83 24t-98 6h-200v-347h200z" />
    <glyph glyph-name="uni0412" unicode="&#x412;" horiz-adv-x="675" 
d="M357 700q51 0 94 -10t74 -31.5t48.5 -54.5t17.5 -79q0 -35 -12 -62t-31.5 -46.5t-44.5 -32t-52 -16.5q26 -5 55.5 -15.5t54.5 -31.5t41.5 -53.5t16.5 -79.5q0 -62 -26.5 -99.5t-66.5 -57t-87.5 -25.5t-89.5 -6h-244v700h252zM594 190q0 53 -23 85.5t-55.5 50t-69 23.5
t-64.5 6h-252v-331h216q40 0 84 5t80.5 22t60 50t23.5 89zM566 523q0 41 -15 70t-43 47.5t-66.5 27t-85.5 8.5h-226v-297h262q33 0 64.5 9.5t55.5 28t39 45t15 61.5z" />
    <glyph glyph-name="uni0413" unicode="&#x413;" horiz-adv-x="571" 
d="M105 0v700h450v-24h-425v-676h-25z" />
    <glyph glyph-name="uni0414" unicode="&#x414;" horiz-adv-x="742" 
d="M16 -177v201h71q36 65 61.5 146t41.5 169.5t23 181t7 179.5h406v-676h85v-201h-24v177h-647v-177h-24zM245 676q-1 -84 -8.5 -173t-23 -174.5t-40 -163.5t-58.5 -141h486v652h-356z" />
    <glyph glyph-name="uni0415" unicode="&#x415;" horiz-adv-x="627" 
d="M560 700v-24h-430v-312h400v-24h-400v-316h439v-24h-464v700h455z" />
    <glyph glyph-name="uni0401" unicode="&#x401;" horiz-adv-x="627" 
d="M73 914h500v-165h-500v165zM130 787h31q23 0 35 12t12 32q0 18 -12 31t-35 13h-31v-88zM145 859h16q15 0 23 -8t8 -20q0 -29 -31 -29h-16v57zM249 802v21h46v16h-46v20h46v16h-62v-88h62v15h-46zM414 787v88h-21l-26 -36l-26 36h-21v-88h17v66l30 -39l31 40v-67h16z
M484 880q-19 0 -32 -13.5t-13 -33.5q0 -19 11 -33t34 -14q24 0 35.5 14t11.5 33q0 22 -13.5 34.5t-33.5 12.5zM454 833q0 12 7.5 22t22.5 10q16 0 23.5 -10t7.5 -22q0 -13 -7 -22.5t-24 -9.5q-15 0 -22.5 10.5t-7.5 21.5zM560 700v-24h-430v-312h400v-24h-400v-316h439v-24
h-464v700h455z" />
    <glyph glyph-name="uni0416" unicode="&#x416;" horiz-adv-x="927" 
d="M11 0l244 359l-217 341h29l208 -329h176v329h25v-329h176l208 329h29l-217 -341l244 -359h-29l-236 347h-175v-347h-25v347h-175l-236 -347h-29z" />
    <glyph glyph-name="uni0417" unicode="&#x417;" horiz-adv-x="603" 
d="M549 187q0 -54 -24.5 -92t-63 -61t-85.5 -33.5t-93 -10.5q-78 0 -134.5 11t-104.5 32v25q48 -21 104.5 -33t133.5 -11q42 0 85.5 9t78 29.5t56.5 54t22 82.5q0 48 -22.5 79.5t-58 50.5t-79.5 26.5t-86 7.5h-129v24h128q49 0 89.5 10.5t69 30.5t44 48t15.5 63
q0 40 -17.5 70t-47.5 49t-70.5 28.5t-86.5 9.5q-68 1 -118 -11t-99 -34v25q46 22 97 33t122 11q49 0 93.5 -11t78.5 -33t53.5 -56t19.5 -79q0 -35 -12.5 -62.5t-35.5 -48.5t-55 -34.5t-71 -19.5q37 -4 73.5 -15t65 -32.5t46.5 -53.5t18 -78z" />
    <glyph glyph-name="uni0418" unicode="&#x418;" horiz-adv-x="767" 
d="M662.007 0v700h-20.999l-510.969 -656v60v596h-24.999v-700h21.999l509.969 657v-60v-597h24.999z" />
    <glyph glyph-name="uni0419" unicode="&#x419;" horiz-adv-x="767" 
d="M662.007 0v700h-20.999l-510.969 -656v60v596h-24.999v-700h21.999l509.969 657v-60v-597h24.999zM129 914h500v-165h-500v165zM186 787h31q23 0 35 12t12 32q0 18 -12 31t-35 13h-31v-88zM201 859h16q15 0 23 -8t8 -20q0 -29 -31 -29h-16v57zM305 802v21h46v16h-46v20
h46v16h-62v-88h62v15h-46zM470 787v88h-21l-26 -36l-26 36h-21v-88h17v66l30 -39l31 40v-67h16zM540 880q-19 0 -32 -13.5t-13 -33.5q0 -19 11 -33t34 -14q24 0 35.5 14t11.5 33q0 22 -13.5 34.5t-33.5 12.5zM510 833q0 12 7.5 22t22.5 10q16 0 23.5 -10t7.5 -22
q0 -13 -7 -22.5t-24 -9.5q-15 0 -22.5 10.5t-7.5 21.5z" />
    <glyph glyph-name="uni041A" unicode="&#x41a;" horiz-adv-x="654" 
d="M105 0v700h25v-329h216l246 329h29l-254 -341l282 -359h-30l-274 347h-215v-347h-25z" />
    <glyph glyph-name="uni041B" unicode="&#x41b;" horiz-adv-x="729" 
d="M624 700v-700h-25v676h-340q-7 -88 -14.5 -173.5t-18.5 -161.5t-26.5 -140.5t-38 -111.5t-52.5 -73t-71 -26q-11 0 -23 2t-25 7v24q23 -8 45 -8q36 0 63 26t47.5 72.5t34.5 111t24 140.5t17 161l14 174h389z" />
    <glyph glyph-name="uni041C" unicode="&#x41c;" horiz-adv-x="897" 
d="M792 700v-700h-25v650l-311 -454h-15l-311 454v-650h-25v700h19l324 -473l325 473h19z" />
    <glyph glyph-name="uni041D" unicode="&#x41d;" horiz-adv-x="767" 
d="M662 700v-700h-25v340h-507v-340h-25v700h25v-336h507v336h25z" />
    <glyph glyph-name="uni041E" unicode="&#x41e;" horiz-adv-x="826" 
d="M52 350q0 65 22.5 129.5t67.5 115.5t112.5 83t158.5 32t158.5 -32t112.5 -83t67.5 -115.5t22.5 -129.5t-22.5 -129.5t-67.5 -115.5t-112.5 -83t-158.5 -32t-158.5 32t-112.5 83t-67.5 115.5t-22.5 129.5zM749 350q0 61 -21 121t-63 108t-105 77.5t-147 29.5t-147 -29.5
t-105 -77.5t-63 -108t-21 -121t21 -121t63 -108t105 -77.5t147 -29.5t147 29.5t105 77.5t63 108t21 121z" />
    <glyph glyph-name="uni041F" unicode="&#x41f;" horiz-adv-x="748" 
d="M105 0v700h538v-700h-25v676h-488v-676h-25z" />
    <glyph glyph-name="uni0420" unicode="&#x420;" horiz-adv-x="651" 
d="M322 700q58 0 111 -10t93 -35t64 -67t24 -105q0 -64 -24 -106t-64 -66.5t-93 -34.5t-111 -10h-192v-266h-25v700h217zM589 483q0 57 -21.5 94.5t-57.5 59t-84.5 30.5t-102.5 9h-193v-386h193q54 0 102 9t84.5 30.5t58 59t21.5 94.5z" />
    <glyph glyph-name="uni0421" unicode="&#x421;" horiz-adv-x="663" 
d="M53 341q0 92 31.5 161t82.5 115.5t115.5 69.5t129.5 23q53 0 103.5 -12t92.5 -36v-25q-40 23 -90 36t-103 13q-62 0 -122 -21.5t-108 -64.5t-77.5 -107.5t-29.5 -151.5q0 -84 30 -145.5t78 -102t108.5 -60t122.5 -19.5q115 0 200 50v-25q-84 -49 -204 -49
q-65 0 -129.5 21t-115.5 64.5t-83 109.5t-32 156z" />
    <glyph glyph-name="uni0422" unicode="&#x422;" horiz-adv-x="593" 
d="M578 700v-24h-269v-676h-25v676h-269v24h563z" />
    <glyph glyph-name="uni0423" unicode="&#x423;" horiz-adv-x="617" 
d="M342 159q-27 -51 -52 -84t-49.5 -52t-50 -26t-52.5 -7q-19 0 -38.5 2.5t-36.5 7.5v24q15 -5 33.5 -7.5t38.5 -2.5q25 0 47 6.5t42.5 21.5t40 40t39.5 61l12 23l-303 534h27l290 -510l262 510h27l-277 -541v0z" />
    <glyph glyph-name="uni0424" unicode="&#x424;" horiz-adv-x="843" 
d="M409 -35v94q-85 1 -154 20t-118.5 56t-76.5 91t-27 124t27 124t76.5 91t118.5 56t154 20v94h25v-94q85 -1 154 -20t118.5 -56t76.5 -91t27 -124t-27 -124t-76.5 -91t-118.5 -56t-154 -20v-94h-25zM58 350q0 -64 24.5 -113.5t70 -83.5t110.5 -52t146 -19v536
q-81 -1 -146 -19t-110.5 -52t-70 -83.5t-24.5 -113.5zM434 82q81 1 146 19t110.5 52t70 83.5t24.5 113.5t-24.5 113.5t-70 83.5t-110.5 52t-146 19v-536z" />
    <glyph glyph-name="uni0425" unicode="&#x425;" horiz-adv-x="606" 
d="M11 0l277 360l-262 340h30l247 -321l248 321h29l-262 -340l277 -360h-29l-263 340l-262 -340h-30z" />
    <glyph glyph-name="uni0427" unicode="&#x427;" horiz-adv-x="672" 
d="M543 0v295q-119 -41 -232 -39q-124 2 -192.5 60t-68.5 175v209h25v-210q0 -54 17 -93.5t48 -65t75.5 -38t99.5 -13.5q115 -2 228 41v379h24v-700h-24z" />
    <glyph glyph-name="uni0426" unicode="&#x426;" horiz-adv-x="760" 
d="M705 -177v177h-600v700h25v-676h489v676h25v-676h85v-201h-24z" />
    <glyph glyph-name="uni0428" unicode="&#x428;" horiz-adv-x="1065" 
d="M105 0v700h25v-676h390v676h25v-676h390v676h25v-700h-855z" />
    <glyph glyph-name="uni0429" unicode="&#x429;" horiz-adv-x="1077" 
d="M1022 -177v177h-917v700h25v-676h390v676h25v-676h390v676h25v-676h86v-201h-24z" />
    <glyph glyph-name="uni042F" unicode="&#x42f;" horiz-adv-x="677" 
d="M39 0l218 279q-42 7 -78 23t-61.5 42t-40 62t-14.5 81q0 53 20 93t54.5 66.5t81 40t100.5 13.5h253v-700h-25v274h-228h-17.5t-17.5 1l-215 -275h-30zM89 487q0 -47 17.5 -82.5t48.5 -59t73 -35.5t91 -12h228v378h-228q-49 0 -91 -12t-73 -35.5t-48.5 -59t-17.5 -82.5z
" />
    <glyph glyph-name="uni042C" unicode="&#x42c;" horiz-adv-x="651" 
d="M105 0v700h25v-266h192q58 0 111 -10t93 -35t64 -66.5t24 -105.5q0 -63 -24 -105t-64 -67t-93 -35t-111 -10h-217zM130 24h193q54 0 102.5 9t84.5 30.5t57.5 59t21.5 94.5t-21.5 94.5t-58 59t-84.5 30.5t-102 9h-193v-386z" />
    <glyph glyph-name="uni042A" unicode="&#x42a;" horiz-adv-x="748" 
d="M203 0v676h-188v24h212v-266h193q58 0 111 -10t93 -35t63.5 -66.5t23.5 -105.5q0 -63 -23.5 -105t-63.5 -67t-93 -35t-111 -10h-217zM227 24h193q54 0 102.5 9t84.5 30.5t57.5 59t21.5 94.5t-21.5 94.5t-58 59t-84.5 30.5t-102 9h-193v-386z" />
    <glyph glyph-name="uni042B" unicode="&#x42b;" horiz-adv-x="830" 
d="M105 0v700h25v-266h192q58 0 111 -10t93 -35t64 -66.5t24 -105.5q0 -63 -24 -105t-64 -67t-93 -35t-111 -10h-217zM130 24h193q54 0 102.5 9t84.5 30.5t57.5 59t21.5 94.5t-21.5 94.5t-58 59t-84.5 30.5t-102 9h-193v-386zM700 0v700h25v-700h-25z" />
    <glyph glyph-name="uni042D" unicode="&#x42d;" horiz-adv-x="658" 
d="M50 662q42 24 92.5 36t103.5 12q65 0 129.5 -23t115.5 -68.5t82.5 -114t31.5 -159.5q0 -92 -32 -159t-83 -110.5t-115.5 -64.5t-129.5 -21q-53 0 -103 12.5t-92 36.5v25q86 -50 192 -50q61 0 121 19t108 58.5t78 101t31 145.5h-409v24h408q-3 81 -33 141.5t-77.5 101
t-106.5 61t-119 20.5q-53 0 -103.5 -13t-89.5 -36v25v0z" />
    <glyph glyph-name="uni042E" unicode="&#x42e;" horiz-adv-x="1076" 
d="M1024 350q0 -65 -22.5 -129.5t-67.5 -115.5t-113 -83t-158 -32q-89 0 -156 30.5t-112 80t-68 112t-25 125.5h-172v-338h-25v700h25v-338h172q2 63 25 125.5t68 112t112 80t156 30.5q90 0 158 -32t113 -83t67.5 -115.5t22.5 -129.5zM326 350q0 -61 21 -121t63 -108
t105 -77.5t147 -29.5t147 29.5t105 77.5t63 108t21 121t-21 121t-63 108t-105 77.5t-147 29.5t-147 -29.5t-105 -77.5t-63 -108t-21 -121z" />
    <glyph glyph-name="uni0414.loclBGR" horiz-adv-x="795" 
d="M28 -177v201h72l283 676h29l283 -676h72v-201h-24v177h-691v-177h-24zM127 24h541l-270 650z" />
    <glyph glyph-name="uni041B.loclBGR" horiz-adv-x="671" 
d="M323 700l-306 -699.957h27l292 671.959l292 -671.959h26l-306 699.957h-25z" />
    <glyph glyph-name="uni0424.loclBGR" horiz-adv-x="883" 
d="M429 -108v99q-86 1 -155.5 29t-119 76t-76 113t-26.5 141t26.5 141t76 113t119 75.5t155.5 29.5v99h25v-99q86 -2 155.5 -29.5t119 -75.5t76 -113t26.5 -141t-26.5 -141t-76 -113t-119 -76t-155.5 -29v-99h-25zM77 350q0 -71 24.5 -131.5t70 -105t111 -71t146.5 -27.5
v670q-81 -2 -146.5 -28t-111 -70.5t-70 -105.5t-24.5 -131zM454 15q81 1 146.5 27.5t111 71t70 105t24.5 131.5q0 70 -24.5 131t-70 105.5t-111 70.5t-146.5 28v-670z" />
    <glyph glyph-name="uni0430" unicode="&#x430;" horiz-adv-x="540" 
d="M444 70q0 -28 15.5 -38.5t36.5 -10.5q20 0 37 7v-21q-21 -8 -42 -8q-13 0 -26 3.5t-23 12t-16 21.5t-6 33v36q-35 -56 -93 -85.5t-124 -29.5q-30 0 -59.5 8t-52.5 25t-37 43t-14 61q0 42 18 70.5t47 46.5t66 26t75 8q47 0 90.5 -8t83.5 -22v52q0 76 -43.5 122t-129.5 46
q-54 0 -97.5 -9.5t-72.5 -20.5v24q28 10 71 19t100 9q96 0 146 -51.5t50 -140.5v-228zM64 128q0 -30 12 -52t32.5 -36.5t46 -21.5t52.5 -7q32 0 63 8t59 24t51.5 39.5t39.5 54.5v89q-38 14 -82 22t-90 8q-35 0 -68 -6.5t-58.5 -21.5t-41.5 -39.5t-16 -60.5z" />
    <glyph glyph-name="uni0431" unicode="&#x431;" horiz-adv-x="590" 
d="M541 224q0 -53 -17.5 -96t-49 -74t-75.5 -47.5t-98 -16.5q-56 0 -101.5 20.5t-78 56.5t-50 86t-17.5 109q0 58 11.5 108.5t32 92.5t48.5 74t61 52q51 32 93 45.5t76.5 22t63 18.5t52.5 35v-27q-24 -23 -52 -32t-61 -17t-72 -21t-86 -42q-119 -74 -143 -262
q14 36 37.5 64.5t53.5 47.5t65 29t72 10q50 0 93 -17.5t74.5 -48.5t49.5 -74.5t18 -95.5zM78 255q0 -51 15.5 -95.5t45 -77t70.5 -51t92 -18.5q49 0 88.5 15.5t68 43t44 66.5t15.5 86q0 46 -15.5 85.5t-44 67.5t-67.5 44t-86 16q-38 0 -74 -11.5t-66.5 -34t-53 -57
t-32.5 -79.5z" />
    <glyph glyph-name="uni0432" unicode="&#x432;" horiz-adv-x="541" 
d="M84 0v480h241q69 0 107 -33t38 -90q0 -42 -21 -71t-63 -40q43 -8 73 -37t30 -84q0 -32 -11.5 -55.5t-32 -39t-48 -23t-60.5 -7.5h-253zM108 22h226q28 0 52 5.5t41.5 18t27.5 32.5t10 48q0 30 -10 50.5t-27.5 33t-40.5 18t-48 5.5h-231v-211zM108 255h218q60 0 90 26.5
t30 74.5t-31.5 75t-92.5 27h-214v-203z" />
    <glyph glyph-name="uni0433" unicode="&#x433;" horiz-adv-x="436" 
d="M84 0v480h337v-23h-313v-457h-24z" />
    <glyph glyph-name="uni0434" unicode="&#x434;" horiz-adv-x="601" 
d="M22 -138v160h61q24 48 41.5 97t29 104t17.5 117.5t6 139.5h323v-458h69v-160h-24v138h-499v-138h-24zM201 458q0 -72 -6.5 -131.5t-18 -112t-28.5 -99.5t-39 -93h368v436h-276z" />
    <glyph glyph-name="uni0435" unicode="&#x435;" horiz-adv-x="543" 
d="M49 240q0 60 20 107t52.5 78.5t74.5 48t87 16.5q66 0 110.5 -25.5t69.5 -64.5t33 -85.5t1 -88.5h-424q1 -57 22 -97.5t54 -66.5t75.5 -38t88.5 -12q42 0 83 10t72 28v-24q-31 -18 -72.5 -27t-85.5 -9q-51 0 -98 14.5t-83.5 44.5t-58 77.5t-21.5 113.5zM476 248
q3 35 -4.5 73.5t-30 71t-61 54t-96.5 21.5q-41 0 -78.5 -14.5t-66.5 -42t-47 -68.5t-19 -95h403z" />
    <glyph glyph-name="uni0451" unicode="&#x451;" horiz-adv-x="543" 
d="M22 694h500v-165h-500v165zM79 567h31q23 0 35 12t12 32q0 18 -12 31t-35 13h-31v-88zM94 639h16q15 0 23 -8t8 -20q0 -29 -31 -29h-16v57zM198 582v21h46v16h-46v20h46v16h-62v-88h62v15h-46zM363 567v88h-21l-26 -36l-26 36h-21v-88h17v66l30 -39l31 40v-67h16z
M433 660q-19 0 -32 -13.5t-13 -33.5q0 -19 11 -33t34 -14q24 0 35.5 14t11.5 33q0 22 -13.5 34.5t-33.5 12.5zM403 613q0 12 7.5 22t22.5 10q16 0 23.5 -10t7.5 -22q0 -13 -7 -22.5t-24 -9.5q-15 0 -22.5 10.5t-7.5 21.5zM49 240q0 60 20 107t52.5 78.5t74.5 48t87 16.5
q66 0 110.5 -25.5t69.5 -64.5t33 -85.5t1 -88.5h-424q1 -57 22 -97.5t54 -66.5t75.5 -38t88.5 -12q42 0 83 10t72 28v-24q-31 -18 -72.5 -27t-85.5 -9q-51 0 -98 14.5t-83.5 44.5t-58 77.5t-21.5 113.5zM476 248q3 35 -4.5 73.5t-30 71t-61 54t-96.5 21.5q-41 0 -78.5 -14.5
t-66.5 -42t-47 -68.5t-19 -95h403z" />
    <glyph glyph-name="uni0436" unicode="&#x436;" horiz-adv-x="709" 
d="M670 0l-210 236h-93v-236h-24v236h-94l-210 -236h-28l217 247l-189 233h29l181 -221h94v221h24v-221h93l182 221h28l-189 -233l217 -247h-28z" />
    <glyph glyph-name="uni0437" unicode="&#x437;" horiz-adv-x="464" 
d="M412 126q0 -37 -16.5 -62.5t-44 -42t-63 -24t-74.5 -7.5q-47 0 -91.5 9t-79.5 25v23q33 -15 78.5 -25t90.5 -10q33 0 64.5 6t56.5 19.5t40 36t15 54.5q0 27 -11.5 46.5t-29.5 32.5t-40 19.5t-42 6.5h-122v22h122q54 5 83.5 29.5t29.5 69.5q0 29 -13.5 50.5t-36 35.5
t-53 21t-63.5 7q-45 0 -85 -9t-78 -25v23q39 16 78.5 25t85.5 9q39 0 73.5 -8.5t60 -25.5t40.5 -42t15 -59q0 -44 -25 -73t-72 -37q19 -5 38.5 -14.5t34.5 -24.5t24.5 -35.5t9.5 -45.5z" />
    <glyph glyph-name="uni0438" unicode="&#x438;" horiz-adv-x="584" 
d="M84 0v480h24v-443l369 443h23v-480h-24v443l-369 -443h-23z" />
    <glyph glyph-name="uni0439" unicode="&#x439;" horiz-adv-x="584" 
d="M416 604q-27 -23 -58 -32t-66 -9t-66 9t-58 32v25q29 -25 59 -34.5t65 -9.5t65 9.5t59 34.5v-25zM84 0v480h24v-443l369 443h23v-480h-24v443l-369 -443h-23z" />
    <glyph glyph-name="uni043A" unicode="&#x43a;" horiz-adv-x="495" 
d="M84 0v480h24v-220h131l190 220h29l-200 -233l228 -247h-29l-220 237h-129v-237h-24z" />
    <glyph glyph-name="uni043B" unicode="&#x43b;" horiz-adv-x="583" 
d="M206 457q-4 -109 -14 -195t-29 -145.5t-47.5 -91t-68.5 -31.5q-20 0 -41 7v21q10 -4 18.5 -5t17.5 -1q69 0 101 120.5t39 343.5h317v-480h-24v457h-269v0z" />
    <glyph glyph-name="uni043C" unicode="&#x43c;" horiz-adv-x="662" 
d="M84 0v480h26l221 -308l220 308h27v-480h-24v444l-215 -301h-17l-215 301v-444h-23z" />
    <glyph glyph-name="uni043D" unicode="&#x43d;" horiz-adv-x="576" 
d="M84 0v480h24v-229h360v229h24v-480h-24v229h-360v-229h-24z" />
    <glyph glyph-name="uni043E" unicode="&#x43e;" horiz-adv-x="592" 
d="M49 240q0 60 20.5 106.5t54.5 78.5t79 48.5t93 16.5q49 0 93.5 -16.5t78.5 -48.5t54.5 -78.5t20.5 -106.5t-20.5 -106.5t-54.5 -78.5t-78.5 -48.5t-93.5 -16.5q-48 0 -93 16.5t-79 48.5t-54.5 78.5t-20.5 106.5zM519 240q0 54 -18 96.5t-49 71.5t-71 44t-85 15t-85 -15
t-71 -44t-49 -71.5t-18 -96.5t18 -96.5t49 -71.5t71 -44t85 -15t85 15t71 44t49 71.5t18 96.5z" />
    <glyph glyph-name="uni043F" unicode="&#x43f;" horiz-adv-x="576" 
d="M84 0v480h408v-480h-24v457h-360v-457h-24z" />
    <glyph glyph-name="uni0440" unicode="&#x440;" horiz-adv-x="613" 
d="M106 355q15 28 37 53t50 43t61.5 28.5t71.5 10.5q51 0 94.5 -17.5t75.5 -50t50 -78.5t18 -104t-18 -104t-50 -78.5t-75.5 -50t-94.5 -17.5q-38 0 -71.5 10.5t-61.5 28.5t-49.5 42t-35.5 52v-343h-24v700h22v-125zM540 240q0 53 -16.5 95.5t-45 72t-68.5 45t-86 15.5
q-39 0 -73.5 -12t-62.5 -33t-48.5 -49.5t-31.5 -60.5v-146q11 -32 31.5 -60.5t48.5 -49.5t62.5 -33t73.5 -12q46 0 85.5 15.5t68.5 45t45.5 71.5t16.5 96z" />
    <glyph glyph-name="uni0441" unicode="&#x441;" horiz-adv-x="497" 
d="M49 236q0 67 22.5 115t59.5 79t83 45.5t93 14.5q35 0 72 -9t68 -30v-23q-29 20 -66 30t-72 10q-44 0 -86 -13.5t-75.5 -41.5t-54 -72t-20.5 -105q0 -57 19 -99.5t50.5 -70t71.5 -41t83 -13.5q41 0 81 9.5t74 29.5v-24q-35 -20 -75 -28.5t-82 -8.5q-46 0 -90.5 14.5
t-79 44.5t-55.5 76.5t-21 110.5z" />
    <glyph glyph-name="uni0442" unicode="&#x442;" horiz-adv-x="451" 
d="M213 0v457h-199v23h423v-23h-200v-457h-24z" />
    <glyph glyph-name="uni0443" unicode="&#x443;" horiz-adv-x="530" 
d="M481 480h26l-255 -568q-18 -40 -36 -67t-37.5 -43.5t-40.5 -24t-45 -7.5t-49 6v22q24 -6 47 -6q45 0 78.5 31t62.5 100l33 75l-248 482h26l234 -455z" />
    <glyph glyph-name="uni0444" unicode="&#x444;" horiz-adv-x="696" 
d="M336 -220v210q-61 1 -113.5 17.5t-91.5 48.5t-61 78t-22 106t22 106t61 78t91.5 48.5t113.5 17.5v210h24v-210q61 -1 113.5 -17.5t91.5 -48.5t61 -78t22 -106t-22 -106t-61 -78t-91.5 -48.5t-113.5 -17.5v-210h-24zM72 240q0 -54 20 -96.5t55.5 -71.5t83.5 -44t105 -16
v456q-57 -1 -105 -16t-83.5 -44t-55.5 -71.5t-20 -96.5zM360 12q57 1 105 16t83.5 44t55.5 71.5t20 96.5t-20 96.5t-55.5 71.5t-83.5 44t-105 16v-456z" />
    <glyph glyph-name="uni0445" unicode="&#x445;" horiz-adv-x="482" 
d="M454 480l-198 -234l209 -246h-29l-195 229l-195 -229h-29l210 246l-199 234h29l184 -216l185 216h28z" />
    <glyph glyph-name="uni0447" unicode="&#x447;" horiz-adv-x="516" 
d="M408 0v185q-74 -32 -167 -32q-44 0 -80 10t-61.5 31t-39.5 53.5t-14 76.5v156h24v-154q0 -79 47.5 -114.5t127.5 -35.5q45 0 85 7t78 24v273h24v-480h-24z" />
    <glyph glyph-name="uni0446" unicode="&#x446;" horiz-adv-x="589" 
d="M534 -138v138h-450v480h24v-457h357v457h24v-457h68v-161h-23z" />
    <glyph glyph-name="uni0448" unicode="&#x448;" horiz-adv-x="806" 
d="M84 0v480h24v-457h283v457h24v-457h283v457h24v-480h-638z" />
    <glyph glyph-name="uni0449" unicode="&#x449;" horiz-adv-x="822" 
d="M767 -138v138h-683v480h24v-457h283v457h24v-457h283v457h24v-457h68v-161h-23z" />
    <glyph glyph-name="uni044F" unicode="&#x44f;" horiz-adv-x="538" 
d="M37 0l148 196q-60 12 -94 49t-34 91q0 64 48 104t130 40h219v-480h-24v192h-195h-13t-12 1l-145 -193h-28zM81 336q0 -55 41.5 -88.5t113.5 -33.5h194v244h-194q-73 0 -114 -34t-41 -88z" />
    <glyph glyph-name="uni044C" unicode="&#x44c;" horiz-adv-x="505" 
d="M84 0v480h24v-184h184q41 0 74 -11t56.5 -30.5t36 -47t12.5 -59.5t-12.5 -59.5t-36 -47t-56.5 -30.5t-74 -11h-208zM108 22h182q74 0 115.5 35.5t41.5 90.5q0 56 -42.5 91t-114.5 35h-182v-252z" />
    <glyph glyph-name="uni044A" unicode="&#x44a;" horiz-adv-x="574" 
d="M361 296q41 0 74 -11t56.5 -30.5t36 -47t12.5 -59.5t-12.5 -59.5t-36 -47t-56.5 -30.5t-74 -11h-208v458h-138v22h162v-184h184zM359 22q74 0 115.5 35.5t41.5 90.5q0 56 -42.5 91t-114.5 35h-182v-252h182z" />
    <glyph glyph-name="uni044B" unicode="&#x44b;" horiz-adv-x="677" 
d="M84 0v480h24v-184h184q41 0 74 -11t56.5 -30.5t36 -47t12.5 -59.5t-12.5 -59.5t-36 -47t-56.5 -30.5t-74 -11h-208zM108 22h182q74 0 115.5 35.5t41.5 90.5q0 56 -42.5 91t-114.5 35h-182v-252zM569 0v480h24v-480h-24z" />
    <glyph glyph-name="uni044D" unicode="&#x44d;" horiz-adv-x="503" 
d="M454 235q0 -66 -21 -112.5t-55.5 -76t-78.5 -43t-89 -13.5q-46 0 -87 11t-78 31v23q35 -20 76.5 -31.5t84.5 -11.5t83 12t71 38t50 67t20 100h-291v22h291q-3 57 -24 98t-54 67.5t-74.5 39t-83.5 12.5q-38 0 -76 -12t-68 -32v23q32 21 69.5 32t75.5 11q47 0 93.5 -15
t83 -46t59.5 -79t23 -115z" />
    <glyph glyph-name="uni044E" unicode="&#x44e;" horiz-adv-x="799" 
d="M750 240q0 -60 -20.5 -106.5t-55 -78.5t-79 -48.5t-93.5 -16.5q-47 0 -91 16t-77.5 46.5t-54.5 75t-23 101.5h-148v-229h-24v480h24v-229h148q2 57 23 101.5t54.5 75t77.5 46.5t91 16q49 0 93.5 -16.5t79 -48.5t55 -78.5t20.5 -106.5zM279 240q0 -54 18 -96.5t49 -71.5
t71 -44t85 -15t85 15t71 44t49 71.5t18 96.5t-18 96.5t-49 71.5t-71 44t-85 15t-85 -15t-71 -44t-49 -71.5t-18 -96.5z" />
    <glyph glyph-name="uni0432.loclBGR" horiz-adv-x="574" 
d="M483 551q0 -53 -29 -95t-100 -68q36 -3 68 -19t55 -41.5t36.5 -59.5t13.5 -74q0 -44 -16 -81.5t-45 -64.5t-70 -42.5t-91 -15.5q-51 0 -94 16.5t-74 50.5t-48.5 86t-17.5 123v105q-1 165 59 252t178 87q40 0 72 -12t55 -33.5t35.5 -50.5t12.5 -63zM459 550q0 29 -10.5 54
t-30.5 44t-48 29.5t-62 10.5q-45 0 -84 -16t-67.5 -53t-45 -98t-16.5 -150v-16l198 35q82 14 124 57t42 103zM95 266q0 -67 15.5 -115t43.5 -79t66.5 -45.5t84.5 -14.5q42 0 78.5 12.5t63 36.5t41.5 57.5t15 75.5t-16.5 77.5t-45 59.5t-67 34t-83.5 2l-196 -35v-66z" />
    <glyph glyph-name="uni0433.loclBGR" horiz-adv-x="464" 
d="M415 38q-16 -11 -37.5 -20t-45.5 -15t-49.5 -9.5t-49.5 -3.5q-39 0 -73.5 7t-60.5 22t-41 38.5t-15 55.5q0 36 15 59.5t39 38t55 23t63 15.5l63 14t55 19.5t39 32t15 50.5q0 27 -13 46.5t-34 32t-48 18.5t-55 6q-44 0 -89 -12t-83 -31v24q38 18 82.5 29.5t90.5 11.5
q32 0 63 -7t55.5 -22t39.5 -38.5t15 -57.5q0 -47 -25.5 -72t-63.5 -39t-83 -21.5t-83 -19.5t-63.5 -34.5t-25.5 -65.5q0 -26 13 -45t35.5 -31.5t52.5 -18.5t65 -6q47 0 97 13.5t85 36.5v-24v0z" />
    <glyph glyph-name="uni0434.loclBGR" horiz-adv-x="613" 
d="M49 240q0 58 18 104t50 78.5t75.5 50t94.5 17.5q38 0 71.5 -10.5t61.5 -28.5t50 -43t37 -53v125h22v-480q0 -61 -21 -104.5t-56 -71.5t-80.5 -41t-93.5 -13q-51 0 -98 11.5t-90 33.5v24q44 -23 89.5 -35t96.5 -12q45 0 86.5 12t73 37t50.5 64.5t19 94.5v124
q-14 -28 -35.5 -52.5t-49.5 -42.5t-61.5 -28.5t-71.5 -10.5q-51 0 -94.5 17.5t-75.5 50t-50 78.5t-18 104zM505 313q-11 32 -31.5 60.5t-48.5 49.5t-62.5 33t-73.5 12q-46 0 -85.5 -15.5t-68.5 -45t-45.5 -71.5t-16.5 -96q0 -53 16.5 -95.5t45.5 -72t68.5 -45t85.5 -15.5
q39 0 73.5 12t62.5 32.5t48.5 48.5t31.5 60v148z" />
    <glyph glyph-name="uni0436.loclBGR" horiz-adv-x="709" 
d="M11 0l217 247l-189 233h29l181 -221h94v441h24v-441h93l182 221h28l-189 -233l217 -247h-28l-210 236h-93v-236h-24v236h-94l-210 -236h-28z" />
    <glyph glyph-name="uni0438.loclBGR" horiz-adv-x="574" 
d="M490 480v-480h-22v108q-12 -19 -31 -39.5t-45 -38t-58 -29t-71 -11.5q-40 0 -74 13t-59 38t-39 61.5t-14 82.5v295h24v-293q0 -42 12.5 -75t34.5 -55t52 -33.5t65 -11.5q38 0 70 12t57 30.5t43.5 41.5t30.5 45v339h24z" />
    <glyph glyph-name="uni0439.loclBGR" horiz-adv-x="574" 
d="M415 604q-27 -23 -58 -32t-66 -9t-66 9t-58 32v25q29 -25 59 -34.5t65 -9.5t65 9.5t59 34.5v-25zM490 480v-480h-22v108q-12 -19 -31 -39.5t-45 -38t-58 -29t-71 -11.5q-40 0 -74 13t-59 38t-39 61.5t-14 82.5v295h24v-293q0 -42 12.5 -75t34.5 -55t52 -33.5t65 -11.5
q38 0 70 12t57 30.5t43.5 41.5t30.5 45v339h24z" />
    <glyph glyph-name="uni043A.loclBGR" horiz-adv-x="495" 
d="M457 0l-220 237h-129v-237h-24v700h24v-440h131l190 220h29l-200 -233l228 -247h-29z" />
    <glyph glyph-name="uni043B.loclBGR" horiz-adv-x="522" 
d="M500 0.0292969l-226 479.971h-26l-226 -479.971h27l212 452.973l212 -452.973h27z" />
    <glyph glyph-name="uni043F.loclBGR" horiz-adv-x="574" 
d="M106 372q12 19 31 39.5t45 38t58 29t71 11.5t73 -13t59 -38t39.5 -61.5t14.5 -82.5v-295h-24v293q0 42 -12.5 75t-35 55t-52.5 33.5t-64 11.5q-38 0 -70 -12t-57 -30.5t-43.5 -41.5t-30.5 -45v-339h-24v480h22v-108v0z" />
    <glyph glyph-name="uni0442.loclBGR" horiz-adv-x="894" 
d="M84 0v480h22v-102q12 18 30 37.5t42 36t54 27.5t65 11q58 0 99.5 -29.5t58.5 -79.5q13 18 32 37.5t43 35t53 26t63 10.5q38 0 69.5 -13t54 -36.5t34.5 -56t12 -71.5v-313h-24v312q0 33 -10 61.5t-29.5 49.5t-47 33t-61.5 12q-32 0 -60 -10.5t-50.5 -26.5t-40.5 -36.5
t-30 -39.5q4 -17 4 -42v-313h-24v312q0 33 -10 61.5t-29.5 49.5t-47 33t-61.5 12t-63 -11.5t-53 -29.5t-41.5 -40t-29.5 -42v-345h-24z" />
    <glyph glyph-name="uni0446.loclBGR" horiz-adv-x="598" 
d="M490 86q0 -37 19 -51t48 -14h17v-159h-23v137q-35 1 -60 19.5t-25 66.5v20q-12 -19 -31.5 -39t-45 -37t-57 -28t-69.5 -11q-40 0 -74 13t-59 38t-39 61.5t-14 82.5v295h24v-293q0 -42 12.5 -75t34.5 -55t52 -33.5t65 -11.5q38 0 70 12t57 30.5t43.5 41.5t30.5 45v339h24
v-394v0z" />
    <glyph glyph-name="uni0448.loclBGR" horiz-adv-x="893" 
d="M809.005 480v-479.971h-21.998v101.994q-12 -17.999 -29.999 -37.498q-17.998 -19.499 -41.9971 -35.998q-23.998 -16.499 -53.9971 -27.498q-29.998 -10.999 -64.9951 -10.999q-57.9971 0 -99.4941 29.498q-41.498 29.498 -58.4971 79.4951
q-12.999 -17.999 -31.998 -37.498q-18.998 -19.499 -42.9971 -34.998q-23.998 -15.499 -52.9971 -25.998q-28.998 -10.499 -62.9961 -10.499q-37.9971 0 -69.4951 12.999t-53.9971 36.498q-22.498 23.498 -34.498 55.9961q-11.999 32.498 -11.999 71.4961v312.98h23.999
v-311.98q0 -32.998 9.99902 -61.4971q9.99902 -28.498 29.498 -49.4971q19.499 -20.998 46.9971 -32.998q27.498 -11.999 61.4961 -11.999q31.998 0 59.9961 10.5q27.999 10.499 50.4971 26.498q22.499 15.999 40.498 36.498q17.999 20.498 29.998 39.4971
q-4 16.999 -4 41.998v312.98h23.999v-311.98q0 -32.998 9.99902 -61.4971q9.99902 -28.498 29.498 -49.4971q19.499 -20.998 46.9971 -32.998q27.499 -11.999 61.4961 -11.999q33.998 0 62.9961 11.5q28.999 11.499 52.9971 29.498q23.999 17.999 41.498 39.9971
q17.499 21.999 29.498 41.998v344.979h23.998z" />
    <glyph glyph-name="uni0449.loclBGR" horiz-adv-x="917" 
d="M809 86q0 -37 19 -51t48 -14h17v-159h-23v137q-35 1 -60 19.5t-25 66.5v14q-12 -18 -30 -37t-42 -35t-53.5 -26.5t-63.5 -10.5q-58 0 -99.5 29.5t-59.5 78.5q-14 -18 -33 -37.5t-43 -35t-52.5 -25.5t-61.5 -10q-38 0 -69.5 13t-54 36.5t-34.5 56t-12 71.5v313h24v-312
q0 -33 10 -61.5t29.5 -49.5t46.5 -33t62 -12q32 0 59.5 10.5t50.5 26.5t41 36t30 40q-4 17 -4 42v313h24v-312q0 -33 10 -61.5t29.5 -49.5t46.5 -33t62 -12q34 0 63 11.5t53 29.5t41.5 40t29.5 42v345h24v-394v0z" />
    <glyph glyph-name="uni044E.loclBGR" horiz-adv-x="799" 
d="M750 240q0 -60 -20.5 -106.5t-55 -78.5t-79 -48.5t-93.5 -16.5q-47 0 -91 16t-77.5 46.5t-54.5 75t-23 101.5h-148v-229h-24v700h24v-449h148q2 57 23 101.5t54.5 75t77.5 46.5t91 16q49 0 93.5 -16.5t79 -48.5t55 -78.5t20.5 -106.5zM279 240q0 -54 18 -96.5t49 -71.5
t71 -44t85 -15t85 15t71 44t49 71.5t18 96.5t-18 96.5t-49 71.5t-71 44t-85 15t-85 -15t-71 -44t-49 -71.5t-18 -96.5z" />
    <glyph glyph-name="uni0430.ss01" horiz-adv-x="613" 
d="M507 125q-28 -57 -84 -96t-132 -39q-51 0 -95 17.5t-77 50t-51.5 78.5t-18.5 104t18.5 104t51.5 78.5t77 50t95 17.5q76 0 132 -39t84 -96v125h22v-480h-22v125zM73 240q0 -54 17 -96t47 -71.5t70 -45t86 -15.5q39 0 73.5 12t61.5 33t46.5 49.5t30.5 60.5v146
q-11 32 -30.5 60.5t-46.5 49.5t-61.5 33t-73.5 12q-46 0 -86 -15.5t-70 -45t-47 -72t-17 -95.5z" />
    <glyph glyph-name="uni0437.ss01" horiz-adv-x="449" 
d="M371 332q0 -56 -30 -97t-102 -67q37 -3 69 -18.5t56 -41t37.5 -60t13.5 -74.5q0 -46 -17 -83.5t-47.5 -64.5t-74 -41.5t-95.5 -14.5q-45 0 -89 10t-79 34v23q35 -23 78.5 -34t87.5 -11q45 0 84 12.5t67.5 35.5t44.5 57t16 77q0 42 -17 78t-46 60.5t-68.5 34t-85.5 -0.5
l-55 -12v23l64 14q86 20 125 58.5t39 101.5q0 30 -11.5 55.5t-32 43.5t-48.5 28t-62 10q-89 0 -161 -44v23q38 23 78 33.5t85 10.5q38 0 70.5 -12t56 -33t36.5 -50t13 -64z" />
    <glyph glyph-name="uni0443.ss01" horiz-adv-x="574" 
d="M490 -8q0 -61 -21 -103.5t-54.5 -68.5t-75 -38t-82.5 -12q-47 0 -90.5 10.5t-69.5 25.5v23q26 -15 68.5 -26t89.5 -11q38 0 75.5 10.5t67.5 34t49 61.5t19 94v114q-12 -18 -31 -38.5t-44.5 -38t-57.5 -28.5t-70 -11q-40 0 -74 13t-59 38t-39 61.5t-14 82.5v295h24v-293
q0 -42 12.5 -75t34.5 -55t52 -33.5t65 -11.5q38 0 70 12t57 30.5t43.5 41.5t30.5 45v339h24v-488v0z" />
    <glyph glyph-name="zero" unicode="0" horiz-adv-x="702" 
d="M59 340q0 77 18 141t54 110.5t91 72.5t129 26t129 -26t91 -72.5t54 -110.5t18 -141t-18 -141t-54 -110.5t-91 -72.5t-129 -26t-129 26t-91 72.5t-54 110.5t-18 141zM618 340q0 73 -16.5 133t-49.5 103t-83 66.5t-118 23.5t-118 -23.5t-83 -66.5t-49.5 -103t-16.5 -133
t16.5 -133t49.5 -103t83 -66.5t118 -23.5t118 23.5t83 66.5t49.5 103t16.5 133z" />
    <glyph glyph-name="one" unicode="1" horiz-adv-x="401" 
d="M236 680v-656h143v-24h-324v24h157v628l-157 -59v24l165 63h16z" />
    <glyph glyph-name="two" unicode="2" horiz-adv-x="558" 
d="M74 629q50 34 101 47.5t102 13.5q48 0 87.5 -11.5t68 -32.5t44.5 -51.5t16 -69.5q0 -44 -16.5 -77.5t-44.5 -61t-63.5 -50.5t-73.5 -45l-80 -47.5t-70 -54t-50 -70.5t-20 -95h427v-24h-453v16q0 62 20.5 106.5t53.5 78t74.5 59.5l83.5 50l70 42.5t60.5 46.5t42 55.5
t15.5 70.5q0 33 -14 59t-39.5 44.5t-61 28.5t-78.5 10q-52 0 -101.5 -15t-100.5 -48v25v0z" />
    <glyph glyph-name="three" unicode="3" horiz-adv-x="587" 
d="M500 511q0 -26 -8 -51.5t-24.5 -46.5t-42.5 -36.5t-61 -22.5q33 -6 63 -19t52.5 -34t36 -51.5t13.5 -70.5q0 -46 -17 -81t-47.5 -59t-72.5 -36.5t-91 -12.5q-79 0 -136.5 11.5t-100.5 32.5v24q46 -21 102.5 -33t133.5 -12q45 0 82.5 11t65 32t42.5 52t15 71
q0 43 -17 73.5t-45.5 50t-66.5 28.5t-80 9h-98v24h96q48 0 82.5 12.5t56.5 33t32.5 46.5t10.5 54q0 32 -13 60.5t-37.5 50t-61 34t-82.5 12.5q-62 0 -110 -11.5t-96 -33.5v24q45 22 94 33t115 11q51 0 90.5 -14.5t67.5 -39t42.5 -57t14.5 -68.5z" />
    <glyph glyph-name="four" unicode="4" horiz-adv-x="636" 
d="M456 680v-486h146v-24h-146v-170h-25v170h-403v22l401 488h27zM431 645l-370 -451h370v451z" />
    <glyph glyph-name="five" unicode="5" horiz-adv-x="573" 
d="M487 680v-24h-362l-19 -293q83 26 167 26q49 0 94 -11t79.5 -35t55 -61.5t20.5 -90.5q0 -45 -16.5 -82t-48 -63.5t-76.5 -41t-101 -14.5q-60 0 -117 12t-100 34v24q45 -23 101 -35t114 -12q51 0 92 13t69 36t43 56t15 73q0 47 -18.5 80t-50 54t-73.5 31t-88 10
q-47 0 -94.5 -8.5t-92.5 -24.5l22 347h385z" />
    <glyph glyph-name="six" unicode="6" horiz-adv-x="603" 
d="M85 295q51 54 115 84.5t134 30.5q43 0 83.5 -12.5t71.5 -38.5t49.5 -65t18.5 -92q0 -51 -18 -90.5t-49 -66.5t-72.5 -41t-88.5 -14q-67 0 -117.5 23t-84 66t-50.5 104t-17 136q0 99 21.5 169.5t60.5 115.5t94 65.5t121 20.5q39 0 75.5 -9.5t67.5 -26.5v-24
q-32 18 -68.5 27t-74.5 9q-61 0 -111 -19t-86 -60.5t-55.5 -108t-19.5 -160.5v-23zM87 267q11 -120 71 -187t169 -67q43 0 80.5 12t65 36t43.5 59t16 81q0 48 -16.5 83t-44.5 57.5t-64.5 33.5t-76.5 11q-68 0 -132 -31t-111 -88z" />
    <glyph glyph-name="seven" unicode="7" horiz-adv-x="514" 
d="M496 680v-20l-322 -660h-26l319 656h-429v24h458z" />
    <glyph glyph-name="eight" unicode="8" horiz-adv-x="641" 
d="M83 527q0 31 13.5 60t42.5 52t74 37t107 14q58 0 102.5 -15t74.5 -40t46 -56t16 -62q0 -63 -32 -112.5t-87 -78.5q30 -11 56.5 -25.5t46 -34t30.5 -45t11 -58.5t-16 -64t-48.5 -55.5t-82 -39t-115.5 -14.5t-115.5 15t-82.5 41t-49.5 61t-16.5 74q0 63 35.5 116t102.5 83
q-50 22 -81.5 56.5t-31.5 90.5zM321 338q-26 8 -52.5 15t-50.5 17q-65 -26 -100.5 -76.5t-35.5 -110.5q0 -36 14.5 -67t44.5 -54t75 -36t105 -13q59 0 103.5 12.5t74 33t44.5 47.5t15 56q0 43 -20 71.5t-53.5 47.5t-76 32t-87.5 25zM534 514q0 28 -14 55t-41 49t-67 35.5
t-93 13.5q-55 0 -95 -12t-66 -31.5t-38.5 -44.5t-12.5 -52q0 -42 20.5 -69.5t52 -45.5t69 -29.5t70.5 -20.5q24 -7 49 -13.5t48 -13.5q54 27 86 73t32 106z" />
    <glyph glyph-name="nine" unicode="9" horiz-adv-x="603" 
d="M46 478q0 51 18 90.5t48.5 66.5t72 41t89.5 14q67 0 117 -23t84 -66t51 -104t17 -136q0 -99 -21.5 -169.5t-60.5 -115.5t-94 -65.5t-121 -20.5q-40 0 -76.5 9.5t-67.5 26.5v24q32 -18 69 -27t74 -9q61 0 111.5 19t86.5 60.5t55.5 107.5t19.5 161v23q-51 -54 -115.5 -84.5
t-133.5 -30.5q-43 0 -83.5 12.5t-71.5 38.5t-49.5 65t-18.5 92zM71 479q0 -48 16.5 -83t44.5 -57.5t64.5 -33.5t76.5 -11q68 0 132 31t111 88q-11 120 -71.5 187t-169.5 67q-43 0 -80 -12t-64.5 -36t-43.5 -59t-16 -81z" />
    <glyph glyph-name="zero.osf" 
d="M71 0v700h232v-700h-232zM247 77v48q0 32 -19 46.5t-42 13.5q-23 0 -41.5 -14t-18.5 -46v-48h121zM148 125q-1 20 11.5 28t26.5 10q14 0 27 -8.5t13 -29.5v-26h-78v26zM226 243h-28v65h-21v-65h-28v67h-23v-90h121v90h-21v-67zM247 477h-121v-26l53 -39l-53 -37v-26h121
v22h-87l53 39v4l-53 41h87v22zM123 574q0 -26 18 -44t47 -18q23 0 43 15t20 47t-20.5 46.5t-43.5 15.5q-23 0 -43.5 -15t-20.5 -47zM188 534q-18 -1 -31 9.5t-12 30.5q0 22 14 31t29 9q15 -2 28 -10t13 -30t-13 -31t-28 -9z" />
    <glyph glyph-name="one.osf" 
d="M71 0v700h232v-700h-232zM247 77v48q0 32 -19 46.5t-42 13.5q-23 0 -41.5 -14t-18.5 -46v-48h121zM148 125q-1 20 11.5 28t26.5 10q14 0 27 -8.5t13 -29.5v-26h-78v26zM226 243h-28v65h-21v-65h-28v67h-23v-90h121v90h-21v-67zM247 477h-121v-26l53 -39l-53 -37v-26h121
v22h-87l53 39v4l-53 41h87v22zM123 574q0 -26 18 -44t47 -18q23 0 43 15t20 47t-20.5 46.5t-43.5 15.5q-23 0 -43.5 -15t-20.5 -47zM188 534q-18 -1 -31 9.5t-12 30.5q0 22 14 31t29 9q15 -2 28 -10t13 -30t-13 -31t-28 -9z" />
    <glyph glyph-name="two.osf" 
d="M71 0v700h232v-700h-232zM247 77v48q0 32 -19 46.5t-42 13.5q-23 0 -41.5 -14t-18.5 -46v-48h121zM148 125q-1 20 11.5 28t26.5 10q14 0 27 -8.5t13 -29.5v-26h-78v26zM226 243h-28v65h-21v-65h-28v67h-23v-90h121v90h-21v-67zM247 477h-121v-26l53 -39l-53 -37v-26h121
v22h-87l53 39v4l-53 41h87v22zM123 574q0 -26 18 -44t47 -18q23 0 43 15t20 47t-20.5 46.5t-43.5 15.5q-23 0 -43.5 -15t-20.5 -47zM188 534q-18 -1 -31 9.5t-12 30.5q0 22 14 31t29 9q15 -2 28 -10t13 -30t-13 -31t-28 -9z" />
    <glyph glyph-name="three.osf" 
d="M71 0v700h232v-700h-232zM247 77v48q0 32 -19 46.5t-42 13.5q-23 0 -41.5 -14t-18.5 -46v-48h121zM148 125q-1 20 11.5 28t26.5 10q14 0 27 -8.5t13 -29.5v-26h-78v26zM226 243h-28v65h-21v-65h-28v67h-23v-90h121v90h-21v-67zM247 477h-121v-26l53 -39l-53 -37v-26h121
v22h-87l53 39v4l-53 41h87v22zM123 574q0 -26 18 -44t47 -18q23 0 43 15t20 47t-20.5 46.5t-43.5 15.5q-23 0 -43.5 -15t-20.5 -47zM188 534q-18 -1 -31 9.5t-12 30.5q0 22 14 31t29 9q15 -2 28 -10t13 -30t-13 -31t-28 -9z" />
    <glyph glyph-name="four.osf" 
d="M71 0v700h232v-700h-232zM247 77v48q0 32 -19 46.5t-42 13.5q-23 0 -41.5 -14t-18.5 -46v-48h121zM148 125q-1 20 11.5 28t26.5 10q14 0 27 -8.5t13 -29.5v-26h-78v26zM226 243h-28v65h-21v-65h-28v67h-23v-90h121v90h-21v-67zM247 477h-121v-26l53 -39l-53 -37v-26h121
v22h-87l53 39v4l-53 41h87v22zM123 574q0 -26 18 -44t47 -18q23 0 43 15t20 47t-20.5 46.5t-43.5 15.5q-23 0 -43.5 -15t-20.5 -47zM188 534q-18 -1 -31 9.5t-12 30.5q0 22 14 31t29 9q15 -2 28 -10t13 -30t-13 -31t-28 -9z" />
    <glyph glyph-name="five.osf" 
d="M71 0v700h232v-700h-232zM247 77v48q0 32 -19 46.5t-42 13.5q-23 0 -41.5 -14t-18.5 -46v-48h121zM148 125q-1 20 11.5 28t26.5 10q14 0 27 -8.5t13 -29.5v-26h-78v26zM226 243h-28v65h-21v-65h-28v67h-23v-90h121v90h-21v-67zM247 477h-121v-26l53 -39l-53 -37v-26h121
v22h-87l53 39v4l-53 41h87v22zM123 574q0 -26 18 -44t47 -18q23 0 43 15t20 47t-20.5 46.5t-43.5 15.5q-23 0 -43.5 -15t-20.5 -47zM188 534q-18 -1 -31 9.5t-12 30.5q0 22 14 31t29 9q15 -2 28 -10t13 -30t-13 -31t-28 -9z" />
    <glyph glyph-name="six.osf" 
d="M71 0v700h232v-700h-232zM247 77v48q0 32 -19 46.5t-42 13.5q-23 0 -41.5 -14t-18.5 -46v-48h121zM148 125q-1 20 11.5 28t26.5 10q14 0 27 -8.5t13 -29.5v-26h-78v26zM226 243h-28v65h-21v-65h-28v67h-23v-90h121v90h-21v-67zM247 477h-121v-26l53 -39l-53 -37v-26h121
v22h-87l53 39v4l-53 41h87v22zM123 574q0 -26 18 -44t47 -18q23 0 43 15t20 47t-20.5 46.5t-43.5 15.5q-23 0 -43.5 -15t-20.5 -47zM188 534q-18 -1 -31 9.5t-12 30.5q0 22 14 31t29 9q15 -2 28 -10t13 -30t-13 -31t-28 -9z" />
    <glyph glyph-name="seven.osf" 
d="M71 0v700h232v-700h-232zM247 77v48q0 32 -19 46.5t-42 13.5q-23 0 -41.5 -14t-18.5 -46v-48h121zM148 125q-1 20 11.5 28t26.5 10q14 0 27 -8.5t13 -29.5v-26h-78v26zM226 243h-28v65h-21v-65h-28v67h-23v-90h121v90h-21v-67zM247 477h-121v-26l53 -39l-53 -37v-26h121
v22h-87l53 39v4l-53 41h87v22zM123 574q0 -26 18 -44t47 -18q23 0 43 15t20 47t-20.5 46.5t-43.5 15.5q-23 0 -43.5 -15t-20.5 -47zM188 534q-18 -1 -31 9.5t-12 30.5q0 22 14 31t29 9q15 -2 28 -10t13 -30t-13 -31t-28 -9z" />
    <glyph glyph-name="eight.osf" 
d="M71 0v700h232v-700h-232zM247 77v48q0 32 -19 46.5t-42 13.5q-23 0 -41.5 -14t-18.5 -46v-48h121zM148 125q-1 20 11.5 28t26.5 10q14 0 27 -8.5t13 -29.5v-26h-78v26zM226 243h-28v65h-21v-65h-28v67h-23v-90h121v90h-21v-67zM247 477h-121v-26l53 -39l-53 -37v-26h121
v22h-87l53 39v4l-53 41h87v22zM123 574q0 -26 18 -44t47 -18q23 0 43 15t20 47t-20.5 46.5t-43.5 15.5q-23 0 -43.5 -15t-20.5 -47zM188 534q-18 -1 -31 9.5t-12 30.5q0 22 14 31t29 9q15 -2 28 -10t13 -30t-13 -31t-28 -9z" />
    <glyph glyph-name="nine.osf" 
d="M71 0v700h232v-700h-232zM247 77v48q0 32 -19 46.5t-42 13.5q-23 0 -41.5 -14t-18.5 -46v-48h121zM148 125q-1 20 11.5 28t26.5 10q14 0 27 -8.5t13 -29.5v-26h-78v26zM226 243h-28v65h-21v-65h-28v67h-23v-90h121v90h-21v-67zM247 477h-121v-26l53 -39l-53 -37v-26h121
v22h-87l53 39v4l-53 41h87v22zM123 574q0 -26 18 -44t47 -18q23 0 43 15t20 47t-20.5 46.5t-43.5 15.5q-23 0 -43.5 -15t-20.5 -47zM188 534q-18 -1 -31 9.5t-12 30.5q0 22 14 31t29 9q15 -2 28 -10t13 -30t-13 -31t-28 -9z" />
    <glyph glyph-name="zero.sinf" unicode="&#x2080;" 
d="M71 0v700h232v-700h-232zM247 77v48q0 32 -19 46.5t-42 13.5q-23 0 -41.5 -14t-18.5 -46v-48h121zM148 125q-1 20 11.5 28t26.5 10q14 0 27 -8.5t13 -29.5v-26h-78v26zM226 243h-28v65h-21v-65h-28v67h-23v-90h121v90h-21v-67zM247 477h-121v-26l53 -39l-53 -37v-26h121
v22h-87l53 39v4l-53 41h87v22zM123 574q0 -26 18 -44t47 -18q23 0 43 15t20 47t-20.5 46.5t-43.5 15.5q-23 0 -43.5 -15t-20.5 -47zM188 534q-18 -1 -31 9.5t-12 30.5q0 22 14 31t29 9q15 -2 28 -10t13 -30t-13 -31t-28 -9z" />
    <glyph glyph-name="one.sinf" unicode="&#x2081;" 
d="M71 0v700h232v-700h-232zM247 77v48q0 32 -19 46.5t-42 13.5q-23 0 -41.5 -14t-18.5 -46v-48h121zM148 125q-1 20 11.5 28t26.5 10q14 0 27 -8.5t13 -29.5v-26h-78v26zM226 243h-28v65h-21v-65h-28v67h-23v-90h121v90h-21v-67zM247 477h-121v-26l53 -39l-53 -37v-26h121
v22h-87l53 39v4l-53 41h87v22zM123 574q0 -26 18 -44t47 -18q23 0 43 15t20 47t-20.5 46.5t-43.5 15.5q-23 0 -43.5 -15t-20.5 -47zM188 534q-18 -1 -31 9.5t-12 30.5q0 22 14 31t29 9q15 -2 28 -10t13 -30t-13 -31t-28 -9z" />
    <glyph glyph-name="two.sinf" unicode="&#x2082;" 
d="M71 0v700h232v-700h-232zM247 77v48q0 32 -19 46.5t-42 13.5q-23 0 -41.5 -14t-18.5 -46v-48h121zM148 125q-1 20 11.5 28t26.5 10q14 0 27 -8.5t13 -29.5v-26h-78v26zM226 243h-28v65h-21v-65h-28v67h-23v-90h121v90h-21v-67zM247 477h-121v-26l53 -39l-53 -37v-26h121
v22h-87l53 39v4l-53 41h87v22zM123 574q0 -26 18 -44t47 -18q23 0 43 15t20 47t-20.5 46.5t-43.5 15.5q-23 0 -43.5 -15t-20.5 -47zM188 534q-18 -1 -31 9.5t-12 30.5q0 22 14 31t29 9q15 -2 28 -10t13 -30t-13 -31t-28 -9z" />
    <glyph glyph-name="three.sinf" unicode="&#x2083;" 
d="M71 0v700h232v-700h-232zM247 77v48q0 32 -19 46.5t-42 13.5q-23 0 -41.5 -14t-18.5 -46v-48h121zM148 125q-1 20 11.5 28t26.5 10q14 0 27 -8.5t13 -29.5v-26h-78v26zM226 243h-28v65h-21v-65h-28v67h-23v-90h121v90h-21v-67zM247 477h-121v-26l53 -39l-53 -37v-26h121
v22h-87l53 39v4l-53 41h87v22zM123 574q0 -26 18 -44t47 -18q23 0 43 15t20 47t-20.5 46.5t-43.5 15.5q-23 0 -43.5 -15t-20.5 -47zM188 534q-18 -1 -31 9.5t-12 30.5q0 22 14 31t29 9q15 -2 28 -10t13 -30t-13 -31t-28 -9z" />
    <glyph glyph-name="four.sinf" unicode="&#x2084;" 
d="M71 0v700h232v-700h-232zM247 77v48q0 32 -19 46.5t-42 13.5q-23 0 -41.5 -14t-18.5 -46v-48h121zM148 125q-1 20 11.5 28t26.5 10q14 0 27 -8.5t13 -29.5v-26h-78v26zM226 243h-28v65h-21v-65h-28v67h-23v-90h121v90h-21v-67zM247 477h-121v-26l53 -39l-53 -37v-26h121
v22h-87l53 39v4l-53 41h87v22zM123 574q0 -26 18 -44t47 -18q23 0 43 15t20 47t-20.5 46.5t-43.5 15.5q-23 0 -43.5 -15t-20.5 -47zM188 534q-18 -1 -31 9.5t-12 30.5q0 22 14 31t29 9q15 -2 28 -10t13 -30t-13 -31t-28 -9z" />
    <glyph glyph-name="five.sinf" unicode="&#x2085;" 
d="M71 0v700h232v-700h-232zM247 77v48q0 32 -19 46.5t-42 13.5q-23 0 -41.5 -14t-18.5 -46v-48h121zM148 125q-1 20 11.5 28t26.5 10q14 0 27 -8.5t13 -29.5v-26h-78v26zM226 243h-28v65h-21v-65h-28v67h-23v-90h121v90h-21v-67zM247 477h-121v-26l53 -39l-53 -37v-26h121
v22h-87l53 39v4l-53 41h87v22zM123 574q0 -26 18 -44t47 -18q23 0 43 15t20 47t-20.5 46.5t-43.5 15.5q-23 0 -43.5 -15t-20.5 -47zM188 534q-18 -1 -31 9.5t-12 30.5q0 22 14 31t29 9q15 -2 28 -10t13 -30t-13 -31t-28 -9z" />
    <glyph glyph-name="six.sinf" unicode="&#x2086;" 
d="M71 0v700h232v-700h-232zM247 77v48q0 32 -19 46.5t-42 13.5q-23 0 -41.5 -14t-18.5 -46v-48h121zM148 125q-1 20 11.5 28t26.5 10q14 0 27 -8.5t13 -29.5v-26h-78v26zM226 243h-28v65h-21v-65h-28v67h-23v-90h121v90h-21v-67zM247 477h-121v-26l53 -39l-53 -37v-26h121
v22h-87l53 39v4l-53 41h87v22zM123 574q0 -26 18 -44t47 -18q23 0 43 15t20 47t-20.5 46.5t-43.5 15.5q-23 0 -43.5 -15t-20.5 -47zM188 534q-18 -1 -31 9.5t-12 30.5q0 22 14 31t29 9q15 -2 28 -10t13 -30t-13 -31t-28 -9z" />
    <glyph glyph-name="seven.sinf" unicode="&#x2087;" 
d="M71 0v700h232v-700h-232zM247 77v48q0 32 -19 46.5t-42 13.5q-23 0 -41.5 -14t-18.5 -46v-48h121zM148 125q-1 20 11.5 28t26.5 10q14 0 27 -8.5t13 -29.5v-26h-78v26zM226 243h-28v65h-21v-65h-28v67h-23v-90h121v90h-21v-67zM247 477h-121v-26l53 -39l-53 -37v-26h121
v22h-87l53 39v4l-53 41h87v22zM123 574q0 -26 18 -44t47 -18q23 0 43 15t20 47t-20.5 46.5t-43.5 15.5q-23 0 -43.5 -15t-20.5 -47zM188 534q-18 -1 -31 9.5t-12 30.5q0 22 14 31t29 9q15 -2 28 -10t13 -30t-13 -31t-28 -9z" />
    <glyph glyph-name="eight.sinf" unicode="&#x2088;" 
d="M71 0v700h232v-700h-232zM247 77v48q0 32 -19 46.5t-42 13.5q-23 0 -41.5 -14t-18.5 -46v-48h121zM148 125q-1 20 11.5 28t26.5 10q14 0 27 -8.5t13 -29.5v-26h-78v26zM226 243h-28v65h-21v-65h-28v67h-23v-90h121v90h-21v-67zM247 477h-121v-26l53 -39l-53 -37v-26h121
v22h-87l53 39v4l-53 41h87v22zM123 574q0 -26 18 -44t47 -18q23 0 43 15t20 47t-20.5 46.5t-43.5 15.5q-23 0 -43.5 -15t-20.5 -47zM188 534q-18 -1 -31 9.5t-12 30.5q0 22 14 31t29 9q15 -2 28 -10t13 -30t-13 -31t-28 -9z" />
    <glyph glyph-name="nine.sinf" unicode="&#x2089;" 
d="M71 0v700h232v-700h-232zM247 77v48q0 32 -19 46.5t-42 13.5q-23 0 -41.5 -14t-18.5 -46v-48h121zM148 125q-1 20 11.5 28t26.5 10q14 0 27 -8.5t13 -29.5v-26h-78v26zM226 243h-28v65h-21v-65h-28v67h-23v-90h121v90h-21v-67zM247 477h-121v-26l53 -39l-53 -37v-26h121
v22h-87l53 39v4l-53 41h87v22zM123 574q0 -26 18 -44t47 -18q23 0 43 15t20 47t-20.5 46.5t-43.5 15.5q-23 0 -43.5 -15t-20.5 -47zM188 534q-18 -1 -31 9.5t-12 30.5q0 22 14 31t29 9q15 -2 28 -10t13 -30t-13 -31t-28 -9z" />
    <glyph glyph-name="zero.sups" unicode="&#x2070;" 
d="M71 0v700h232v-700h-232zM247 77v48q0 32 -19 46.5t-42 13.5q-23 0 -41.5 -14t-18.5 -46v-48h121zM148 125q-1 20 11.5 28t26.5 10q14 0 27 -8.5t13 -29.5v-26h-78v26zM226 243h-28v65h-21v-65h-28v67h-23v-90h121v90h-21v-67zM247 477h-121v-26l53 -39l-53 -37v-26h121
v22h-87l53 39v4l-53 41h87v22zM123 574q0 -26 18 -44t47 -18q23 0 43 15t20 47t-20.5 46.5t-43.5 15.5q-23 0 -43.5 -15t-20.5 -47zM188 534q-18 -1 -31 9.5t-12 30.5q0 22 14 31t29 9q15 -2 28 -10t13 -30t-13 -31t-28 -9z" />
    <glyph glyph-name="one.sups" unicode="&#xb9;" 
d="M71 0v700h232v-700h-232zM247 77v48q0 32 -19 46.5t-42 13.5q-23 0 -41.5 -14t-18.5 -46v-48h121zM148 125q-1 20 11.5 28t26.5 10q14 0 27 -8.5t13 -29.5v-26h-78v26zM226 243h-28v65h-21v-65h-28v67h-23v-90h121v90h-21v-67zM247 477h-121v-26l53 -39l-53 -37v-26h121
v22h-87l53 39v4l-53 41h87v22zM123 574q0 -26 18 -44t47 -18q23 0 43 15t20 47t-20.5 46.5t-43.5 15.5q-23 0 -43.5 -15t-20.5 -47zM188 534q-18 -1 -31 9.5t-12 30.5q0 22 14 31t29 9q15 -2 28 -10t13 -30t-13 -31t-28 -9z" />
    <glyph glyph-name="two.sups" unicode="&#xb2;" 
d="M71 0v700h232v-700h-232zM247 77v48q0 32 -19 46.5t-42 13.5q-23 0 -41.5 -14t-18.5 -46v-48h121zM148 125q-1 20 11.5 28t26.5 10q14 0 27 -8.5t13 -29.5v-26h-78v26zM226 243h-28v65h-21v-65h-28v67h-23v-90h121v90h-21v-67zM247 477h-121v-26l53 -39l-53 -37v-26h121
v22h-87l53 39v4l-53 41h87v22zM123 574q0 -26 18 -44t47 -18q23 0 43 15t20 47t-20.5 46.5t-43.5 15.5q-23 0 -43.5 -15t-20.5 -47zM188 534q-18 -1 -31 9.5t-12 30.5q0 22 14 31t29 9q15 -2 28 -10t13 -30t-13 -31t-28 -9z" />
    <glyph glyph-name="three.sups" unicode="&#xb3;" 
d="M71 0v700h232v-700h-232zM247 77v48q0 32 -19 46.5t-42 13.5q-23 0 -41.5 -14t-18.5 -46v-48h121zM148 125q-1 20 11.5 28t26.5 10q14 0 27 -8.5t13 -29.5v-26h-78v26zM226 243h-28v65h-21v-65h-28v67h-23v-90h121v90h-21v-67zM247 477h-121v-26l53 -39l-53 -37v-26h121
v22h-87l53 39v4l-53 41h87v22zM123 574q0 -26 18 -44t47 -18q23 0 43 15t20 47t-20.5 46.5t-43.5 15.5q-23 0 -43.5 -15t-20.5 -47zM188 534q-18 -1 -31 9.5t-12 30.5q0 22 14 31t29 9q15 -2 28 -10t13 -30t-13 -31t-28 -9z" />
    <glyph glyph-name="four.sups" unicode="&#x2074;" 
d="M71 0v700h232v-700h-232zM247 77v48q0 32 -19 46.5t-42 13.5q-23 0 -41.5 -14t-18.5 -46v-48h121zM148 125q-1 20 11.5 28t26.5 10q14 0 27 -8.5t13 -29.5v-26h-78v26zM226 243h-28v65h-21v-65h-28v67h-23v-90h121v90h-21v-67zM247 477h-121v-26l53 -39l-53 -37v-26h121
v22h-87l53 39v4l-53 41h87v22zM123 574q0 -26 18 -44t47 -18q23 0 43 15t20 47t-20.5 46.5t-43.5 15.5q-23 0 -43.5 -15t-20.5 -47zM188 534q-18 -1 -31 9.5t-12 30.5q0 22 14 31t29 9q15 -2 28 -10t13 -30t-13 -31t-28 -9z" />
    <glyph glyph-name="five.sups" unicode="&#x2075;" 
d="M71 0v700h232v-700h-232zM247 77v48q0 32 -19 46.5t-42 13.5q-23 0 -41.5 -14t-18.5 -46v-48h121zM148 125q-1 20 11.5 28t26.5 10q14 0 27 -8.5t13 -29.5v-26h-78v26zM226 243h-28v65h-21v-65h-28v67h-23v-90h121v90h-21v-67zM247 477h-121v-26l53 -39l-53 -37v-26h121
v22h-87l53 39v4l-53 41h87v22zM123 574q0 -26 18 -44t47 -18q23 0 43 15t20 47t-20.5 46.5t-43.5 15.5q-23 0 -43.5 -15t-20.5 -47zM188 534q-18 -1 -31 9.5t-12 30.5q0 22 14 31t29 9q15 -2 28 -10t13 -30t-13 -31t-28 -9z" />
    <glyph glyph-name="six.sups" unicode="&#x2076;" 
d="M71 0v700h232v-700h-232zM247 77v48q0 32 -19 46.5t-42 13.5q-23 0 -41.5 -14t-18.5 -46v-48h121zM148 125q-1 20 11.5 28t26.5 10q14 0 27 -8.5t13 -29.5v-26h-78v26zM226 243h-28v65h-21v-65h-28v67h-23v-90h121v90h-21v-67zM247 477h-121v-26l53 -39l-53 -37v-26h121
v22h-87l53 39v4l-53 41h87v22zM123 574q0 -26 18 -44t47 -18q23 0 43 15t20 47t-20.5 46.5t-43.5 15.5q-23 0 -43.5 -15t-20.5 -47zM188 534q-18 -1 -31 9.5t-12 30.5q0 22 14 31t29 9q15 -2 28 -10t13 -30t-13 -31t-28 -9z" />
    <glyph glyph-name="seven.sups" unicode="&#x2077;" 
d="M71 0v700h232v-700h-232zM247 77v48q0 32 -19 46.5t-42 13.5q-23 0 -41.5 -14t-18.5 -46v-48h121zM148 125q-1 20 11.5 28t26.5 10q14 0 27 -8.5t13 -29.5v-26h-78v26zM226 243h-28v65h-21v-65h-28v67h-23v-90h121v90h-21v-67zM247 477h-121v-26l53 -39l-53 -37v-26h121
v22h-87l53 39v4l-53 41h87v22zM123 574q0 -26 18 -44t47 -18q23 0 43 15t20 47t-20.5 46.5t-43.5 15.5q-23 0 -43.5 -15t-20.5 -47zM188 534q-18 -1 -31 9.5t-12 30.5q0 22 14 31t29 9q15 -2 28 -10t13 -30t-13 -31t-28 -9z" />
    <glyph glyph-name="eight.sups" unicode="&#x2078;" 
d="M71 0v700h232v-700h-232zM247 77v48q0 32 -19 46.5t-42 13.5q-23 0 -41.5 -14t-18.5 -46v-48h121zM148 125q-1 20 11.5 28t26.5 10q14 0 27 -8.5t13 -29.5v-26h-78v26zM226 243h-28v65h-21v-65h-28v67h-23v-90h121v90h-21v-67zM247 477h-121v-26l53 -39l-53 -37v-26h121
v22h-87l53 39v4l-53 41h87v22zM123 574q0 -26 18 -44t47 -18q23 0 43 15t20 47t-20.5 46.5t-43.5 15.5q-23 0 -43.5 -15t-20.5 -47zM188 534q-18 -1 -31 9.5t-12 30.5q0 22 14 31t29 9q15 -2 28 -10t13 -30t-13 -31t-28 -9z" />
    <glyph glyph-name="nine.sups" unicode="&#x2079;" 
d="M71 0v700h232v-700h-232zM247 77v48q0 32 -19 46.5t-42 13.5q-23 0 -41.5 -14t-18.5 -46v-48h121zM148 125q-1 20 11.5 28t26.5 10q14 0 27 -8.5t13 -29.5v-26h-78v26zM226 243h-28v65h-21v-65h-28v67h-23v-90h121v90h-21v-67zM247 477h-121v-26l53 -39l-53 -37v-26h121
v22h-87l53 39v4l-53 41h87v22zM123 574q0 -26 18 -44t47 -18q23 0 43 15t20 47t-20.5 46.5t-43.5 15.5q-23 0 -43.5 -15t-20.5 -47zM188 534q-18 -1 -31 9.5t-12 30.5q0 22 14 31t29 9q15 -2 28 -10t13 -30t-13 -31t-28 -9z" />
    <glyph glyph-name="zero.tf" 
d="M71 0v700h232v-700h-232zM247 77v48q0 32 -19 46.5t-42 13.5q-23 0 -41.5 -14t-18.5 -46v-48h121zM148 125q-1 20 11.5 28t26.5 10q14 0 27 -8.5t13 -29.5v-26h-78v26zM226 243h-28v65h-21v-65h-28v67h-23v-90h121v90h-21v-67zM247 477h-121v-26l53 -39l-53 -37v-26h121
v22h-87l53 39v4l-53 41h87v22zM123 574q0 -26 18 -44t47 -18q23 0 43 15t20 47t-20.5 46.5t-43.5 15.5q-23 0 -43.5 -15t-20.5 -47zM188 534q-18 -1 -31 9.5t-12 30.5q0 22 14 31t29 9q15 -2 28 -10t13 -30t-13 -31t-28 -9z" />
    <glyph glyph-name="one.tf" 
d="M71 0v700h232v-700h-232zM247 77v48q0 32 -19 46.5t-42 13.5q-23 0 -41.5 -14t-18.5 -46v-48h121zM148 125q-1 20 11.5 28t26.5 10q14 0 27 -8.5t13 -29.5v-26h-78v26zM226 243h-28v65h-21v-65h-28v67h-23v-90h121v90h-21v-67zM247 477h-121v-26l53 -39l-53 -37v-26h121
v22h-87l53 39v4l-53 41h87v22zM123 574q0 -26 18 -44t47 -18q23 0 43 15t20 47t-20.5 46.5t-43.5 15.5q-23 0 -43.5 -15t-20.5 -47zM188 534q-18 -1 -31 9.5t-12 30.5q0 22 14 31t29 9q15 -2 28 -10t13 -30t-13 -31t-28 -9z" />
    <glyph glyph-name="two.tf" 
d="M71 0v700h232v-700h-232zM247 77v48q0 32 -19 46.5t-42 13.5q-23 0 -41.5 -14t-18.5 -46v-48h121zM148 125q-1 20 11.5 28t26.5 10q14 0 27 -8.5t13 -29.5v-26h-78v26zM226 243h-28v65h-21v-65h-28v67h-23v-90h121v90h-21v-67zM247 477h-121v-26l53 -39l-53 -37v-26h121
v22h-87l53 39v4l-53 41h87v22zM123 574q0 -26 18 -44t47 -18q23 0 43 15t20 47t-20.5 46.5t-43.5 15.5q-23 0 -43.5 -15t-20.5 -47zM188 534q-18 -1 -31 9.5t-12 30.5q0 22 14 31t29 9q15 -2 28 -10t13 -30t-13 -31t-28 -9z" />
    <glyph glyph-name="three.tf" 
d="M71 0v700h232v-700h-232zM247 77v48q0 32 -19 46.5t-42 13.5q-23 0 -41.5 -14t-18.5 -46v-48h121zM148 125q-1 20 11.5 28t26.5 10q14 0 27 -8.5t13 -29.5v-26h-78v26zM226 243h-28v65h-21v-65h-28v67h-23v-90h121v90h-21v-67zM247 477h-121v-26l53 -39l-53 -37v-26h121
v22h-87l53 39v4l-53 41h87v22zM123 574q0 -26 18 -44t47 -18q23 0 43 15t20 47t-20.5 46.5t-43.5 15.5q-23 0 -43.5 -15t-20.5 -47zM188 534q-18 -1 -31 9.5t-12 30.5q0 22 14 31t29 9q15 -2 28 -10t13 -30t-13 -31t-28 -9z" />
    <glyph glyph-name="four.tf" 
d="M71 0v700h232v-700h-232zM247 77v48q0 32 -19 46.5t-42 13.5q-23 0 -41.5 -14t-18.5 -46v-48h121zM148 125q-1 20 11.5 28t26.5 10q14 0 27 -8.5t13 -29.5v-26h-78v26zM226 243h-28v65h-21v-65h-28v67h-23v-90h121v90h-21v-67zM247 477h-121v-26l53 -39l-53 -37v-26h121
v22h-87l53 39v4l-53 41h87v22zM123 574q0 -26 18 -44t47 -18q23 0 43 15t20 47t-20.5 46.5t-43.5 15.5q-23 0 -43.5 -15t-20.5 -47zM188 534q-18 -1 -31 9.5t-12 30.5q0 22 14 31t29 9q15 -2 28 -10t13 -30t-13 -31t-28 -9z" />
    <glyph glyph-name="five.tf" 
d="M71 0v700h232v-700h-232zM247 77v48q0 32 -19 46.5t-42 13.5q-23 0 -41.5 -14t-18.5 -46v-48h121zM148 125q-1 20 11.5 28t26.5 10q14 0 27 -8.5t13 -29.5v-26h-78v26zM226 243h-28v65h-21v-65h-28v67h-23v-90h121v90h-21v-67zM247 477h-121v-26l53 -39l-53 -37v-26h121
v22h-87l53 39v4l-53 41h87v22zM123 574q0 -26 18 -44t47 -18q23 0 43 15t20 47t-20.5 46.5t-43.5 15.5q-23 0 -43.5 -15t-20.5 -47zM188 534q-18 -1 -31 9.5t-12 30.5q0 22 14 31t29 9q15 -2 28 -10t13 -30t-13 -31t-28 -9z" />
    <glyph glyph-name="six.tf" 
d="M71 0v700h232v-700h-232zM247 77v48q0 32 -19 46.5t-42 13.5q-23 0 -41.5 -14t-18.5 -46v-48h121zM148 125q-1 20 11.5 28t26.5 10q14 0 27 -8.5t13 -29.5v-26h-78v26zM226 243h-28v65h-21v-65h-28v67h-23v-90h121v90h-21v-67zM247 477h-121v-26l53 -39l-53 -37v-26h121
v22h-87l53 39v4l-53 41h87v22zM123 574q0 -26 18 -44t47 -18q23 0 43 15t20 47t-20.5 46.5t-43.5 15.5q-23 0 -43.5 -15t-20.5 -47zM188 534q-18 -1 -31 9.5t-12 30.5q0 22 14 31t29 9q15 -2 28 -10t13 -30t-13 -31t-28 -9z" />
    <glyph glyph-name="seven.tf" 
d="M71 0v700h232v-700h-232zM247 77v48q0 32 -19 46.5t-42 13.5q-23 0 -41.5 -14t-18.5 -46v-48h121zM148 125q-1 20 11.5 28t26.5 10q14 0 27 -8.5t13 -29.5v-26h-78v26zM226 243h-28v65h-21v-65h-28v67h-23v-90h121v90h-21v-67zM247 477h-121v-26l53 -39l-53 -37v-26h121
v22h-87l53 39v4l-53 41h87v22zM123 574q0 -26 18 -44t47 -18q23 0 43 15t20 47t-20.5 46.5t-43.5 15.5q-23 0 -43.5 -15t-20.5 -47zM188 534q-18 -1 -31 9.5t-12 30.5q0 22 14 31t29 9q15 -2 28 -10t13 -30t-13 -31t-28 -9z" />
    <glyph glyph-name="eight.tf" 
d="M71 0v700h232v-700h-232zM247 77v48q0 32 -19 46.5t-42 13.5q-23 0 -41.5 -14t-18.5 -46v-48h121zM148 125q-1 20 11.5 28t26.5 10q14 0 27 -8.5t13 -29.5v-26h-78v26zM226 243h-28v65h-21v-65h-28v67h-23v-90h121v90h-21v-67zM247 477h-121v-26l53 -39l-53 -37v-26h121
v22h-87l53 39v4l-53 41h87v22zM123 574q0 -26 18 -44t47 -18q23 0 43 15t20 47t-20.5 46.5t-43.5 15.5q-23 0 -43.5 -15t-20.5 -47zM188 534q-18 -1 -31 9.5t-12 30.5q0 22 14 31t29 9q15 -2 28 -10t13 -30t-13 -31t-28 -9z" />
    <glyph glyph-name="nine.tf" 
d="M71 0v700h232v-700h-232zM247 77v48q0 32 -19 46.5t-42 13.5q-23 0 -41.5 -14t-18.5 -46v-48h121zM148 125q-1 20 11.5 28t26.5 10q14 0 27 -8.5t13 -29.5v-26h-78v26zM226 243h-28v65h-21v-65h-28v67h-23v-90h121v90h-21v-67zM247 477h-121v-26l53 -39l-53 -37v-26h121
v22h-87l53 39v4l-53 41h87v22zM123 574q0 -26 18 -44t47 -18q23 0 43 15t20 47t-20.5 46.5t-43.5 15.5q-23 0 -43.5 -15t-20.5 -47zM188 534q-18 -1 -31 9.5t-12 30.5q0 22 14 31t29 9q15 -2 28 -10t13 -30t-13 -31t-28 -9z" />
    <glyph glyph-name="zero.tosf" 
d="M71 0v700h232v-700h-232zM247 77v48q0 32 -19 46.5t-42 13.5q-23 0 -41.5 -14t-18.5 -46v-48h121zM148 125q-1 20 11.5 28t26.5 10q14 0 27 -8.5t13 -29.5v-26h-78v26zM226 243h-28v65h-21v-65h-28v67h-23v-90h121v90h-21v-67zM247 477h-121v-26l53 -39l-53 -37v-26h121
v22h-87l53 39v4l-53 41h87v22zM123 574q0 -26 18 -44t47 -18q23 0 43 15t20 47t-20.5 46.5t-43.5 15.5q-23 0 -43.5 -15t-20.5 -47zM188 534q-18 -1 -31 9.5t-12 30.5q0 22 14 31t29 9q15 -2 28 -10t13 -30t-13 -31t-28 -9z" />
    <glyph glyph-name="one.tosf" 
d="M71 0v700h232v-700h-232zM247 77v48q0 32 -19 46.5t-42 13.5q-23 0 -41.5 -14t-18.5 -46v-48h121zM148 125q-1 20 11.5 28t26.5 10q14 0 27 -8.5t13 -29.5v-26h-78v26zM226 243h-28v65h-21v-65h-28v67h-23v-90h121v90h-21v-67zM247 477h-121v-26l53 -39l-53 -37v-26h121
v22h-87l53 39v4l-53 41h87v22zM123 574q0 -26 18 -44t47 -18q23 0 43 15t20 47t-20.5 46.5t-43.5 15.5q-23 0 -43.5 -15t-20.5 -47zM188 534q-18 -1 -31 9.5t-12 30.5q0 22 14 31t29 9q15 -2 28 -10t13 -30t-13 -31t-28 -9z" />
    <glyph glyph-name="two.tosf" 
d="M71 0v700h232v-700h-232zM247 77v48q0 32 -19 46.5t-42 13.5q-23 0 -41.5 -14t-18.5 -46v-48h121zM148 125q-1 20 11.5 28t26.5 10q14 0 27 -8.5t13 -29.5v-26h-78v26zM226 243h-28v65h-21v-65h-28v67h-23v-90h121v90h-21v-67zM247 477h-121v-26l53 -39l-53 -37v-26h121
v22h-87l53 39v4l-53 41h87v22zM123 574q0 -26 18 -44t47 -18q23 0 43 15t20 47t-20.5 46.5t-43.5 15.5q-23 0 -43.5 -15t-20.5 -47zM188 534q-18 -1 -31 9.5t-12 30.5q0 22 14 31t29 9q15 -2 28 -10t13 -30t-13 -31t-28 -9z" />
    <glyph glyph-name="three.tosf" 
d="M71 0v700h232v-700h-232zM247 77v48q0 32 -19 46.5t-42 13.5q-23 0 -41.5 -14t-18.5 -46v-48h121zM148 125q-1 20 11.5 28t26.5 10q14 0 27 -8.5t13 -29.5v-26h-78v26zM226 243h-28v65h-21v-65h-28v67h-23v-90h121v90h-21v-67zM247 477h-121v-26l53 -39l-53 -37v-26h121
v22h-87l53 39v4l-53 41h87v22zM123 574q0 -26 18 -44t47 -18q23 0 43 15t20 47t-20.5 46.5t-43.5 15.5q-23 0 -43.5 -15t-20.5 -47zM188 534q-18 -1 -31 9.5t-12 30.5q0 22 14 31t29 9q15 -2 28 -10t13 -30t-13 -31t-28 -9z" />
    <glyph glyph-name="four.tosf" 
d="M71 0v700h232v-700h-232zM247 77v48q0 32 -19 46.5t-42 13.5q-23 0 -41.5 -14t-18.5 -46v-48h121zM148 125q-1 20 11.5 28t26.5 10q14 0 27 -8.5t13 -29.5v-26h-78v26zM226 243h-28v65h-21v-65h-28v67h-23v-90h121v90h-21v-67zM247 477h-121v-26l53 -39l-53 -37v-26h121
v22h-87l53 39v4l-53 41h87v22zM123 574q0 -26 18 -44t47 -18q23 0 43 15t20 47t-20.5 46.5t-43.5 15.5q-23 0 -43.5 -15t-20.5 -47zM188 534q-18 -1 -31 9.5t-12 30.5q0 22 14 31t29 9q15 -2 28 -10t13 -30t-13 -31t-28 -9z" />
    <glyph glyph-name="five.tosf" 
d="M71 0v700h232v-700h-232zM247 77v48q0 32 -19 46.5t-42 13.5q-23 0 -41.5 -14t-18.5 -46v-48h121zM148 125q-1 20 11.5 28t26.5 10q14 0 27 -8.5t13 -29.5v-26h-78v26zM226 243h-28v65h-21v-65h-28v67h-23v-90h121v90h-21v-67zM247 477h-121v-26l53 -39l-53 -37v-26h121
v22h-87l53 39v4l-53 41h87v22zM123 574q0 -26 18 -44t47 -18q23 0 43 15t20 47t-20.5 46.5t-43.5 15.5q-23 0 -43.5 -15t-20.5 -47zM188 534q-18 -1 -31 9.5t-12 30.5q0 22 14 31t29 9q15 -2 28 -10t13 -30t-13 -31t-28 -9z" />
    <glyph glyph-name="six.tosf" 
d="M71 0v700h232v-700h-232zM247 77v48q0 32 -19 46.5t-42 13.5q-23 0 -41.5 -14t-18.5 -46v-48h121zM148 125q-1 20 11.5 28t26.5 10q14 0 27 -8.5t13 -29.5v-26h-78v26zM226 243h-28v65h-21v-65h-28v67h-23v-90h121v90h-21v-67zM247 477h-121v-26l53 -39l-53 -37v-26h121
v22h-87l53 39v4l-53 41h87v22zM123 574q0 -26 18 -44t47 -18q23 0 43 15t20 47t-20.5 46.5t-43.5 15.5q-23 0 -43.5 -15t-20.5 -47zM188 534q-18 -1 -31 9.5t-12 30.5q0 22 14 31t29 9q15 -2 28 -10t13 -30t-13 -31t-28 -9z" />
    <glyph glyph-name="seven.tosf" 
d="M71 0v700h232v-700h-232zM247 77v48q0 32 -19 46.5t-42 13.5q-23 0 -41.5 -14t-18.5 -46v-48h121zM148 125q-1 20 11.5 28t26.5 10q14 0 27 -8.5t13 -29.5v-26h-78v26zM226 243h-28v65h-21v-65h-28v67h-23v-90h121v90h-21v-67zM247 477h-121v-26l53 -39l-53 -37v-26h121
v22h-87l53 39v4l-53 41h87v22zM123 574q0 -26 18 -44t47 -18q23 0 43 15t20 47t-20.5 46.5t-43.5 15.5q-23 0 -43.5 -15t-20.5 -47zM188 534q-18 -1 -31 9.5t-12 30.5q0 22 14 31t29 9q15 -2 28 -10t13 -30t-13 -31t-28 -9z" />
    <glyph glyph-name="eight.tosf" 
d="M71 0v700h232v-700h-232zM247 77v48q0 32 -19 46.5t-42 13.5q-23 0 -41.5 -14t-18.5 -46v-48h121zM148 125q-1 20 11.5 28t26.5 10q14 0 27 -8.5t13 -29.5v-26h-78v26zM226 243h-28v65h-21v-65h-28v67h-23v-90h121v90h-21v-67zM247 477h-121v-26l53 -39l-53 -37v-26h121
v22h-87l53 39v4l-53 41h87v22zM123 574q0 -26 18 -44t47 -18q23 0 43 15t20 47t-20.5 46.5t-43.5 15.5q-23 0 -43.5 -15t-20.5 -47zM188 534q-18 -1 -31 9.5t-12 30.5q0 22 14 31t29 9q15 -2 28 -10t13 -30t-13 -31t-28 -9z" />
    <glyph glyph-name="nine.tosf" 
d="M71 0v700h232v-700h-232zM247 77v48q0 32 -19 46.5t-42 13.5q-23 0 -41.5 -14t-18.5 -46v-48h121zM148 125q-1 20 11.5 28t26.5 10q14 0 27 -8.5t13 -29.5v-26h-78v26zM226 243h-28v65h-21v-65h-28v67h-23v-90h121v90h-21v-67zM247 477h-121v-26l53 -39l-53 -37v-26h121
v22h-87l53 39v4l-53 41h87v22zM123 574q0 -26 18 -44t47 -18q23 0 43 15t20 47t-20.5 46.5t-43.5 15.5q-23 0 -43.5 -15t-20.5 -47zM188 534q-18 -1 -31 9.5t-12 30.5q0 22 14 31t29 9q15 -2 28 -10t13 -30t-13 -31t-28 -9z" />
    <glyph glyph-name="fraction" unicode="&#x2044;" horiz-adv-x="162" 
d="M-157 -11l456 721h17l-456 -721h-17z" />
    <glyph glyph-name="onehalf" unicode="&#xbd;" 
d="M71 0v700h232v-700h-232zM247 77v48q0 32 -19 46.5t-42 13.5q-23 0 -41.5 -14t-18.5 -46v-48h121zM148 125q-1 20 11.5 28t26.5 10q14 0 27 -8.5t13 -29.5v-26h-78v26zM226 243h-28v65h-21v-65h-28v67h-23v-90h121v90h-21v-67zM247 477h-121v-26l53 -39l-53 -37v-26h121
v22h-87l53 39v4l-53 41h87v22zM123 574q0 -26 18 -44t47 -18q23 0 43 15t20 47t-20.5 46.5t-43.5 15.5q-23 0 -43.5 -15t-20.5 -47zM188 534q-18 -1 -31 9.5t-12 30.5q0 22 14 31t29 9q15 -2 28 -10t13 -30t-13 -31t-28 -9z" />
    </font>
</defs>
</svg>
